<svg width="347" height="454" viewBox="0 0 347 454" fill="none" xmlns="http://www.w3.org/2000/svg">
<g style="mix-blend-mode:multiply" opacity="0.3">
<path d="M-31.4962 418.3C-51.6444 383.996 -65.6302 347.543 -69.4871 307.722C-71.7601 284.257 -70.7192 260.585 -65.0194 237.667C-57.4555 207.241 -40.1189 176.269 -20.2482 152.253C-1.27595 129.323 20.3543 110.073 43.1722 91.1548C54.7123 81.5867 66.674 71.5012 79.5184 63.7574C90.2203 57.3051 101.543 52.5923 113.034 47.8058C143.228 35.2253 176.981 24.507 209.663 21.5313C184.398 62.0511 168.872 110.484 166.778 158.304C166.172 172.112 167.09 186.06 167.586 199.872C168.714 231.454 169.205 263.033 159.844 293.552C145.471 340.405 107.74 373.126 65.9779 395.405C48.7456 404.134 31.3844 411.297 12.9136 416.982C2.81831 420.09 -7.64384 423.453 -18.3106 421.636C-22.9118 427.09 -27.9691 433.043 -33.5777 437.442L-34.1103 435.338L-35.1902 434.23C-34.3238 427.114 -27.4852 421.427 -24.1991 414.875L-23.6849 413.822C-25.6786 414.909 -30.1838 416.649 -31.4979 418.301L-31.4962 418.3Z" fill="url(#paint0_linear_1194_111158)"/>
<path d="M65.5462 395.631C48.3914 404.32 31.1066 411.446 12.715 417.097C2.66289 420.186 -7.75427 423.529 -18.3809 421.705C-22.9579 427.14 -27.9889 433.072 -33.5705 437.454L-34.1033 435.356L-35.1801 434.249C-34.3248 427.151 -27.5194 421.486 -24.2534 414.954L-23.7424 413.905L10.8003 370.268L15.9922 364.32L17.5331 362.937C19.0039 360.779 19.6199 359.778 21.7218 358.043L22.9157 359.276L31.6504 347.649L32.6374 348.095C30.2648 354.149 25.7012 359.701 22.1051 365.094L7.13893 389.026C18.8373 393.769 32.3733 397.789 45.0756 396.762C50.7083 396.307 58.6324 393.641 64.0107 395.156L65.5454 395.634L65.5462 395.631Z" fill="#0E772E"/>
<path d="M21.572 358.087C23.7978 352.083 26.8551 346.28 29.3146 340.35L40.2829 310.484L68.0508 221.719C75.4009 200.705 84.6578 179.761 94.6932 159.887C106.109 137.284 119.43 116.352 134.617 96.1137C136.597 93.4739 139.967 87.5142 142.956 86.5377C115.903 125.338 97.2054 165.332 85.3897 211.192C79.8599 232.655 76.1903 254.259 68.6502 275.186C59.3344 301.046 45.0744 323.92 31.5932 347.644L22.7717 359.324L21.5739 358.091L21.572 358.087Z" fill="#5BC550"/>
<path d="M133.945 175.922C142.513 206.513 143.456 234.176 128.021 262.985C115.251 286.816 91.1764 301.652 66.0619 309.402L63.3325 309.69L63.2229 308.652C63.3444 306.495 65.1343 303.006 65.8559 300.906L72.4222 281.172C76.3812 268.97 79.4405 256.342 83.8481 244.313C89.5181 228.851 98.4523 210.928 108.992 198.359C116.168 189.799 124.937 182.49 133.944 175.925L133.945 175.922Z" fill="#5BC550"/>
</g>
<path opacity="0.5" d="M222.232 30.0248C197.297 70.4165 181.983 118.529 179.902 166.047C179.295 179.887 180.215 193.876 180.71 207.664C181.838 239.251 182.321 270.734 172.994 301.143C158.689 347.772 121.124 380.388 79.4361 402.63C62.232 411.344 44.9028 418.494 26.4681 424.168C16.3382 427.286 6.02297 430.591 -4.47354 428.803L-4.81861 428.744L-5.0435 429.011C-9.44692 434.23 -14.2248 439.851 -19.4834 444.139L-19.7829 442.958L-19.8236 442.799L-19.9379 442.681L-20.81 441.786C-20.3306 438.504 -18.5291 435.498 -16.3696 432.465C-14.1782 429.387 -11.5895 426.251 -9.91834 422.918L-9.91588 422.913L-9.4017 421.86L-8.56004 420.138L-10.2433 421.055C-10.7233 421.317 -11.3618 421.622 -12.0888 421.965C-12.8092 422.306 -13.6088 422.681 -14.3874 423.074C-15.1653 423.467 -15.9362 423.884 -16.6007 424.313C-16.9742 424.555 -17.3272 424.809 -17.6347 425.074C-37.5336 391.027 -51.3234 354.88 -55.1441 315.433C-57.3408 292.756 -56.4341 269.898 -51.2112 247.727L-50.6925 245.584L-50.3316 244.163C-42.6138 214.301 -25.5587 183.998 -6.04339 160.412C12.8917 137.526 34.4869 118.306 57.2963 99.3949C68.8472 89.8179 80.7713 79.7653 93.5683 72.0501C104.225 65.6251 115.506 60.9288 127.003 56.1395C156.793 43.7279 190.017 33.1451 222.232 30.0248Z" stroke="#004000" stroke-width="1.22237"/>
<defs>
<linearGradient id="paint0_linear_1194_111158" x1="-43.1974" y1="177.197" x2="167.991" y2="262.353" gradientUnits="userSpaceOnUse">
<stop stop-color="#108234"/>
<stop offset="1" stop-color="#2EAA4F"/>
</linearGradient>
</defs>
</svg>
