<svg width="38" height="44" viewBox="0 0 38 44" fill="none" xmlns="http://www.w3.org/2000/svg">
<path d="M21.5747 6.18584C20.6848 6.02915 19.4614 6.40102 18.6359 6.37543C17.7167 6.34665 16.7843 6.22558 15.946 5.84823C15.0058 5.42473 14.5188 4.5782 14.0089 3.73121C13.2812 2.52148 13.8755 1.94631 14.9971 1.16967C18.0118 -0.919028 22.879 -0.0587851 25.3177 2.54935C26.6028 3.92308 27.3812 5.73173 27.6457 7.59384C27.8317 8.90316 27.7229 10.4788 28.1163 11.7251C28.5037 12.9522 29.8358 13.6224 30.157 14.8851C30.3776 15.7522 30.0186 16.6453 29.7906 17.5101C29.5622 18.3754 29.5165 19.4294 30.1826 20.0265C30.6906 20.4819 31.4512 20.5103 32.1251 20.4024C32.2713 20.3791 32.4248 20.3513 32.5632 20.402C32.9771 20.5541 32.8793 21.1539 32.7665 21.5797C32.4266 22.8589 32.7994 24.2925 33.3448 25.4579C33.862 26.5625 35.0288 27.4388 35.1444 28.7115C35.2312 29.6673 34.6496 30.5458 34.0557 31.2996C33.6916 30.6847 33.1859 30.1547 32.5883 29.7623C31.8208 29.2579 31.3914 28.3429 30.5997 27.8563C29.157 26.9696 27.2103 26.5936 25.5424 26.5178C24.785 26.483 24.0184 26.5201 23.2769 26.3629C21.403 25.9659 19.9443 24.319 19.4513 22.4683C18.9584 20.6172 19.3266 18.6166 20.132 16.8788C20.7049 15.643 21.4879 14.5178 22.1449 13.3245C22.8018 12.1312 23.3413 10.8283 23.3592 9.46645C23.3724 8.46048 23.0485 7.15984 22.2458 6.47685C22.0617 6.32061 21.8324 6.23107 21.5747 6.18584Z" fill="#383838"/>
<path d="M15.5363 6.18547C16.4257 6.02877 17.6496 6.40064 18.4751 6.37506C19.3943 6.34628 20.3267 6.22521 21.165 5.84785C22.1052 5.42436 22.5922 4.57783 23.102 3.73083C23.8298 2.52111 23.2354 1.94593 22.1139 1.1693C20.3546 -0.0495698 17.9274 -0.361138 15.9762 0.577681C14.391 1.34061 12.7344 2.31964 11.3004 3.33475C9.48354 4.62031 9.3771 5.85425 9.17746 7.88219C9.01939 9.49029 7.66348 10.6562 7.47708 12.41C7.3245 13.8427 7.34049 15.3662 6.59858 16.6011C6.40305 16.9268 6.15133 17.3252 6.3464 17.6514C6.4396 17.8076 6.61274 17.894 6.74979 18.0132C7.47846 18.6455 6.96176 19.8849 6.20203 20.4797C5.44276 21.075 4.44776 21.461 4.01102 22.3213C3.32347 23.6754 4.37969 25.5119 3.5231 26.7655C3.20423 27.2319 2.64871 27.5522 2.50161 28.0976C2.41024 28.4357 2.49795 28.7929 2.58566 29.1319C2.74007 29.7281 2.89403 30.3248 3.04799 30.9209C5.36145 28.342 8.01936 26.6796 11.5681 26.5179C12.3256 26.4831 13.0921 26.5201 13.8336 26.363C15.7076 25.966 17.1663 24.319 17.6592 22.4684C18.1522 20.6172 17.7839 18.6167 16.9785 16.8789C16.4056 15.6431 15.6226 14.5179 14.9657 13.3246C14.3087 12.1313 13.7692 10.8284 13.7514 9.46653C13.7381 8.46056 14.062 7.15992 14.8647 6.47694C15.0488 6.32024 15.2786 6.2307 15.5363 6.18547Z" fill="#383838"/>
<path d="M35.8517 32.913C34.9038 29.542 32.2755 26.9037 28.9081 25.9425L22.6964 24.1699H18.7804H14.8643L8.65261 25.9425C5.28522 26.9032 2.657 29.5415 1.70905 32.913L0 35.7633C4.88229 40.4295 11.4942 43.3013 18.7808 43.3013C26.0675 43.3013 32.6794 40.4295 37.5612 35.7633L35.8517 32.913Z" fill="#383838"/>
<path d="M22.4408 19.1738H18.7811H15.1213L13.9678 25.212C13.9678 25.212 16.0327 27.3765 18.7811 27.4907C21.5294 27.3765 23.5939 25.212 23.5939 25.212L22.4408 19.1738Z" fill="#D6EAE8"/>
<path d="M26.9679 10.7013C26.9679 15.6503 23.3027 22.2782 18.7808 22.2782C14.2595 22.2782 10.5938 15.6503 10.5938 10.7013C10.5938 5.75225 14.259 1.74023 18.7808 1.74023C23.3022 1.73978 26.9679 5.75179 26.9679 10.7013Z" fill="#E4F4F3"/>
<path d="M19.3508 0.743378C21.8214 0.56201 24.1349 2.3195 25.4926 4.27114C23.3701 3.5475 20.5217 4.43424 19.9648 6.84867C19.8488 7.35165 19.841 7.88708 19.6199 8.35397C18.819 10.0434 16.1109 9.58426 14.7965 10.9137C13.6032 12.1211 14.0921 14.165 13.474 15.7457C13.172 16.5173 12.6064 17.1665 12.325 17.9459C12.0957 18.5805 11.9138 19.4302 11.2459 19.5229C10.8229 19.5819 10.4245 19.2475 10.2642 18.8518C10.1038 18.4558 10.1253 18.0131 10.1491 17.5864C10.2861 15.1514 9.93571 13.2185 9.34638 10.8611C9.08324 9.12696 10.0065 7.45764 10.8965 5.94594C11.5041 4.91438 12.1322 3.85815 13.0697 3.11304C13.7755 2.55203 14.6197 2.19797 15.4548 1.85762C16.7102 1.34596 17.9972 0.842513 19.3508 0.743378Z" fill="#383838"/>
</svg>