<svg width="43" height="44" viewBox="0 0 43 44" fill="none" xmlns="http://www.w3.org/2000/svg">
<path d="M42.3464 43.0466L0 43.3405C0.238634 40.2424 0.474828 35.7846 1.80378 34.697C3.0437 33.6821 8.22455 31.711 8.98558 31.3138C9.55879 31.0145 10.056 30.4478 10.5243 30.0135C11.2817 29.3101 12.0224 28.588 12.7614 27.8643C13.2554 27.3789 13.7371 26.7381 14.2579 26.2612C15.5141 25.1113 16.6219 24.8678 18.3175 24.5515C19.7835 24.2758 20.9669 24.3823 22.6581 24.325C24.0427 24.2795 25.5562 24.5669 26.8295 25.1146C28.1771 25.6964 29.0784 26.6434 29.9374 27.7712C30.5631 28.5966 31.1952 29.4167 31.8514 30.2164C32.2319 30.6799 32.6681 31.3731 33.2076 31.6724C33.9263 32.0696 39.5064 34.7669 40.7325 36.0777C41.3248 36.7116 41.9 39.9077 42.3464 43.0466Z" fill="#383838"/>
<path d="M16.1737 26.0795C15.9082 26.1014 15.1797 26.7812 15.0025 26.9447C14.4805 27.4257 14.3321 28.1652 14.1256 28.7816C13.8557 29.5867 13.5825 30.4779 13.7032 31.3191C13.7882 31.9115 14.1488 32.5218 14.3504 33.1081C14.8029 34.4234 15.3285 35.7228 15.9221 37.0007C17.0506 39.4301 18.3243 39.4297 20.4972 41.3808C20.7504 41.6085 21.0179 41.8257 21.3066 42.0241C23.3909 40.5774 24.7658 40.8869 25.8768 38.9048C27.1932 36.5571 28.5794 33.9583 28.7286 31.3565C28.751 30.9634 28.7738 30.5706 28.7961 30.1774C28.8246 29.6834 28.8522 29.1829 28.7233 28.6995C28.4778 27.7782 27.8046 26.312 26.7834 25.7896C25.7963 25.2842 16.2038 26.0766 16.1737 26.0795Z" fill="#6C6960"/>
<path d="M22.9212 35.0035C22.5086 35.8586 19.7824 35.6935 19.6165 34.8385C19.4897 34.1778 19.8234 32.7348 20.1295 32.0371C20.5605 32.2363 20.9784 32.3477 21.352 32.3697C21.8289 32.3982 22.2923 32.3193 22.735 32.1465C23.1224 33.1503 23.207 34.4132 22.9212 35.0035Z" fill="#56534C"/>
<path d="M23.6847 43.0488H18.79L20.506 34.7402H22.0683L23.6847 43.0488Z" fill="#56534C"/>
<path d="M25.896 24.7942V24.8247C25.874 26.6864 25.8419 28.3709 25.0354 30.0907C24.9744 30.2192 24.9102 30.3493 24.8443 30.4745C24.7496 30.6539 24.6463 30.8279 24.5366 30.9986C23.8263 32.0879 23.0877 32.5729 21.8043 32.6933C20.82 32.7864 19.6232 32.7254 18.7792 32.1489C17.4332 31.2304 16.4458 29.7931 16.177 28.1765C16.0738 27.5508 16.0758 25.9916 16.0957 24.5018C16.1177 22.797 16.1632 21.1804 16.1043 21.1585C16.1043 21.1585 25.896 20.5531 25.896 20.8491C25.896 22.1237 25.911 23.5191 25.896 24.7942Z" fill="#D6EAE8"/>
<path d="M26.0884 24.845V24.8754C24.7334 26.392 23.7207 27.1007 21.3917 27.3036C19.2895 27.4865 17.341 25.987 16.2881 24.5526C16.31 22.8478 16.3556 21.2312 16.2966 21.2093C16.2966 21.2093 26.0884 20.6039 26.0884 20.8999C26.0884 22.1745 26.1034 23.5699 26.0884 24.845Z" fill="#D5D2C9"/>
<path d="M27.725 21.0479C27.0469 22.4567 24.4463 24.7579 22.086 24.9307C20.1314 25.0747 16.2929 24.4912 14.2574 19.7781C13.5033 18.033 13.1736 15.8192 13.0618 13.7171C12.8691 10.1388 13.3037 6.88003 13.3374 6.79546C15.0554 2.48161 19.6882 1.88109 21.3656 1.72211C23.0157 1.56476 29.0218 3.02765 29.6068 8.76374C29.6186 8.86539 29.6271 8.96825 29.6341 9.07152C30.0329 15.065 29.1653 18.4994 27.725 21.0479Z" fill="#E4F4F3"/>
<path d="M22.3482 8.83814C22.0388 9.17641 16.6836 8.19045 16.6836 8.19045C16.6836 8.19045 16.2896 10.3331 16.1478 10.5869C16.0075 10.8406 13.9224 11.544 13.9224 11.544L13.3085 13.9757L13.0618 13.7171C12.8691 10.1388 13.3037 6.88003 13.3374 6.79546C15.0554 2.48161 19.6882 1.88109 21.3656 1.72211C23.0157 1.56476 29.0218 3.02765 29.6068 8.76374L21.5026 8.07702C21.5026 8.07702 22.6576 8.49986 22.3482 8.83814Z" fill="#D5D2C9"/>
<path d="M13.3757 14.0078C13.4314 13.8651 12.2874 11.6642 10.8727 11.9305C9.45796 12.1968 9.76936 16.4343 11.9955 17.7361C14.1819 19.0144 14.7604 18.0557 14.7604 18.0557L13.3757 14.0078Z" fill="white"/>
<path d="M13.1637 14.1866C13.1637 14.1866 11.5457 12.7014 11.1745 12.94C10.8034 13.1787 10.644 14.6908 10.8298 14.7172C11.0156 14.7436 11.4481 13.5035 11.4481 13.5035L13.2962 15.0356L13.1637 14.1866Z" fill="#D5D2C9"/>
<path d="M13.1526 14.4351C13.1526 14.4351 12.0387 14.0106 11.7203 15.2841C11.402 16.5575 12.5228 17.2336 13.4156 16.8762C13.627 16.7917 13.1526 14.4351 13.1526 14.4351Z" fill="#BBB9B0"/>
<path d="M29.1864 13.8945C29.1307 13.7518 30.2747 11.5509 31.6894 11.8173C33.1042 12.0836 32.7928 16.321 30.5666 17.6229C28.3803 18.9012 27.8018 17.9424 27.8018 17.9424L29.1864 13.8945Z" fill="white"/>
<path d="M29.405 14.1495C29.405 14.1495 31.023 12.6643 31.3942 12.9029C31.7653 13.1416 31.9247 14.6537 31.7389 14.6801C31.5531 14.7065 31.1206 13.4664 31.1206 13.4664L29.2725 14.9984L29.405 14.1495Z" fill="#D5D2C9"/>
<path d="M29.4186 14.398C29.4186 14.398 30.5325 13.9735 30.8508 15.2469C31.1692 16.5204 30.0484 17.1965 29.156 16.8391C28.9442 16.7546 29.4186 14.398 29.4186 14.398Z" fill="#BBB9B0"/>
<path d="M20.108 17.9621C19.812 18.0723 19.5417 18.2581 19.238 18.3419C19.3217 18.3427 19.4055 18.3646 19.4799 18.4057C19.2051 18.4915 18.9363 18.6005 18.6774 18.7314C18.7363 18.7293 18.7957 18.7277 18.8546 18.7257C18.5087 18.8741 18.1464 18.9774 17.7777 19.0331C17.8513 19.0721 17.9249 19.1115 17.9989 19.1506C17.8314 19.216 17.6562 19.2599 17.4785 19.2799C17.8733 19.4746 18.3046 19.582 18.7384 19.5941C18.6392 19.6462 18.5396 19.6982 18.4404 19.7503C18.8014 19.7629 19.1648 19.6885 19.4961 19.534C19.4002 19.56 19.3246 19.6568 19.3173 19.7629C19.6762 19.7153 20.0315 19.6307 20.3755 19.5104C20.3393 19.5458 20.3165 19.5966 20.3129 19.6494C20.6149 19.5856 20.9629 19.1835 21.2645 19.4396C21.4914 19.6324 21.7756 19.7267 22.0524 19.8165C21.9678 19.7157 21.9138 19.586 21.9 19.451C22.3585 19.5592 22.8025 19.6962 23.2761 19.6759C23.1748 19.6974 23.0643 19.6498 23.0045 19.5596C23.4663 19.6397 23.9367 19.662 24.4034 19.6267C24.2416 19.5506 24.0908 19.4482 23.957 19.3238C24.2204 19.3648 24.4892 19.366 24.753 19.3282C24.5205 19.2307 24.3119 19.0945 24.0879 18.9798C23.9899 18.9294 23.9009 18.8969 23.8086 18.8265C23.7761 18.8017 23.5907 18.6061 23.5655 18.6122C23.7143 18.5757 23.8631 18.5391 24.0115 18.5029C23.7245 18.4427 23.4423 18.3573 23.1683 18.2467C22.8362 18.113 22.5118 17.9418 22.1605 17.8869C21.8768 17.8426 21.5467 17.8861 21.317 18.0861C21.1491 18.2329 21.1918 18.2614 21.0088 18.1061C20.9019 18.0154 20.7942 17.9426 20.6564 17.9235C20.4669 17.8975 20.2917 17.8938 20.108 17.9621Z" fill="#56534C"/>
<path d="M13.1737 11.0766C13.1737 11.0766 13.6388 10.7383 14.46 10.2175C14.5226 10.1777 14.5966 10.1508 14.6413 10.0914C14.6848 10.0341 14.6998 9.96094 14.7137 9.89019C14.8925 8.98392 15.2982 7.92761 15.2982 7.01646C15.2413 7.35636 19.0839 7.48687 19.429 7.50314C19.5449 7.50842 19.6827 7.5007 19.7445 7.38401C19.5595 7.16405 19.3428 6.9823 19.1066 6.84935C19.3363 6.97864 19.7473 6.94531 20.0014 6.97987C20.3457 7.02663 20.6909 7.06932 21.036 7.10794C21.7036 7.18275 22.3723 7.24253 23.0415 7.28725C24.3253 7.37304 25.6075 7.40191 26.8929 7.45029C26.9393 7.45192 27.1617 9.6926 27.1726 9.89589C27.1751 9.93777 27.1775 9.98046 27.1938 10.0191C27.2141 10.0671 27.254 10.1037 27.293 10.1386C27.7743 10.568 28.2256 10.8599 28.7715 11.2026C28.7715 11.7946 28.7451 12.2098 28.7508 12.6257C28.7536 12.8416 28.9106 14.239 28.7374 14.3354C29.1573 14.102 29.4675 13.7031 29.6671 13.2665C29.9838 12.5741 30.1159 11.7337 30.1997 10.9811C30.283 10.2313 30.4298 9.21323 30.2338 8.47488C30.2818 8.6554 30.4225 8.79608 30.5802 8.82048C30.5574 7.57552 30.2944 6.33788 29.8167 5.22994C29.9785 5.36086 30.1407 5.49137 30.3025 5.62188C30.0037 4.24763 29.0524 3.21165 28.0487 2.44646C26.2811 1.09945 24.2208 0.338728 22.1325 0.0927448C20.784 -0.0662296 19.4213 -0.0141857 18.0789 0.198051C17.4708 0.294412 16.7036 0.335062 16.1361 0.62455C15.8597 0.765634 15.2633 1.42023 15.2405 1.77762C15.2702 1.31046 15.2165 0.836379 15.0848 0.394829C14.76 0.908344 14.6811 1.628 14.8852 2.22324C14.4197 2.03418 13.8977 2.05207 13.442 2.27244C13.8164 2.42328 14.1909 2.57413 14.5649 2.72497C13.4001 2.84044 12.4265 3.92642 11.9379 5.19049C11.2154 7.05915 11.2955 9.28235 11.2939 11.2929C11.2939 11.362 11.2947 11.4344 11.3232 11.4942C11.352 11.5539 11.4187 11.5942 11.4695 11.5608C11.5012 11.5401 11.5183 11.4978 11.5329 11.458C11.6472 11.1474 11.7443 10.8294 11.8358 10.5131C11.5781 11.4051 12.4167 12.8741 12.8656 13.6064C12.9704 13.7775 13.107 13.9609 13.3062 13.9845C13.2453 13.2299 13.1737 11.0766 13.1737 11.0766Z" fill="#383838"/>
</svg>
