<svg width="24" height="24" viewBox="0 0 24 24" fill="none" xmlns="http://www.w3.org/2000/svg">
<g clip-path="url(#clip0_814_7177)">
<path d="M23.7429 12.0496C23.7429 18.6428 18.4304 23.9938 11.8715 23.9938C5.31247 23.9938 0 18.6428 0 12.0496C0 5.45049 5.31247 0.105469 11.8715 0.105469C18.4304 0.105469 23.7429 5.45049 23.7429 12.0496Z" fill="#283544"/>
<path d="M17.1017 9.45678C17.0369 9.4948 15.4948 10.2972 15.4948 12.0764C15.5675 14.1054 17.4409 14.8169 17.473 14.8169C17.4409 14.855 17.1902 15.7863 16.4476 16.7625C15.8582 17.6034 15.2041 18.4513 14.2107 18.4513C13.2659 18.4513 12.9267 17.8908 11.8364 17.8908C10.6656 17.8908 10.3343 18.4513 9.43791 18.4513C8.44458 18.4513 7.74198 17.558 7.12049 16.725C6.31308 15.6347 5.62681 13.9237 5.60259 12.2808C5.58626 11.4102 5.76428 10.5545 6.21617 9.82762C6.85399 8.81287 7.99268 8.12403 9.23618 8.10131C10.189 8.07119 11.0369 8.71461 11.6184 8.71461C12.1756 8.71461 13.2174 8.10131 14.3961 8.10131C14.9049 8.10181 16.2616 8.2455 17.1017 9.45678ZM11.5378 7.9275C11.3682 7.13248 11.8364 6.33747 12.2725 5.83035C12.8298 5.21705 13.7098 4.80078 14.4688 4.80078C14.5173 5.59579 14.2102 6.3755 13.6614 6.94336C13.1689 7.55666 12.321 8.01835 11.5378 7.9275Z" fill="white"/>
</g>
<defs>
<clipPath id="clip0_814_7177">
<rect width="24" height="24" fill="white"/>
</clipPath>
</defs>
</svg>
