<svg width="24" height="24" viewBox="0 0 24 24" fill="none" xmlns="http://www.w3.org/2000/svg">
<path d="M20.506 12.3129L12.728 20.0909C11.5997 21.2009 10.0784 21.8202 8.49559 21.8138C6.91277 21.8073 5.39661 21.1757 4.27738 20.0564C3.15815 18.9372 2.52651 17.4211 2.52007 15.8382C2.51362 14.2554 3.13289 12.7342 4.24297 11.6059L12.021 3.82785C12.3924 3.45641 12.8334 3.16176 13.3187 2.96074C13.804 2.75972 14.3242 2.65625 14.8495 2.65625C15.3748 2.65625 15.8949 2.75972 16.3802 2.96074C16.8656 3.16176 17.3065 3.45641 17.678 3.82785C18.0494 4.1993 18.3441 4.64026 18.5451 5.12558C18.7461 5.61089 18.8496 6.13105 18.8496 6.65635C18.8496 7.18165 18.7461 7.70181 18.5451 8.18713C18.3441 8.67244 18.0494 9.11341 17.678 9.48485L9.89997 17.2629C9.52482 17.638 9.01601 17.8488 8.48547 17.8488C7.95493 17.8488 7.44612 17.638 7.07097 17.2629C6.69582 16.8877 6.48506 16.3789 6.48506 15.8484C6.48506 15.3178 6.69582 14.809 7.07097 14.4339L14.142 7.36385" stroke="white" stroke-width="1.5" stroke-linecap="square"/>
</svg>
