<svg width="40" height="40" viewBox="0 0 40 40" fill="none" xmlns="http://www.w3.org/2000/svg">
<path fill-rule="evenodd" clip-rule="evenodd" d="M15.9799 18.039C15.8865 18.0961 15.8053 18.1712 15.741 18.2598C15.6766 18.3484 15.6303 18.4488 15.6048 18.5553C15.5792 18.6618 15.5749 18.7723 15.5921 18.8804C15.6093 18.9886 15.6476 19.0923 15.7049 19.1856C16.4708 20.434 17.1216 21.6731 17.5549 22.799C17.6343 23.0053 17.7923 23.1716 17.9943 23.2614C18.1963 23.3512 18.4257 23.357 18.632 23.2777C18.8383 23.1984 19.0047 23.0403 19.0945 22.8383C19.1843 22.6363 19.1901 22.4069 19.1108 22.2006C18.6291 20.9473 17.9224 19.6131 17.1258 18.314C17.0103 18.1256 16.8247 17.9908 16.6098 17.9392C16.3949 17.8876 16.1684 17.9235 15.9799 18.039ZM24.6583 17.244C24.8366 17.3744 24.9558 17.5703 24.9897 17.7886C25.0236 18.0069 24.9694 18.2297 24.8391 18.4081C23.8749 19.7273 23.0258 21.4915 22.4283 22.8381C22.3838 22.9381 22.3201 23.0284 22.2408 23.1038C22.1615 23.1793 22.0681 23.2383 21.9659 23.2776C21.8638 23.3169 21.7549 23.3357 21.6455 23.333C21.5361 23.3302 21.4283 23.3059 21.3283 23.2615C21.2282 23.217 21.138 23.1533 21.0626 23.074C20.9871 22.9947 20.9281 22.9013 20.8888 22.7991C20.8495 22.697 20.8307 22.5881 20.8334 22.4787C20.8362 22.3693 20.8605 22.2615 20.9049 22.1615C21.5083 20.8031 22.4166 18.8981 23.4941 17.4248C23.6245 17.2465 23.8205 17.1273 24.0388 17.0934C24.2571 17.0595 24.4799 17.1136 24.6583 17.244Z" fill="#2B892B"/>
<path fill-rule="evenodd" clip-rule="evenodd" d="M22.7 10.0308C24.6517 7.79917 35.0875 5 35.0875 5C35.0875 5 33.3133 16.1625 31.7525 17.9475C30.59 19.2775 26.8858 18.4467 25.0708 17.9358C26.4275 15.855 28 13.8225 29.3825 12.2092C29.5235 12.0411 29.5926 11.8241 29.5746 11.6054C29.5567 11.3867 29.4532 11.1839 29.2866 11.041C29.1201 10.8981 28.9039 10.8267 28.685 10.8423C28.4661 10.8579 28.2622 10.9592 28.1175 11.1242C26.7233 12.7508 25.1075 14.8325 23.6925 16.9967C22.8975 15.5167 21.1567 11.7958 22.7 10.0308ZM9.16667 25H5V35H9.16667V33.2975C10.0167 33.2625 11.2717 33.2175 11.7058 33.235C13.195 33.2958 14.3058 33.6508 15.4308 34.01C16.4792 34.3442 17.5383 34.6825 18.9242 34.7883C19.2725 34.815 19.6117 34.8492 19.9408 34.8817C21.1267 35.0017 22.1792 35.1083 23.0492 34.7883C24.1592 34.38 30.5042 31.2742 31.2975 30.4567C32.0908 29.64 31.6942 27.4333 29.235 27.8417C28.0217 28.0433 26.6158 28.6233 25.34 29.1492C24.0308 29.6883 22.8592 30.1717 22.1758 30.13C20.8275 30.0483 17.2592 29.395 17.2592 29.395L21.3567 29.445C21.3567 29.445 21.9358 29.475 22.7317 28.9042C23.5275 28.3333 24.2383 26.6975 23.0483 26.6975C21.8583 26.6975 20.59 26.2892 20.59 26.2892L15.5133 25.145C15.5133 25.145 13.7683 24.8183 13.055 25.145C12.4667 25.4142 10.015 26.2925 9.16667 26.595V25ZM7.39833 8.05833C7.39833 8.05833 16.0108 10.3683 17.6208 12.2092C18.865 13.6317 17.5242 16.5942 16.8492 17.8692C15.9645 16.4799 15.0093 15.1368 13.9875 13.845C13.9197 13.7591 13.8357 13.6874 13.7401 13.634C13.6446 13.5805 13.5395 13.5464 13.4309 13.5336C13.3222 13.5208 13.212 13.5296 13.1067 13.5593C13.0014 13.5891 12.903 13.6393 12.8171 13.7071C12.7312 13.7749 12.6595 13.8589 12.606 13.9544C12.5526 14.0499 12.5185 14.155 12.5057 14.2637C12.4929 14.3724 12.5016 14.4826 12.5314 14.5879C12.5612 14.6932 12.6114 14.7916 12.6792 14.8775C13.6723 16.1331 14.6002 17.439 15.4592 18.79C13.9025 19.2117 11.0675 19.7925 10.1508 18.7433C8.8625 17.27 7.39833 8.0575 7.39833 8.0575" fill="#2B892B"/>
</svg>
