<svg width="13" height="14" viewBox="0 0 13 14" fill="none" xmlns="http://www.w3.org/2000/svg">
<path d="M5.28125 2.12121H7.71875C7.71875 1.78366 7.59035 1.45994 7.36179 1.22126C7.13323 0.982575 6.82323 0.848485 6.5 0.848485C6.17677 0.848485 5.86677 0.982575 5.63821 1.22126C5.40965 1.45994 5.28125 1.78366 5.28125 2.12121ZM4.46875 2.12121C4.46875 1.55863 4.68276 1.01909 5.06369 0.621289C5.44462 0.223484 5.96128 0 6.5 0C7.03872 0 7.55538 0.223484 7.93631 0.621289C8.31724 1.01909 8.53125 1.55863 8.53125 2.12121H12.5938C12.7015 2.12121 12.8048 2.16591 12.881 2.24547C12.9572 2.32503 13 2.43294 13 2.54545C13 2.65797 12.9572 2.76588 12.881 2.84544C12.8048 2.925 12.7015 2.9697 12.5938 2.9697H11.7374L10.7673 11.7464C10.6987 12.3668 10.4141 12.9393 9.96764 13.3548C9.52119 13.7703 8.94404 14 8.346 14H4.654C4.05596 14 3.47881 13.7703 3.03236 13.3548C2.58591 12.9393 2.30133 12.3668 2.23275 11.7464L1.26262 2.9697H0.40625C0.298506 2.9697 0.195175 2.925 0.118988 2.84544C0.0428013 2.76588 0 2.65797 0 2.54545C0 2.43294 0.0428013 2.32503 0.118988 2.24547C0.195175 2.16591 0.298506 2.12121 0.40625 2.12121H4.46875ZM3.03956 11.6497C3.08541 12.0632 3.27522 12.4448 3.5729 12.7217C3.87058 12.9986 4.25535 13.1516 4.654 13.1515H8.346C8.74466 13.1516 9.12942 12.9986 9.4271 12.7217C9.72478 12.4448 9.91459 12.0632 9.96044 11.6497L10.9192 2.9697H2.08081L3.03956 11.6497ZM5.28125 5.09091C5.38899 5.09091 5.49233 5.13561 5.56851 5.21517C5.6447 5.29473 5.6875 5.40264 5.6875 5.51515V10.6061C5.6875 10.7186 5.6447 10.8265 5.56851 10.906C5.49233 10.9856 5.38899 11.0303 5.28125 11.0303C5.17351 11.0303 5.07017 10.9856 4.99399 10.906C4.9178 10.8265 4.875 10.7186 4.875 10.6061V5.51515C4.875 5.40264 4.9178 5.29473 4.99399 5.21517C5.07017 5.13561 5.17351 5.09091 5.28125 5.09091ZM8.125 5.51515C8.125 5.40264 8.0822 5.29473 8.00601 5.21517C7.92983 5.13561 7.82649 5.09091 7.71875 5.09091C7.61101 5.09091 7.50767 5.13561 7.43149 5.21517C7.3553 5.29473 7.3125 5.40264 7.3125 5.51515V10.6061C7.3125 10.7186 7.3553 10.8265 7.43149 10.906C7.50767 10.9856 7.61101 11.0303 7.71875 11.0303C7.82649 11.0303 7.92983 10.9856 8.00601 10.906C8.0822 10.8265 8.125 10.7186 8.125 10.6061V5.51515Z" fill="#DC0C0B"/>
</svg>
