<svg width="20" height="17" viewBox="0 0 20 17" fill="none" xmlns="http://www.w3.org/2000/svg">
<path d="M6.50342 8.66487C6.555 8.81059 6.62119 8.95631 6.69158 9.10152C6.7479 9.21912 6.8047 9.33153 6.86572 9.4351C8.29981 9.24254 9.74801 9.18581 11.1915 9.25658C11.4547 9.02187 11.6711 8.76375 11.8452 8.4817C10.0629 8.35057 8.27635 8.41144 6.50342 8.66487Z" fill="#737373"/>
<path d="M6.22461 7.0784C6.22461 7.34637 6.24337 7.61858 6.29499 7.89073C8.25143 7.58108 10.2355 7.51969 12.2014 7.70287C12.2811 7.44005 12.328 7.1679 12.3515 6.90039C10.3106 6.70318 8.25143 6.76405 6.22461 7.0784Z" fill="#737373"/>
<path d="M12.223 5.26124C10.3234 5.08746 8.41382 5.13894 6.52358 5.40645C6.42973 5.67917 6.35469 5.96536 6.29785 6.26562C8.30126 5.95132 10.3328 5.88989 12.345 6.09184C12.3262 5.8056 12.284 5.52406 12.223 5.26124Z" fill="#737373"/>
<path d="M11.9492 4.28577C11.86 4.03181 11.7662 3.79711 11.6719 3.58635C10.2519 3.48747 8.82242 3.51557 7.40709 3.66597C7.22829 3.92877 7.05 4.22436 6.88525 4.54858C8.57793 4.32324 10.2941 4.28577 11.992 4.42628C11.9826 4.37944 11.9638 4.33261 11.9492 4.28577Z" fill="#737373"/>
<path d="M14.264 15.4425C11.4427 14.945 8.55567 14.945 5.73436 15.4425C5.65928 15.7714 5.61654 16.0669 5.58838 16.297C8.50404 15.7433 11.4948 15.7433 14.4099 16.297C14.3864 16.0669 14.3395 15.776 14.264 15.4425Z" fill="#737373"/>
<path d="M13.6535 13.7172C11.2268 13.3508 8.76311 13.3508 6.33698 13.7172C6.18629 14.0174 6.06852 14.3177 5.96997 14.5998C8.63123 14.1397 11.3587 14.1397 14.02 14.5998C13.9261 14.3177 13.8036 14.0174 13.6535 13.7172Z" fill="#737373"/>
<g opacity="0.5">
<path d="M9.11166 13.459C8.90991 13.4684 8.70295 13.4777 8.50068 13.4871C8.23744 13.7546 8.00231 14.0455 7.80005 14.3557C7.96894 14.3416 8.14308 14.327 8.31248 14.313C8.54291 14.0033 8.81085 13.7171 9.11166 13.459Z" fill="#737373"/>
<path d="M7.04639 16.0685C7.18716 16.0498 7.32844 16.0357 7.46921 16.0217C7.55416 15.7256 7.65737 15.444 7.78924 15.1719C7.63861 15.1859 7.48327 15.1999 7.33314 15.2187C7.22002 15.4909 7.12147 15.7776 7.04639 16.0685Z" fill="#737373"/>
<path d="M8.0731 4.19878C8.15288 3.97813 8.23784 3.77153 8.31763 3.58887C8.17164 3.59823 8.02152 3.61228 7.87554 3.62165C7.76763 3.87977 7.66391 4.16131 7.57007 4.46627C7.71079 4.45222 7.85677 4.43816 7.99806 4.42411C8.02152 4.34918 8.04968 4.27424 8.0731 4.19878Z" fill="#737373"/>
<path d="M7.76924 5.26025C7.63266 5.27429 7.49659 5.28832 7.35531 5.3024C7.30373 5.57456 7.26151 5.8514 7.24219 6.13295C7.37411 6.11891 7.51069 6.10483 7.64206 6.0908C7.67018 5.80457 7.7124 5.52302 7.76924 5.26025Z" fill="#737373"/>
<path d="M7.75536 7.57297C7.69852 7.3523 7.661 7.12698 7.64224 6.89697C7.51087 6.91101 7.37895 6.92508 7.24707 6.93912C7.27104 7.20658 7.31797 7.47878 7.39305 7.7416C7.52493 7.72752 7.661 7.71349 7.79288 7.69941C7.77882 7.65726 7.76471 7.61512 7.75536 7.57297Z" fill="#737373"/>
<path d="M8.15902 8.4873C8.0136 8.49669 7.86762 8.51072 7.72168 8.52476C7.86762 8.79227 8.05112 9.05039 8.28155 9.29443C8.46035 9.2804 8.63394 9.27101 8.81274 9.26167C8.54949 9.02697 8.33317 8.76885 8.15902 8.4873Z" fill="#737373"/>
</g>
<path d="M7.64979 11.3689C8.19509 10.8995 8.82064 10.5144 9.51662 10.2235C5.03075 7.82962 8.54334 2.2998 8.54334 2.2998C8.54334 2.2998 4.97447 5.58565 6.69061 9.10151C7.09044 9.92323 7.53719 10.4863 8.00274 10.8995C7.46629 10.5003 6.9398 9.94196 6.44613 9.09213C6.27198 8.78716 6.13126 8.47231 6.0275 8.14862C5.28934 7.61365 4.06688 6.51977 2.87257 4.55784C2.86788 4.55784 3.93499 9.1858 7.64979 11.3689Z" fill="#737373"/>
<path d="M10.2069 10.5441C10.1365 10.516 10.0656 10.4879 9.99524 10.4551C9.92485 10.4832 9.85447 10.516 9.78357 10.5441C9.08764 10.8209 8.50482 11.1733 8.02051 11.5771C8.3917 11.7696 8.78683 11.9383 9.21011 12.0746C11.3073 12.76 12.8212 14.5861 13.0751 16.7733H14.4388C14.4294 16.1067 14.1005 12.0793 10.2069 10.5441Z" fill="#737373"/>
<path d="M13.9712 8.14862C13.8679 8.47231 13.7267 8.78717 13.5526 9.09213C13.0589 9.94196 12.5324 10.505 11.9965 10.8995C12.462 10.4863 12.9088 9.92323 13.3081 9.10151C15.0247 5.58565 11.4507 2.2998 11.4507 2.2998C11.4507 2.2998 15.3067 8.3646 9.78613 10.5425C5.89774 12.0777 5.56826 16.1051 5.5542 16.7717H6.9179C7.17179 14.5845 8.69089 12.7584 10.7834 12.073C15.7723 10.4441 17.1266 4.55784 17.1266 4.55784C15.9318 6.51977 14.7093 7.60895 13.9712 8.14862Z" fill="#737373"/>
<path d="M10.9098 12.4484C11.3894 12.2938 11.8502 12.0919 12.2923 11.8525C12.1938 11.7583 12.0853 11.6647 11.9774 11.5757C11.6057 11.7682 11.2106 11.9369 10.7878 12.0732C10.5146 12.1622 10.2514 12.2704 10.0022 12.3969C10.1481 12.4724 10.2889 12.5473 10.4255 12.6316C10.5808 12.5613 10.7404 12.5005 10.9098 12.4484Z" fill="#737373"/>
<path d="M19.8225 1.64648C19.8225 1.64648 19.3804 2.0269 19.3241 2.93293C19.2443 4.21416 18.3414 4.54306 17.3635 4.44418C17.3635 4.44418 18.0688 2.95166 18.7882 2.28971C18.7882 2.28971 17.7769 3.13953 17.2034 4.31772C16.8646 3.62298 16.8646 1.77815 19.8225 1.64648Z" fill="#737373"/>
<path d="M16.8072 1.46094C16.8072 1.46094 16.7838 1.6488 16.9672 1.87882C17.2305 2.20304 17.0845 2.47989 16.826 2.67244C16.826 2.67244 16.6712 2.16036 16.6993 1.84135C16.6993 1.84135 16.6425 2.2686 16.7603 2.67712C16.5299 2.58293 16.1207 2.14163 16.8072 1.46094Z" fill="#737373"/>
<path d="M11.7235 0C11.7235 0 11.7183 0.187866 11.9206 0.403834C12.2125 0.704107 12.09 0.995012 11.8502 1.2063C11.8502 1.2063 11.6479 0.708791 11.6479 0.389783C11.6479 0.389783 11.6291 0.817035 11.7845 1.21566C11.5447 1.14073 11.1027 0.736894 11.7235 0Z" fill="#737373"/>
<path d="M14.25 3.64801C14.25 3.64801 14.0618 3.66674 13.8742 3.89676C13.6109 4.22045 13.3096 4.14083 13.0698 3.92954C13.0698 3.92954 13.54 3.66674 13.8554 3.62459C13.8554 3.62459 13.4274 3.66205 13.051 3.86397C13.0932 3.6199 13.4368 3.12708 14.25 3.64801Z" fill="#737373"/>
<path d="M20 4.43288C20 4.43288 19.8118 4.45161 19.6283 4.68163C19.3697 5.01052 19.0643 4.93037 18.8244 4.71908C18.8244 4.71908 19.29 4.45161 19.6048 4.40946C19.6048 4.40946 19.1769 4.44693 18.8057 4.65352C18.8432 4.40946 19.1862 3.91664 20 4.43288Z" fill="#737373"/>
<path d="M19.3165 7.57651C19.3165 7.57651 19.1705 7.45421 18.8791 7.48232C18.4652 7.52447 18.3103 7.25231 18.2869 6.93327C18.2869 6.93327 18.804 7.07848 19.0532 7.27573C19.0532 7.27573 18.7237 6.99883 18.3197 6.87709C18.522 6.73606 19.1142 6.63769 19.3165 7.57651Z" fill="#737373"/>
<path d="M14.3109 0.501465C14.3109 0.501465 14.339 0.689335 14.1555 0.924034C13.9017 1.25761 14.0518 1.52978 14.3109 1.71297C14.3109 1.71297 14.4564 1.19621 14.4235 0.881884C14.4235 0.881884 14.4892 1.30445 14.3766 1.71765C14.6117 1.61878 15.0068 1.16811 14.3109 0.501465Z" fill="#737373"/>
<path d="M5.68686 0.501465C5.68686 0.501465 5.65869 0.689335 5.84168 0.924034C6.09608 1.25761 5.94545 1.52978 5.68686 1.71297C5.68686 1.71297 5.54087 1.19621 5.57374 0.881884C5.57374 0.881884 5.50805 1.30445 5.62117 1.71765C5.38604 1.61878 4.99092 1.16811 5.68686 0.501465Z" fill="#737373"/>
<path d="M17.9947 8.54778C17.9947 8.54778 17.8018 8.28966 17.3081 8.21889C16.6074 8.12056 16.462 7.61366 16.5559 7.07817C16.5559 7.07817 17.3508 7.52886 17.6845 7.95142C17.6845 7.95142 17.2565 7.36023 16.6309 6.99388C17.0261 6.83878 18.0462 6.91424 17.9947 8.54778Z" fill="#737373"/>
<path d="M19.2216 5.55813C19.2216 5.55813 18.8828 5.57216 18.5257 5.96662C18.0221 6.52501 17.4909 6.34653 17.077 5.94789C17.077 5.94789 17.9423 5.52063 18.5111 5.47848C18.5111 5.47848 17.7401 5.5019 17.0488 5.83028C17.1525 5.38899 17.8204 4.54436 19.2216 5.55813Z" fill="#737373"/>
<path d="M15.4554 1.93066C15.4554 1.93066 15.5217 2.26424 15.9637 2.55515C16.5935 2.96367 16.4996 3.51738 16.1655 3.98679C16.1655 3.98679 15.6108 3.19837 15.4794 2.63998C15.4794 2.63998 15.6202 3.3956 16.0529 4.02894C15.6061 4.00083 14.6657 3.47055 15.4554 1.93066Z" fill="#737373"/>
<path d="M14.5453 4.28906C14.5453 4.28906 14.6115 4.62264 15.0535 4.91356C15.6833 5.32205 15.5895 5.8758 15.2553 6.3452C15.2553 6.3452 14.7006 5.55676 14.5693 4.99836C14.5693 4.99836 14.71 5.75401 15.1427 6.38735C14.6959 6.35924 13.7555 5.82896 14.5453 4.28906Z" fill="#737373"/>
<path d="M13.1107 1.05713C13.1107 1.05713 13.0075 1.38082 13.2614 1.84555C13.619 2.5075 13.2708 2.9488 12.7583 3.19756C12.7583 3.19756 12.6452 2.24001 12.8006 1.69046C12.8006 1.69046 12.5655 2.42319 12.6405 3.18351C12.2553 2.9488 11.6813 2.03341 13.1107 1.05713Z" fill="#737373"/>
<path d="M10.4917 1.32861C10.4917 1.32861 10.6517 1.45507 10.6846 1.7746C10.7268 2.22059 11.0516 2.32831 11.3899 2.28148C11.3899 2.28148 11.1266 1.76523 10.8634 1.54458C10.8634 1.54458 11.2252 1.83081 11.4462 2.23464C11.5546 1.9812 11.5358 1.3333 10.4917 1.32861Z" fill="#737373"/>
<path d="M0.17627 1.64648C0.17627 1.64648 0.618336 2.0269 0.674635 2.93293C0.754917 4.21416 1.65782 4.54306 2.63579 4.44418C2.63579 4.44418 1.93046 2.95166 1.21106 2.28971C1.21106 2.28971 2.22187 3.13953 2.7953 4.31772C3.13415 3.62298 3.13415 1.77815 0.17627 1.64648Z" fill="#737373"/>
<path d="M3.19131 1.46094C3.19131 1.46094 3.21477 1.6488 3.03127 1.87882C2.76801 2.20304 2.91398 2.47989 3.17254 2.67244C3.17254 2.67244 3.32789 2.16036 3.29974 1.84135C3.29974 1.84135 3.35604 2.2686 3.23823 2.67712C3.46864 2.58293 3.87317 2.14163 3.19131 1.46094Z" fill="#737373"/>
<path d="M8.27102 0C8.27102 0 8.27567 0.187866 8.07341 0.403834C7.782 0.704107 7.90401 0.995012 8.14379 1.2063C8.14379 1.2063 8.34606 0.708791 8.34606 0.389783C8.34606 0.389783 8.36482 0.817035 8.20999 1.21566C8.44982 1.14073 8.89605 0.736894 8.27102 0Z" fill="#737373"/>
<path d="M5.74976 3.64801C5.74976 3.64801 5.93796 3.66674 6.12612 3.89676C6.38941 4.22045 6.69018 4.14083 6.93001 3.92954C6.93001 3.92954 6.45975 3.66674 6.14488 3.62459C6.14488 3.62459 6.57291 3.66205 6.94877 3.86397C6.90654 3.6199 6.5583 3.12708 5.74976 3.64801Z" fill="#737373"/>
<path d="M0 4.43288C0 4.43288 0.18767 4.45161 0.371169 4.68163C0.629735 5.01052 0.935741 4.93037 1.17554 4.71908C1.17554 4.71908 0.710016 4.45161 0.394628 4.40946C0.394628 4.40946 0.822618 4.44693 1.19431 4.65352C1.15625 4.40946 0.813238 3.91664 0 4.43288Z" fill="#737373"/>
<path d="M0.680176 7.57651C0.680176 7.57651 0.82614 7.45421 1.11755 7.48232C1.53146 7.52447 1.68681 7.25231 1.71028 6.93327C1.71028 6.93327 1.19314 7.07848 0.943956 7.27573C0.943956 7.27573 1.2729 6.99883 1.67743 6.87709C1.47047 6.73606 0.877751 6.63769 0.680176 7.57651Z" fill="#737373"/>
<path d="M2.00336 8.54778C2.00336 8.54778 2.19624 8.28966 2.68992 8.21889C3.39056 8.12056 3.53652 7.61366 3.44216 7.07817C3.44216 7.07817 2.64769 7.52886 2.31354 7.95142C2.31354 7.95142 2.74153 7.36023 3.36709 6.99388C2.96726 6.83878 1.95175 6.91424 2.00336 8.54778Z" fill="#737373"/>
<path d="M0.773193 5.55813C0.773193 5.55813 1.11152 5.57216 1.46913 5.96662C1.97219 6.52501 2.5034 6.34653 2.91732 5.94789C2.91732 5.94789 2.05195 5.52063 1.48321 5.47848C1.48321 5.47848 2.25422 5.5019 2.94547 5.83028C2.84694 5.38899 2.17915 4.54436 0.773193 5.55813Z" fill="#737373"/>
<path d="M4.54396 1.93066C4.54396 1.93066 4.47827 2.26424 4.03621 2.55515C3.40595 2.96367 3.49978 3.51738 3.83394 3.98679C3.83394 3.98679 4.38861 3.19837 4.5205 2.63998C4.5205 2.63998 4.37923 3.3956 3.94654 4.02894C4.3933 4.00083 5.33374 3.47054 4.54396 1.93066Z" fill="#737373"/>
<path d="M5.17044 4.0542C5.17044 4.0542 5.10476 4.38778 4.66267 4.67867C4.03241 5.08721 4.12625 5.64091 4.46041 6.11031C4.46041 6.11031 5.01506 5.32191 5.14698 4.76352C5.14698 4.76352 5.0057 5.51912 4.57301 6.15246C5.01976 6.12435 5.96022 5.59407 5.17044 4.0542Z" fill="#737373"/>
<path d="M6.88827 1.05713C6.88827 1.05713 6.99147 1.38082 6.73763 1.84555C6.38054 2.5075 6.72823 2.9488 7.24066 3.19756C7.24066 3.19756 7.35378 2.24001 7.19844 1.69046C7.19844 1.69046 7.43356 2.42319 7.35848 3.18351C7.74424 2.9488 8.3177 2.03341 6.88827 1.05713Z" fill="#737373"/>
<path d="M10.5464 1.03671C10.5464 1.03671 10.2405 1.18191 10.071 1.6841C9.83124 2.39289 9.27183 2.44493 8.73594 2.24301C8.73594 2.24301 9.35632 1.50612 9.86457 1.24331C9.86457 1.24331 9.16863 1.57169 8.66505 2.14882C8.5806 1.70335 8.85795 0.660983 10.5464 1.03671Z" fill="#737373"/>
</svg>
