<svg width="20" height="17" viewBox="0 0 20 17" fill="none" xmlns="http://www.w3.org/2000/svg">
<path d="M6.5 8.66438C6.55158 8.8101 6.61777 8.95582 6.68816 9.10103C6.74448 9.21864 6.80128 9.33104 6.86231 9.43461C8.2964 9.24206 9.74459 9.18532 11.1881 9.25609C11.4513 9.02138 11.6677 8.76326 11.8418 8.48121C10.0595 8.35008 8.27293 8.41095 6.5 8.66438Z" fill="#737373"/>
<path d="M6.22656 7.08035C6.22656 7.34833 6.24532 7.62053 6.29695 7.89269C8.25338 7.58303 10.2375 7.52165 12.2033 7.70482C12.2831 7.442 12.33 7.16985 12.3534 6.90234C10.3126 6.70513 8.25338 6.766 6.22656 7.08035Z" fill="#737373"/>
<path d="M12.222 5.26124C10.3224 5.08746 8.41284 5.13894 6.5226 5.40645C6.42875 5.67917 6.35371 5.96536 6.29688 6.26562C8.30028 5.95132 10.3318 5.88989 12.344 6.09184C12.3253 5.8056 12.283 5.52406 12.222 5.26124Z" fill="#737373"/>
<path d="M11.9467 4.28479C11.8576 4.03084 11.7638 3.79613 11.6694 3.58537C10.2494 3.48649 8.81998 3.51459 7.40465 3.66499C7.22585 3.9278 7.04756 4.22339 6.88281 4.5476C8.57549 4.32226 10.2916 4.28479 11.9895 4.4253C11.9801 4.37846 11.9614 4.33163 11.9467 4.28479Z" fill="#737373"/>
<path d="M14.2615 15.4435C11.4402 14.9459 8.55323 14.9459 5.73192 15.4435C5.65683 15.7723 5.6141 16.0679 5.58594 16.2979C8.5016 15.7442 11.4924 15.7442 14.4075 16.2979C14.384 16.0679 14.3371 15.777 14.2615 15.4435Z" fill="#737373"/>
<path d="M13.6522 13.7162C11.2256 13.3498 8.76189 13.3498 6.33576 13.7162C6.18507 14.0165 6.0673 14.3167 5.96875 14.5988C8.63001 14.1387 11.3575 14.1387 14.0187 14.5988C13.9249 14.3167 13.8024 14.0165 13.6522 13.7162Z" fill="#737373"/>
<g opacity="0.5">
<path d="M9.10849 13.4609C8.90674 13.4703 8.69977 13.4797 8.49751 13.4891C8.23427 13.7565 7.99914 14.0474 7.79688 14.3576C7.96576 14.3435 8.13991 14.329 8.30931 14.3149C8.53973 14.0053 8.80768 13.7191 9.10849 13.4609Z" fill="#737373"/>
<path d="M7.04688 16.0685C7.18764 16.0498 7.32893 16.0357 7.4697 16.0217C7.55465 15.7256 7.65785 15.444 7.78973 15.1719C7.63909 15.1859 7.48375 15.1999 7.33363 15.2187C7.22051 15.4909 7.12196 15.7776 7.04688 16.0685Z" fill="#737373"/>
<path d="M8.07334 4.19976C8.15313 3.97911 8.23808 3.7725 8.31787 3.58984C8.17189 3.59921 8.02176 3.61326 7.87578 3.62263C7.76787 3.88075 7.66416 4.16229 7.57031 4.46724C7.71104 4.45319 7.85702 4.43914 7.9983 4.42509C8.02176 4.35015 8.04993 4.27521 8.07334 4.19976Z" fill="#737373"/>
<path d="M7.76924 5.26172C7.63266 5.27575 7.49659 5.28978 7.35531 5.30386C7.30373 5.57602 7.26151 5.85287 7.24219 6.13441C7.37411 6.12038 7.51069 6.1063 7.64206 6.09227C7.67018 5.80603 7.7124 5.52449 7.76924 5.26172Z" fill="#737373"/>
<path d="M7.75829 7.57444C7.70145 7.35377 7.66393 7.12845 7.64517 6.89844C7.5138 6.91247 7.38188 6.92655 7.25 6.94058C7.27397 7.20805 7.3209 7.48025 7.39598 7.74306C7.52786 7.72899 7.66393 7.71495 7.79581 7.70087C7.78175 7.65873 7.76764 7.61658 7.75829 7.57444Z" fill="#737373"/>
<path d="M8.15609 8.48828C8.01067 8.49767 7.86469 8.5117 7.71875 8.52573C7.86469 8.79324 8.04819 9.05137 8.27862 9.29541C8.45742 9.28138 8.63101 9.27199 8.80981 9.26265C8.54656 9.02795 8.33024 8.76982 8.15609 8.48828Z" fill="#737373"/>
</g>
<path d="M7.65224 11.3699C8.19753 10.9005 8.82308 10.5154 9.51906 10.2245C5.03319 7.8306 8.54578 2.30078 8.54578 2.30078C8.54578 2.30078 4.97691 5.58663 6.69306 9.10249C7.09288 9.92421 7.53963 10.4872 8.00518 10.9005C7.46873 10.5013 6.94224 9.94293 6.44857 9.0931C6.27442 8.78814 6.1337 8.47328 6.02994 8.14959C5.29178 7.61462 4.06932 6.52075 2.87502 4.55882C2.87032 4.55882 3.93743 9.18678 7.65224 11.3699Z" fill="#737373"/>
<path d="M10.2098 10.5421C10.1394 10.514 10.0685 10.4859 9.99817 10.4531C9.92778 10.4812 9.8574 10.514 9.7865 10.5421C9.09057 10.819 8.50775 11.1713 8.02344 11.5751C8.39463 11.7677 8.78976 11.9363 9.21304 12.0726C11.3102 12.758 12.8241 14.5841 13.078 16.7714H14.4418C14.4324 16.1047 14.1034 12.0773 10.2098 10.5421Z" fill="#737373"/>
<path d="M13.9717 8.14959C13.8684 8.47328 13.7271 8.78814 13.553 9.0931C13.0594 9.94293 12.5328 10.506 11.9969 10.9005C12.4625 10.4872 12.9092 9.92421 13.3086 9.10249C15.0252 5.58663 11.4511 2.30078 11.4511 2.30078C11.4511 2.30078 15.3072 8.36557 9.78662 10.5435C5.89823 12.0787 5.56875 16.1061 5.55469 16.7727H6.91839C7.17228 14.5854 8.69137 12.7593 10.7839 12.074C15.7728 10.4451 17.1271 4.55882 17.1271 4.55882C15.9323 6.52075 14.7098 7.60993 13.9717 8.14959Z" fill="#737373"/>
<path d="M10.9076 12.447C11.3872 12.2924 11.848 12.0905 12.2901 11.8511C12.1916 11.7569 12.0831 11.6632 11.9752 11.5742C11.6035 11.7668 11.2084 11.9354 10.7856 12.0717C10.5124 12.1607 10.2492 12.2689 10 12.3954C10.1459 12.4709 10.2867 12.5458 10.4233 12.6301C10.5786 12.5599 10.7382 12.499 10.9076 12.447Z" fill="#737373"/>
<path d="M19.8234 1.64844C19.8234 1.64844 19.3814 2.02886 19.3251 2.93488C19.2453 4.21611 18.3424 4.54501 17.3644 4.44613C17.3644 4.44613 18.0698 2.95362 18.7892 2.29166C18.7892 2.29166 17.7778 3.14148 17.2044 4.31967C16.8655 3.62494 16.8655 1.7801 19.8234 1.64844Z" fill="#737373"/>
<path d="M16.8094 1.46094C16.8094 1.46094 16.786 1.6488 16.9694 1.87882C17.2327 2.20304 17.0867 2.47989 16.8282 2.67244C16.8282 2.67244 16.6734 2.16036 16.7015 1.84135C16.7015 1.84135 16.6447 2.2686 16.7625 2.67712C16.5321 2.58293 16.1228 2.14163 16.8094 1.46094Z" fill="#737373"/>
<path d="M11.723 0C11.723 0 11.7178 0.187866 11.9201 0.403834C12.212 0.704107 12.0895 0.995012 11.8497 1.2063C11.8497 1.2063 11.6474 0.708791 11.6474 0.389783C11.6474 0.389783 11.6287 0.817035 11.784 1.21566C11.5442 1.14073 11.1022 0.736894 11.723 0Z" fill="#737373"/>
<path d="M14.2537 3.64801C14.2537 3.64801 14.0655 3.66674 13.8778 3.89676C13.6146 4.22045 13.3133 4.14083 13.0734 3.92954C13.0734 3.92954 13.5437 3.66674 13.8591 3.62459C13.8591 3.62459 13.4311 3.66205 13.0547 3.86397C13.0969 3.6199 13.4405 3.12708 14.2537 3.64801Z" fill="#737373"/>
<path d="M19.999 4.43386C19.999 4.43386 19.8108 4.45259 19.6273 4.68261C19.3687 5.0115 19.0633 4.93134 18.8234 4.72006C18.8234 4.72006 19.289 4.45259 19.6039 4.41044C19.6039 4.41044 19.1759 4.44791 18.8047 4.65449C18.8422 4.41044 19.1852 3.91761 19.999 4.43386Z" fill="#737373"/>
<path d="M19.3187 7.57846C19.3187 7.57846 19.1727 7.45616 18.8813 7.48427C18.4674 7.52642 18.3125 7.25426 18.2891 6.93522C18.2891 6.93522 18.8062 7.08043 19.0554 7.27768C19.0554 7.27768 18.7259 7.00079 18.3219 6.87904C18.5242 6.73802 19.1164 6.63965 19.3187 7.57846Z" fill="#737373"/>
<path d="M14.3097 0.5C14.3097 0.5 14.3378 0.68787 14.1543 0.922569C13.9004 1.25615 14.0506 1.52832 14.3097 1.71151C14.3097 1.71151 14.4551 1.19474 14.4223 0.880419C14.4223 0.880419 14.488 1.30299 14.3753 1.71619C14.6105 1.61731 15.0056 1.16664 14.3097 0.5Z" fill="#737373"/>
<path d="M5.68905 0.5C5.68905 0.5 5.66089 0.68787 5.84388 0.922569C6.09828 1.25615 5.94764 1.52832 5.68905 1.71151C5.68905 1.71151 5.54307 1.19474 5.57593 0.880419C5.57593 0.880419 5.51025 1.30299 5.62337 1.71619C5.38824 1.61731 4.99312 1.16664 5.68905 0.5Z" fill="#737373"/>
<path d="M17.9956 8.54632C17.9956 8.54632 17.8027 8.28819 17.3091 8.21742C16.6084 8.1191 16.463 7.61219 16.5568 7.07671C16.5568 7.07671 17.3518 7.52739 17.6855 7.94996C17.6855 7.94996 17.2575 7.35876 16.6319 6.99242C17.0271 6.83731 18.0472 6.91277 17.9956 8.54632Z" fill="#737373"/>
<path d="M19.2197 5.55666C19.2197 5.55666 18.8808 5.5707 18.5237 5.96515C18.0202 6.52354 17.4889 6.34506 17.075 5.94643C17.075 5.94643 17.9404 5.51916 18.5091 5.47702C18.5091 5.47702 17.7381 5.50044 17.0469 5.82882C17.1506 5.38752 17.8184 4.5429 19.2197 5.55666Z" fill="#737373"/>
<path d="M15.4537 1.92969C15.4537 1.92969 15.52 2.26327 15.962 2.55417C16.5917 2.96269 16.4979 3.5164 16.1638 3.98581C16.1638 3.98581 15.6091 3.1974 15.4777 2.639C15.4777 2.639 15.6185 3.39463 16.0511 4.02796C15.6044 3.99986 14.664 3.46957 15.4537 1.92969Z" fill="#737373"/>
<path d="M14.5475 4.28906C14.5475 4.28906 14.6137 4.62264 15.0557 4.91356C15.6855 5.32205 15.5917 5.8758 15.2575 6.3452C15.2575 6.3452 14.7028 5.55676 14.5715 4.99836C14.5715 4.99836 14.7122 5.75401 15.1449 6.38735C14.6981 6.35924 13.7577 5.82896 14.5475 4.28906Z" fill="#737373"/>
<path d="M13.1115 1.05859C13.1115 1.05859 13.0083 1.38229 13.2621 1.84701C13.6197 2.50896 13.2715 2.95027 12.7591 3.19902C12.7591 3.19902 12.6459 2.24148 12.8013 1.69193C12.8013 1.69193 12.5662 2.42466 12.6412 3.18497C12.256 2.95027 11.6821 2.03488 13.1115 1.05859Z" fill="#737373"/>
<path d="M10.4922 1.32812C10.4922 1.32812 10.6522 1.45458 10.685 1.77411C10.7273 2.2201 11.0521 2.32783 11.3904 2.28099C11.3904 2.28099 11.1271 1.76475 10.8638 1.54409C10.8638 1.54409 11.2256 1.83032 11.4467 2.23415C11.5551 1.98071 11.5363 1.33281 10.4922 1.32812Z" fill="#737373"/>
<path d="M0.179688 1.64844C0.179688 1.64844 0.621754 2.02886 0.678053 2.93488C0.758335 4.21611 1.66123 4.54501 2.63921 4.44613C2.63921 4.44613 1.93388 2.95362 1.21448 2.29166C1.21448 2.29166 2.22529 3.14148 2.79872 4.31967C3.13757 3.62494 3.13757 1.7801 0.179688 1.64844Z" fill="#737373"/>
<path d="M3.18984 1.46094C3.18984 1.46094 3.2133 1.6488 3.0298 1.87882C2.76654 2.20304 2.91251 2.47989 3.17108 2.67244C3.17108 2.67244 3.32643 2.16036 3.29827 1.84135C3.29827 1.84135 3.35458 2.2686 3.23676 2.67712C3.46718 2.58293 3.87171 2.14163 3.18984 1.46094Z" fill="#737373"/>
<path d="M8.27419 0C8.27419 0 8.27885 0.187866 8.07658 0.403834C7.78517 0.704107 7.90718 0.995012 8.14697 1.2063C8.14697 1.2063 8.34923 0.708791 8.34923 0.389783C8.34923 0.389783 8.36799 0.817035 8.21316 1.21566C8.45299 1.14073 8.89923 0.736894 8.27419 0Z" fill="#737373"/>
<path d="M5.75 3.64801C5.75 3.64801 5.93821 3.66674 6.12636 3.89676C6.38965 4.22045 6.69042 4.14083 6.93025 3.92954C6.93025 3.92954 6.45999 3.66674 6.14512 3.62459C6.14512 3.62459 6.57316 3.66205 6.94901 3.86397C6.90679 3.6199 6.55854 3.12708 5.75 3.64801Z" fill="#737373"/>
<path d="M0 4.43386C0 4.43386 0.18767 4.45259 0.371169 4.68261C0.629735 5.0115 0.935741 4.93134 1.17554 4.72006C1.17554 4.72006 0.710016 4.45259 0.394628 4.41044C0.394628 4.41044 0.822618 4.44791 1.19431 4.65449C1.15625 4.41044 0.813238 3.91761 0 4.43386Z" fill="#737373"/>
<path d="M0.679688 7.57846C0.679688 7.57846 0.825652 7.45616 1.11706 7.48427C1.53098 7.52642 1.68633 7.25426 1.70979 6.93522C1.70979 6.93522 1.19265 7.08043 0.943468 7.27768C0.943468 7.27768 1.27241 7.00079 1.67695 6.87904C1.46999 6.73802 0.877263 6.63965 0.679688 7.57846Z" fill="#737373"/>
<path d="M2.0019 8.54632C2.0019 8.54632 2.19478 8.28819 2.68846 8.21742C3.38909 8.1191 3.53506 7.61219 3.4407 7.07671C3.4407 7.07671 2.64623 7.52739 2.31207 7.94996C2.31207 7.94996 2.74007 7.35876 3.36563 6.99242C2.96579 6.83731 1.95029 6.91277 2.0019 8.54632Z" fill="#737373"/>
<path d="M0.773438 5.55666C0.773438 5.55666 1.11176 5.5707 1.46938 5.96515C1.97244 6.52354 2.50365 6.34506 2.91756 5.94643C2.91756 5.94643 2.0522 5.51916 1.48345 5.47702C1.48345 5.47702 2.25446 5.50044 2.94571 5.82882C2.84719 5.38752 2.17939 4.5429 0.773438 5.55666Z" fill="#737373"/>
<path d="M4.542 1.92969C4.542 1.92969 4.47632 2.26327 4.03425 2.55417C3.404 2.96269 3.49783 3.5164 3.83199 3.98581C3.83199 3.98581 4.38666 3.1974 4.51855 2.639C4.51855 2.639 4.37727 3.39463 3.94459 4.02796C4.39135 3.99986 5.33179 3.46956 4.542 1.92969Z" fill="#737373"/>
<path d="M5.16702 4.05469C5.16702 4.05469 5.10134 4.38826 4.65925 4.67916C4.029 5.0877 4.12283 5.64139 4.45699 6.1108C4.45699 6.1108 5.01164 5.3224 5.14356 4.76401C5.14356 4.76401 5.00228 5.5196 4.56959 6.15295C5.01634 6.12484 5.95681 5.59456 5.16702 4.05469Z" fill="#737373"/>
<path d="M6.89047 1.05859C6.89047 1.05859 6.99367 1.38229 6.73983 1.84701C6.38274 2.50896 6.73042 2.95027 7.24286 3.19902C7.24286 3.19902 7.35597 2.24148 7.20063 1.69193C7.20063 1.69193 7.43576 2.42466 7.36068 3.18497C7.74644 2.95027 8.3199 2.03488 6.89047 1.05859Z" fill="#737373"/>
<path d="M10.5433 1.0372C10.5433 1.0372 10.2373 1.1824 10.0678 1.68459C9.82806 2.39338 9.26866 2.44542 8.73277 2.2435C8.73277 2.2435 9.35315 1.50661 9.86139 1.2438C9.86139 1.2438 9.16546 1.57218 8.66187 2.14931C8.57743 1.70384 8.85478 0.661471 10.5433 1.0372Z" fill="#737373"/>
</svg>
