<svg width="23" height="24" viewBox="0 0 23 24" fill="none" xmlns="http://www.w3.org/2000/svg">
<path fill-rule="evenodd" clip-rule="evenodd" d="M22.9997 12.2749C22.9997 11.4239 22.925 10.6058 22.7863 9.82031H11.7344V14.4621H18.0498C17.7777 15.9621 16.951 17.233 15.7082 18.084V21.0949H19.5006C21.7195 19.0058 22.9997 15.9294 22.9997 12.2749Z" fill="#4285F4"/>
<path fill-rule="evenodd" clip-rule="evenodd" d="M11.7366 24.0013C14.9049 24.0013 17.5612 22.9267 19.5028 21.094L15.7103 18.0831C14.6596 18.8031 13.3154 19.2285 11.7366 19.2285C8.6802 19.2285 6.09323 17.1176 5.17045 14.2812H1.25V17.3903C3.18089 21.3122 7.14935 24.0013 11.7366 24.0013Z" fill="#34A853"/>
<path fill-rule="evenodd" clip-rule="evenodd" d="M5.1686 14.2785C4.93391 13.5585 4.80056 12.7894 4.80056 11.9985C4.80056 11.2076 4.93391 10.4385 5.1686 9.71847V6.60938H1.24814C0.453386 8.22938 0 10.0621 0 11.9985C0 13.9348 0.453386 15.7676 1.24814 17.3876L5.1686 14.2785Z" fill="#FBBC05"/>
<path fill-rule="evenodd" clip-rule="evenodd" d="M11.7366 4.77273C13.4594 4.77273 15.0063 5.37818 16.2224 6.56728L19.5881 3.12546C17.5559 1.18909 14.8996 0 11.7366 0C7.14935 0 3.18089 2.68909 1.25 6.61091L5.17045 9.72C6.09323 6.88364 8.6802 4.77273 11.7366 4.77273Z" fill="#EA4335"/>
</svg>
