<svg width="20" height="20" viewBox="0 0 20 20" fill="none" xmlns="http://www.w3.org/2000/svg">
<path d="M9.90119 0.679688C4.83439 0.679688 0.720215 4.79508 0.720215 9.86187C0.720215 14.9286 4.83443 19.0439 9.90107 19.0439C14.9677 19.0439 19.0832 14.9286 19.0832 9.86187C19.0832 4.79508 14.9678 0.679688 9.90119 0.679688ZM14.3701 2.68531C16.7625 4.17711 18.3533 6.83141 18.3533 9.86187C18.3533 10.5315 18.2754 11.1831 18.1287 11.8076L16.7908 11.1021L17.6502 13.2456C17.2809 14.0912 16.7767 14.8641 16.1658 15.5381L14.4799 14.3296L11.9555 16.1937L9.54709 16.4659L9.00389 14.8338L7.0617 15.8824L4.40182 15.1427L4.75951 16.5721C3.64975 15.7208 2.75834 14.6008 2.18139 13.3079L3.17385 11.8931L4.43361 12.562L6.74689 12.1763L6.85795 10.5783L5.3992 10.5112L5.5908 9.81418L6.79315 8.82539L5.81295 8.21504L8.43873 6.7075L6.66744 5.54902L4.0649 7.11883L2.13377 6.52195C2.6733 5.26648 3.50916 4.16961 4.55197 3.31633L4.40549 5.04973L6.09986 3.71676L8.91236 4.58473L8.03346 3.51414L9.10158 2.95141L10.149 4.06344L12.9224 4.44801L12.7857 3.10152L14.4055 3.59594L14.3702 2.68531H14.3701ZM14.4153 7.37398L10.8594 7.79156L11.9885 9.47977L12.1118 11.998L13.252 12.5388L13.6988 11.4304L16.1463 13.3311L15.4602 11.4841L15.7105 9.5957L14.0015 8.7082L14.4153 7.37402L14.4153 7.37398ZM8.63283 7.51687L7.39869 8.34453L8.8233 8.92188L9.4751 8.34453L8.63283 7.51687ZM9.49955 13.1687L10.2295 15.2232L11.0022 13.5605L9.49955 13.1687Z" fill="white"/>
</svg>
