<svg width="12" height="12" viewBox="0 0 12 12" fill="none" xmlns="http://www.w3.org/2000/svg">
<path d="M6 10.875C7.875 8.25 9.375 6 9.375 4.5C9.375 3.60489 9.01942 2.74645 8.38649 2.11351C7.75355 1.48058 6.89511 1.125 6 1.125C5.10489 1.125 4.24645 1.48058 3.61351 2.11351C2.98058 2.74645 2.625 3.60489 2.625 4.5C2.625 6 4.125 8.25 6 10.875Z" stroke="white"/>
<path d="M7.5 4.5C7.5 4.89782 7.34196 5.27936 7.06066 5.56066C6.77936 5.84196 6.39782 6 6 6C5.60218 6 5.22064 5.84196 4.93934 5.56066C4.65804 5.27936 4.5 4.89782 4.5 4.5C4.5 4.10218 4.65804 3.72064 4.93934 3.43934C5.22064 3.15804 5.60218 3 6 3C6.39782 3 6.77936 3.15804 7.06066 3.43934C7.34196 3.72064 7.5 4.10218 7.5 4.5Z" stroke="white"/>
</svg>
