<svg width="14" height="14" viewBox="0 0 14 14" fill="none" xmlns="http://www.w3.org/2000/svg">
<path d="M6.9974 9.91797C7.16267 9.91797 7.30131 9.86197 7.41331 9.74997C7.52531 9.63797 7.58112 9.49952 7.58073 9.33463V7.0013C7.58073 6.83602 7.52473 6.69758 7.41273 6.58597C7.30073 6.47436 7.16228 6.41836 6.9974 6.41797C6.83251 6.41758 6.69406 6.47358 6.58206 6.58597C6.47006 6.69836 6.41406 6.8368 6.41406 7.0013V9.33463C6.41406 9.49991 6.47006 9.63855 6.58206 9.75055C6.69406 9.86255 6.83251 9.91836 6.9974 9.91797ZM6.9974 5.2513C7.16267 5.2513 7.30131 5.1953 7.41331 5.0833C7.52531 4.9713 7.58112 4.83286 7.58073 4.66797C7.58034 4.50308 7.52434 4.36464 7.41273 4.25264C7.30112 4.14064 7.16267 4.08464 6.9974 4.08464C6.83212 4.08464 6.69367 4.14064 6.58206 4.25264C6.47045 4.36464 6.41445 4.50308 6.41406 4.66797C6.41367 4.83286 6.46967 4.9715 6.58206 5.08389C6.69445 5.19627 6.8329 5.25208 6.9974 5.2513ZM6.9974 12.8346C6.19045 12.8346 5.43212 12.6814 4.7224 12.375C4.01267 12.0685 3.39531 11.653 2.87031 11.1284C2.34531 10.6038 1.92979 9.98641 1.62373 9.2763C1.31767 8.56619 1.16445 7.80786 1.16406 7.0013C1.16367 6.19475 1.3169 5.43641 1.62373 4.7263C1.93056 4.01619 2.34609 3.39883 2.87031 2.87422C3.39454 2.34961 4.0119 1.93408 4.7224 1.62764C5.4329 1.32119 6.19123 1.16797 6.9974 1.16797C7.80356 1.16797 8.5619 1.32119 9.2724 1.62764C9.9829 1.93408 10.6003 2.34961 11.1245 2.87422C11.6487 3.39883 12.0644 4.01619 12.3716 4.7263C12.6789 5.43641 12.8319 6.19475 12.8307 7.0013C12.8296 7.80786 12.6763 8.56619 12.3711 9.2763C12.0658 9.98641 11.6503 10.6038 11.1245 11.1284C10.5987 11.653 9.98134 12.0687 9.2724 12.3756C8.56345 12.6824 7.80512 12.8354 6.9974 12.8346ZM6.9974 11.668C8.30017 11.668 9.40365 11.2159 10.3078 10.3117C11.212 9.40755 11.6641 8.30408 11.6641 7.0013C11.6641 5.69852 11.212 4.59505 10.3078 3.69089C9.40365 2.78672 8.30017 2.33464 6.9974 2.33464C5.69462 2.33464 4.59115 2.78672 3.68698 3.69089C2.78281 4.59505 2.33073 5.69852 2.33073 7.0013C2.33073 8.30408 2.78281 9.40755 3.68698 10.3117C4.59115 11.2159 5.69462 11.668 6.9974 11.668Z" fill="#004000"/>
</svg>
