<svg width="32" height="32" viewBox="0 0 32 32" fill="none" xmlns="http://www.w3.org/2000/svg">
<path d="M30.6283 12.4C19.6116 10.8867 10.1116 19.0667 10.7499 29.9167M6.58325 9.08333C6.58325 9.96739 6.93444 10.8152 7.55956 11.4404C8.18468 12.0655 9.03253 12.4167 9.91659 12.4167C10.8006 12.4167 11.6485 12.0655 12.2736 11.4404C12.8987 10.8152 13.2499 9.96739 13.2499 9.08333C13.2499 8.19928 12.8987 7.35143 12.2736 6.72631C11.6485 6.10119 10.8006 5.75 9.91659 5.75C9.03253 5.75 8.18468 6.10119 7.55956 6.72631C6.93444 7.35143 6.58325 8.19928 6.58325 9.08333Z" stroke="#DB6F23" stroke-width="1.5" stroke-linecap="round" stroke-linejoin="round"/>
<path d="M0.75 17.5265C5.38333 16.8848 9.54167 19.1231 11.79 22.6931" stroke="#DB6F23" stroke-width="1.5" stroke-linecap="round" stroke-linejoin="round"/>
<path d="M0.75 11.4167C0.75 7.68333 0.75 5.81667 1.47667 4.39C2.11581 3.13564 3.13564 2.11581 4.39 1.47667C5.81667 0.75 7.68333 0.75 11.4167 0.75H20.0833C23.8167 0.75 25.6833 0.75 27.11 1.47667C28.3644 2.11581 29.3842 3.13564 30.0233 4.39C30.75 5.81667 30.75 7.68333 30.75 11.4167V20.0833C30.75 23.8167 30.75 25.6833 30.0233 27.11C29.3842 28.3644 28.3644 29.3842 27.11 30.0233C25.6833 30.75 23.8167 30.75 20.0833 30.75H11.4167C7.68333 30.75 5.81667 30.75 4.39 30.0233C3.13564 29.3842 2.11581 28.3644 1.47667 27.11C0.75 25.6833 0.75 23.8167 0.75 20.0833V11.4167Z" stroke="#DB6F23" stroke-width="1.5" stroke-linecap="round" stroke-linejoin="round"/>
</svg>
