<svg width="24" height="24" viewBox="0 0 24 24" fill="none" xmlns="http://www.w3.org/2000/svg">
<path d="M3 5.25V17.25C3 17.6478 3.15804 18.0294 3.43934 18.3107C3.72064 18.592 4.10218 18.75 4.5 18.75H19.5C19.8978 18.75 20.2794 18.592 20.5607 18.3107C20.842 18.0294 21 17.6478 21 17.25V5.25H3ZM3 3.75H21C21.3978 3.75 21.7794 3.90804 22.0607 4.18934C22.342 4.47064 22.5 4.85218 22.5 5.25V17.25C22.5 18.0456 22.1839 18.8087 21.6213 19.3713C21.0587 19.9339 20.2956 20.25 19.5 20.25H4.5C3.70435 20.25 2.94129 19.9339 2.37868 19.3713C1.81607 18.8087 1.5 18.0456 1.5 17.25V5.25C1.5 4.85218 1.65804 4.47064 1.93934 4.18934C2.22064 3.90804 2.60218 3.75 3 3.75Z" fill="white"/>
<path d="M21.1875 5.25L15.3867 11.8805C14.9644 12.3632 14.4437 12.7501 13.8596 13.0151C13.2755 13.2802 12.6414 13.4173 12 13.4173C11.3586 13.4173 10.7245 13.2802 10.1404 13.0151C9.55634 12.7501 9.03565 12.3632 8.61328 11.8805L2.8125 5.25H21.1875ZM4.80469 5.25L9.74063 10.8914C10.0222 11.2134 10.3694 11.4714 10.7589 11.6482C11.1483 11.825 11.5711 11.9164 11.9988 11.9164C12.4266 11.9164 12.8493 11.825 13.2388 11.6482C13.6283 11.4714 13.9755 11.2134 14.257 10.8914L19.1953 5.25H4.80469Z" fill="white"/>
</svg>
