<svg width="24" height="24" viewBox="0 0 24 24" fill="none" xmlns="http://www.w3.org/2000/svg">
<path d="M12 4C9.236 4 7 6.236 7 9C7 9.19891 7.07902 9.38968 7.21967 9.53033C7.36032 9.67098 7.55109 9.75 7.75 9.75C7.94891 9.75 8.13968 9.67098 8.28033 9.53033C8.42098 9.38968 8.5 9.19891 8.5 9C8.5 7.064 10.064 5.5 12 5.5C13.936 5.5 15.5 7.064 15.5 9C15.5 9.852 15.278 10.42 14.971 10.86C14.647 11.323 14.204 11.683 13.669 12.092L13.531 12.197C12.521 12.965 11.25 13.931 11.25 16V16.25C11.25 16.4489 11.329 16.6397 11.4697 16.7803C11.6103 16.921 11.8011 17 12 17C12.1989 17 12.3897 16.921 12.5303 16.7803C12.671 16.6397 12.75 16.4489 12.75 16.25V16C12.75 14.683 13.464 14.137 14.535 13.318L14.581 13.283C15.108 12.88 15.728 12.396 16.201 11.719C16.691 11.018 17 10.149 17 9C17 6.236 14.764 4 12 4ZM12 21C12.2652 21 12.5196 20.8946 12.7071 20.7071C12.8946 20.5196 13 20.2652 13 20C13 19.7348 12.8946 19.4804 12.7071 19.2929C12.5196 19.1054 12.2652 19 12 19C11.7348 19 11.4804 19.1054 11.2929 19.2929C11.1054 19.4804 11 19.7348 11 20C11 20.2652 11.1054 20.5196 11.2929 20.7071C11.4804 20.8946 11.7348 21 12 21Z" fill="#292D32"/>
</svg>
