<svg width="16" height="16" viewBox="0 0 16 16" fill="none" xmlns="http://www.w3.org/2000/svg">
<path d="M9.33357 6.66649L7.33357 8.66649M13.5256 2.02049C13.5888 1.99866 13.657 1.99506 13.7222 2.01012C13.7874 2.02518 13.847 2.05827 13.8943 2.10563C13.9416 2.15298 13.9746 2.21268 13.9896 2.27791C14.0045 2.34314 14.0008 2.41126 13.9789 2.47449L10.0296 13.7612C10.0059 13.8286 9.96257 13.8874 9.90511 13.93C9.84764 13.9725 9.77872 13.9968 9.70729 13.9996C9.63586 14.0025 9.56522 13.9838 9.50452 13.9461C9.44382 13.9083 9.39588 13.8532 9.3669 13.7878L7.2209 8.95982C7.18479 8.87953 7.12052 8.81526 7.04023 8.77915L2.21223 6.63249C2.1471 6.60341 2.09218 6.55546 2.05457 6.49484C2.01696 6.43423 1.99839 6.36373 2.00127 6.29245C2.00414 6.22118 2.02831 6.1524 2.07068 6.095C2.11304 6.03761 2.17164 5.99424 2.2389 5.97049L13.5256 2.02049Z" stroke="black" stroke-linecap="round" stroke-linejoin="round"/>
</svg>
