<svg width="24" height="24" viewBox="0 0 24 24" fill="none" xmlns="http://www.w3.org/2000/svg">
<path d="M17.524 17.524L14.802 20.247C14.5636 20.4859 14.2803 20.6755 13.9686 20.8048C13.6568 20.9341 13.3225 21.0007 12.985 21.0007C12.6475 21.0007 12.3132 20.9341 12.0014 20.8048C11.6897 20.6755 11.4064 20.4859 11.168 20.247L4.13 13.209C3.77211 12.8517 3.48811 12.4275 3.29422 11.9604C3.10034 11.4934 3.00036 10.9927 3 10.487V5.568C3.00053 4.88709 3.27126 4.23421 3.75273 3.75273C4.23421 3.27126 4.88709 3.00053 5.568 3H10.487C11.508 3 12.487 3.407 13.209 4.13L20.247 11.168C20.4859 11.4064 20.6755 11.6897 20.8048 12.0014C20.9341 12.3132 21.0007 12.6475 21.0007 12.985C21.0007 13.3225 20.9341 13.6568 20.8048 13.9686C20.6755 14.2803 20.4859 14.5636 20.247 14.802L17.524 17.524Z" stroke="white" stroke-width="1.5" stroke-linecap="round" stroke-linejoin="round"/>
<path d="M9.12612 11.6941C9.46342 11.6941 9.79741 11.6277 10.109 11.4986C10.4207 11.3695 10.7038 11.1803 10.9423 10.9418C11.1808 10.7033 11.37 10.4202 11.4991 10.1086C11.6282 9.79693 11.6946 9.46293 11.6946 9.12563C11.6946 8.78833 11.6282 8.45433 11.4991 8.14271C11.37 7.83108 11.1808 7.54793 10.9423 7.30942C10.7038 7.07092 10.4207 6.88172 10.109 6.75264C9.79741 6.62356 9.46342 6.55713 9.12612 6.55713C8.44491 6.55713 7.7916 6.82774 7.30991 7.30942C6.82823 7.79111 6.55762 8.44442 6.55762 9.12563C6.55762 9.80684 6.82823 10.4601 7.30991 10.9418C7.7916 11.4235 8.44491 11.6941 9.12612 11.6941Z" stroke="white" stroke-width="1.5" stroke-linecap="round" stroke-linejoin="round"/>
</svg>
