<svg width="18" height="18" viewBox="0 0 18 18" fill="none" xmlns="http://www.w3.org/2000/svg">
<path d="M12.1029 3.5459C10.9434 2.38715 10.3644 1.8074 9.61218 1.59215C8.85993 1.37615 8.06118 1.56065 6.46443 1.92965L5.54343 2.1419C4.19943 2.45165 3.52743 2.6069 3.06693 3.06665C2.60643 3.5264 2.45268 4.1999 2.14218 5.54315L1.92918 6.46415C1.56093 8.06165 1.37643 8.85965 1.59168 9.6119C1.80768 10.3641 2.38743 10.9431 3.54618 12.1019L4.91868 13.4744C6.93618 15.4926 7.94418 16.4999 9.19668 16.4999C10.4499 16.4999 11.4579 15.4919 13.4747 13.4751C15.4922 11.4576 16.5002 10.4496 16.5002 9.1964C16.5002 8.1899 15.8492 7.3409 14.5472 5.9999" stroke="#9C9BAB" stroke-linecap="round"/>
<path d="M6.45557 8.15918C6.75224 8.15918 7.04225 8.07121 7.28892 7.90638C7.5356 7.74156 7.72785 7.5073 7.84139 7.23321C7.95492 6.95912 7.98462 6.65752 7.92674 6.36654C7.86887 6.07557 7.72601 5.8083 7.51623 5.59852C7.30645 5.38874 7.03917 5.24588 6.7482 5.188C6.45723 5.13012 6.15563 5.15983 5.88154 5.27336C5.60745 5.38689 5.37318 5.57915 5.20836 5.82582C5.04354 6.0725 4.95557 6.36251 4.95557 6.65918M8.65682 13.8749L9.40682 13.1249M13.8911 8.63993L11.2503 11.2822" stroke="#9C9BAB" stroke-linecap="round"/>
</svg>
