<svg width="20" height="20" viewBox="0 0 20 20" fill="none" xmlns="http://www.w3.org/2000/svg">
<path d="M5.00521 8.33495V6.66828C5.00521 6.38439 5.02826 6.10661 5.07438 5.83495M15.0052 8.33495V6.66828C15.0053 5.65265 14.696 4.66108 14.1187 3.82553C13.5413 2.98997 12.7231 2.35006 11.7731 1.99095C10.8231 1.63184 9.78623 1.57056 8.80052 1.81527C7.81481 2.05997 6.92699 2.59906 6.25521 3.36078M9.17187 18.3349H6.67187C4.31521 18.3349 3.13604 18.3349 2.40437 17.6024C1.67187 16.8708 1.67188 15.6916 1.67188 13.3349C1.67188 10.9783 1.67187 9.79911 2.40437 9.06745C3.13604 8.33495 4.31521 8.33495 6.67187 8.33495H13.3385C15.6952 8.33495 16.8744 8.33495 17.606 9.06745C18.3385 9.79911 18.3385 10.9783 18.3385 13.3349C18.3385 15.6916 18.3385 16.8708 17.606 17.6024C16.8744 18.3349 15.6952 18.3349 13.3385 18.3349H12.5052" stroke="#737373" stroke-width="1.5" stroke-linecap="round"/>
</svg>
