<svg width="20" height="20" viewBox="0 0 20 20" fill="none" xmlns="http://www.w3.org/2000/svg">
<path d="M4.42676 9.04297H15.5771C16.3505 9.04309 17.081 9.38291 17.5771 9.97168L17.7061 10.1455V10.1465C18.0354 10.5978 18.2052 11.1341 18.2002 11.6885L18.1875 11.9268L18.1865 11.9365L17.8545 16.0859C17.7892 16.7479 17.7223 17.3062 17.4121 17.7236C17.1338 18.0981 16.5705 18.46 15.2432 18.46H4.75977C3.43271 18.4599 2.86915 18.0983 2.59082 17.7246C2.35822 17.4122 2.26293 17.0209 2.20215 16.5674L2.14941 16.0938L1.81641 11.9277V11.9219L1.80469 11.666C1.80578 11.1568 1.95104 10.6576 2.23242 10.2236L2.38477 10.0127C2.8739 9.42115 3.54714 9.08645 4.2793 9.04688L4.42676 9.04297ZM4.42676 9.29297C3.73076 9.29297 3.06218 9.59929 2.61523 10.1377L2.57324 10.1807L2.55176 10.2031L2.53223 10.2266C2.18335 10.6736 2.01147 11.2827 2.07031 11.8984V11.8994L2.40332 16.0742L2.4043 16.082C2.43257 16.3769 2.46004 16.6676 2.51562 16.918C2.57253 17.1742 2.66796 17.4394 2.86719 17.6621C3.26784 18.11 3.92105 18.2099 4.75977 18.21H15.2432C16.085 18.21 16.7405 18.1102 17.1406 17.6592C17.3392 17.4352 17.4343 17.1688 17.4902 16.9121C17.5448 16.6614 17.5714 16.3692 17.5996 16.0732L17.6006 16.0664L17.9336 11.8906L17.9326 11.8896C17.9921 11.2743 17.8143 10.6525 17.4014 10.1641H17.4023L17.3193 10.0645L17.3086 10.0518L17.2959 10.0391L17.1143 9.86621C16.676 9.48962 16.1412 9.29297 15.5684 9.29297H4.42676Z" stroke="#737373"/>
<path d="M6.45605 1.56641H7.52246C8.11119 1.56641 8.43549 1.66207 8.6582 1.79199C8.88901 1.92667 9.0666 2.12836 9.32324 2.46777V2.4668L10.3887 3.88184V3.88281C10.4733 3.99563 10.608 4.19244 10.8154 4.29883C10.9732 4.37967 11.1464 4.39633 11.29 4.39941H13.5479C15.1253 4.39946 15.9828 4.64904 16.4736 5.13965C16.9645 5.63047 17.2139 6.48839 17.2139 8.06641V9.5459C17.213 9.58035 17.1988 9.61582 17.1709 9.64355C17.1433 9.67092 17.1108 9.68253 17.0811 9.68262C17.0511 9.68262 17.0197 9.67086 16.9941 9.64551C16.9685 9.61986 16.9561 9.58776 16.9561 9.55762V8.06641C16.9561 7.43837 16.9287 6.904 16.8389 6.46289C16.7479 6.01653 16.5847 5.62575 16.2822 5.32324C15.9797 5.02073 15.5889 4.85759 15.1426 4.7666C14.7015 4.67673 14.1671 4.64941 13.5391 4.64941H11.4141C11.0032 4.64941 10.7812 4.57728 10.6357 4.49219C10.4832 4.4029 10.3621 4.27024 10.1885 4.04004L9.11328 2.61523L9.1123 2.61426L8.9873 2.4502C8.85679 2.28307 8.70559 2.11287 8.50195 1.99902C8.21833 1.84064 7.89153 1.81641 7.51367 1.81641H6.45605C5.82806 1.81641 5.29363 1.84276 4.85254 1.93262C4.40603 2.02359 4.01548 2.18764 3.71289 2.49023C3.4103 2.79283 3.24625 3.18337 3.15527 3.62988C3.06542 4.07097 3.03906 4.6054 3.03906 5.2334V9.52441C3.03906 9.5545 3.02651 9.58571 3.00098 9.61133C2.97533 9.63697 2.94421 9.64941 2.91406 9.64941C2.88392 9.64941 2.85279 9.63697 2.82715 9.61133C2.80162 9.58571 2.78906 9.5545 2.78906 9.52441V5.2334C2.78906 3.65538 3.03847 2.79747 3.5293 2.30664C4.02012 1.81582 4.87803 1.56641 6.45605 1.56641Z" stroke="#737373"/>
<path d="M7.85938 14.043H12.1426C12.1727 14.043 12.2039 14.0555 12.2295 14.0811C12.2551 14.1067 12.2676 14.1378 12.2676 14.168C12.2676 14.2378 12.2121 14.293 12.1426 14.293H7.85938C7.82923 14.293 7.7981 14.2805 7.77246 14.2549C7.74682 14.2292 7.73438 14.1981 7.73438 14.168C7.73438 14.1378 7.74682 14.1067 7.77246 14.0811C7.7981 14.0554 7.82923 14.043 7.85938 14.043Z" stroke="#737373"/>
</svg>
