<svg width="20" height="20" viewBox="0 0 20 20" fill="none" xmlns="http://www.w3.org/2000/svg">
<path d="M11.6641 4.16667C11.6641 3.25 10.9141 2.5 9.9974 2.5C9.08073 2.5 8.33073 3.25 8.33073 4.16667C8.33073 5.08333 9.08073 5.83333 9.9974 5.83333C10.9141 5.83333 11.6641 5.08333 11.6641 4.16667Z" fill="#292D32"/>
<path d="M11.6641 15.8346C11.6641 14.918 10.9141 14.168 9.9974 14.168C9.08073 14.168 8.33073 14.918 8.33073 15.8346C8.33073 16.7513 9.08073 17.5013 9.9974 17.5013C10.9141 17.5013 11.6641 16.7513 11.6641 15.8346Z" fill="#292D32"/>
<path d="M11.6641 9.9987C11.6641 9.08203 10.9141 8.33203 9.9974 8.33203C9.08073 8.33203 8.33073 9.08203 8.33073 9.9987C8.33073 10.9154 9.08073 11.6654 9.9974 11.6654C10.9141 11.6654 11.6641 10.9154 11.6641 9.9987Z" fill="#292D32"/>
</svg>
