<svg width="250" height="250" viewBox="0 0 250 250" fill="none" xmlns="http://www.w3.org/2000/svg">
<path d="M35.5234 118.439V151.564C35.5234 163.855 43.6486 180.001 53.5444 187.397L98.3359 220.835C113.023 231.876 137.19 231.876 151.877 220.835L196.669 187.397C206.565 180.001 214.69 163.855 214.69 151.564V74.168C214.69 61.3555 204.898 47.1888 192.919 42.7096L140.94 23.2305C132.294 20.0013 118.128 20.0013 109.482 23.2305L57.5025 42.7096C45.5233 47.1888 35.7317 61.3555 35.7317 74.168" stroke="#B8B8B8" stroke-width="1.5" stroke-linecap="round" stroke-linejoin="round"/>
<path d="M166.669 119.792C166.669 96.7708 148.023 78.125 125.003 78.125C101.982 78.125 83.3359 96.7708 83.3359 119.792C83.3359 142.812 101.982 161.458 125.003 161.458C132.398 161.458 139.274 159.583 145.315 156.146" stroke="#B8B8B8" stroke-width="1.5" stroke-miterlimit="10" stroke-linecap="round" stroke-linejoin="round"/>
<path d="M127.607 106.77V116.457C127.607 120.103 125.732 123.54 122.503 125.415L114.586 130.207" stroke="#B8B8B8" stroke-width="1.5" stroke-miterlimit="10" stroke-linecap="round" stroke-linejoin="round"/>
</svg>
