<svg width="40" height="40" viewBox="0 0 40 40" fill="none" xmlns="http://www.w3.org/2000/svg">
<path d="M8.33325 15.833C8.33325 15.833 4.04742 17.4997 3.33325 23.333M31.6666 15.833C31.6666 15.833 35.9524 17.4997 36.6666 23.333M14.9999 15.833C14.9999 15.833 18.9999 16.8055 19.9999 21.6663C20.9999 16.8055 24.9999 15.833 24.9999 15.833M16.6666 28.333C16.6666 28.333 13.1666 28.958 11.6666 33.333M23.3333 28.333C23.3333 28.333 26.8333 28.958 28.3333 33.333" stroke="#2B892B" stroke-width="2" stroke-linecap="round"/>
<path d="M19.9999 29.9998C22.3011 29.9998 24.1666 28.1344 24.1666 25.8332C24.1666 23.532 22.3011 21.6665 19.9999 21.6665C17.6987 21.6665 15.8333 23.532 15.8333 25.8332C15.8333 28.1344 17.6987 29.9998 19.9999 29.9998Z" fill="#2B892B" stroke="#2B892B" stroke-width="2" stroke-linecap="round" stroke-linejoin="round"/>
<path d="M28.3333 16.6665C31.0947 16.6665 33.3333 14.4279 33.3333 11.6665C33.3333 8.90508 31.0947 6.6665 28.3333 6.6665C25.5718 6.6665 23.3333 8.90508 23.3333 11.6665C23.3333 14.4279 25.5718 16.6665 28.3333 16.6665Z" fill="#2B892B" stroke="#2B892B" stroke-width="2" stroke-linecap="round" stroke-linejoin="round"/>
<path d="M11.6665 16.6665C14.4279 16.6665 16.6665 14.4279 16.6665 11.6665C16.6665 8.90508 14.4279 6.6665 11.6665 6.6665C8.90508 6.6665 6.6665 8.90508 6.6665 11.6665C6.6665 14.4279 8.90508 16.6665 11.6665 16.6665Z" fill="#2B892B" stroke="#2B892B" stroke-width="2" stroke-linecap="round" stroke-linejoin="round"/>
</svg>
