<svg width="16" height="16" viewBox="0 0 16 16" fill="none" xmlns="http://www.w3.org/2000/svg">
<path d="M8.59595 3.92188H3.40926C2.26926 3.92188 1.33594 4.8552 1.33594 5.9952V13.5685C1.33594 14.5352 2.02927 14.9485 2.87594 14.4752L5.49593 13.0152C5.77593 12.8619 6.22927 12.8619 6.5026 13.0152L9.1226 14.4752C9.96927 14.9485 10.6626 14.5352 10.6626 13.5685V5.9952C10.6693 4.8552 9.73595 3.92188 8.59595 3.92188Z" stroke="#292D32" stroke-linecap="round" stroke-linejoin="round"/>
<path d="M10.6693 5.9952V13.5685C10.6693 14.5352 9.97594 14.9419 9.12927 14.4752L6.50928 13.0152C6.22928 12.8619 5.77593 12.8619 5.49593 13.0152L2.87594 14.4752C2.02927 14.9419 1.33594 14.5352 1.33594 13.5685V5.9952C1.33594 4.8552 2.26926 3.92188 3.40926 3.92188H8.59595C9.73595 3.92188 10.6693 4.8552 10.6693 5.9952Z" stroke="#292D32" stroke-linecap="round" stroke-linejoin="round"/>
<path d="M14.6693 3.40535V10.9787C14.6693 11.9454 13.9759 12.352 13.1293 11.8854L10.6693 10.512V5.99202C10.6693 4.85202 9.73595 3.9187 8.59595 3.9187H5.33594V3.40535C5.33594 2.26535 6.26926 1.33203 7.40926 1.33203H12.5959C13.7359 1.33203 14.6693 2.26535 14.6693 3.40535Z" stroke="#292D32" stroke-linecap="round" stroke-linejoin="round"/>
</svg>
