<svg width="32" height="32" viewBox="0 0 32 32" fill="none" xmlns="http://www.w3.org/2000/svg">
<path d="M15.9583 2.66797C8.59833 2.66797 2.625 8.6413 2.625 16.0013C2.625 23.3613 8.59833 29.3346 15.9583 29.3346C23.3183 29.3346 29.2917 23.3613 29.2917 16.0013C29.2917 8.6413 23.3317 2.66797 15.9583 2.66797ZM19.9583 18.9746L16.0917 21.2013C15.6117 21.4813 15.0783 21.6146 14.5583 21.6146C14.025 21.6146 13.505 21.4813 13.025 21.2013C12.065 20.6413 11.4917 19.6546 11.4917 18.5346V14.068C11.4917 12.9613 12.065 11.9613 13.025 11.4013C13.985 10.8413 15.1317 10.8413 16.105 11.4013L19.9717 13.628C20.9317 14.188 21.505 15.1746 21.505 16.2946C21.505 17.4146 20.9317 18.4146 19.9583 18.9746Z" fill="#807F94"/>
</svg>
