<svg width="18" height="18" viewBox="0 0 18 18" fill="none" xmlns="http://www.w3.org/2000/svg">
<path d="M6.57158 16.7019H6.66908C9.99908 16.7019 11.6041 15.3894 11.8816 12.4494C11.9116 12.1419 11.6866 11.8644 11.3716 11.8344C11.0716 11.8044 10.7866 12.0369 10.7566 12.3444C10.5391 14.6994 9.42908 15.5769 6.66158 15.5769H6.56408C3.51158 15.5769 2.43158 14.4969 2.43158 11.4444V6.55437C2.43158 3.50187 3.51158 2.42188 6.56408 2.42188H6.66158C9.44408 2.42188 10.5541 3.31437 10.7566 5.71438C10.7941 6.02187 11.0566 6.25437 11.3716 6.22438C11.6866 6.20188 11.9116 5.92437 11.8891 5.61687C11.6341 2.63187 10.0216 1.29688 6.66908 1.29688H6.57158C2.88908 1.29688 1.31408 2.87187 1.31408 6.55437V11.4444C1.31408 15.1269 2.88908 16.7019 6.57158 16.7019Z" fill="#5C5C5C"/>
<path d="M6.75406 9.5625H15.2891C15.5966 9.5625 15.8516 9.3075 15.8516 9C15.8516 8.6925 15.5966 8.4375 15.2891 8.4375H6.75406C6.44656 8.4375 6.19156 8.6925 6.19156 9C6.19156 9.3075 6.44656 9.5625 6.75406 9.5625Z" fill="#5C5C5C"/>
<path d="M13.6144 12.0778C13.7569 12.0778 13.8994 12.0253 14.0119 11.9128L16.5244 9.40031C16.7419 9.18281 16.7419 8.82281 16.5244 8.60531L14.0119 6.09281C13.7944 5.87531 13.4344 5.87531 13.2169 6.09281C12.9994 6.31031 12.9994 6.67031 13.2169 6.88781L15.3319 9.00281L13.2169 11.1178C12.9994 11.3353 12.9994 11.6953 13.2169 11.9128C13.3219 12.0253 13.4719 12.0778 13.6144 12.0778Z" fill="#5C5C5C"/>
</svg>
