<svg width="18" height="18" viewBox="0 0 18 18" fill="none" xmlns="http://www.w3.org/2000/svg">
<path d="M16.2597 12.7246L13.9122 7.24211C13.1172 5.38211 11.6547 5.30711 10.6722 7.07711L9.2547 9.63461C8.5347 10.9321 7.1922 11.0446 6.2622 9.88211L6.0972 9.67211C5.1297 8.45711 3.7647 8.60711 3.0672 9.99461L1.7772 12.5821C0.8697 14.3821 2.1822 16.5046 4.1922 16.5046H13.7622C15.7122 16.5046 17.0247 14.5171 16.2597 12.7246Z" stroke="#5C5C5C" stroke-width="1.125" stroke-linecap="round" stroke-linejoin="round"/>
<path d="M5.22656 6C6.4692 6 7.47656 4.99264 7.47656 3.75C7.47656 2.50736 6.4692 1.5 5.22656 1.5C3.98392 1.5 2.97656 2.50736 2.97656 3.75C2.97656 4.99264 3.98392 6 5.22656 6Z" stroke="#5C5C5C" stroke-width="1.125" stroke-linecap="round" stroke-linejoin="round"/>
</svg>
