<svg width="23" height="23" viewBox="0 0 23 23" fill="none" xmlns="http://www.w3.org/2000/svg">
<path d="M11.5232 2.78906C8.35114 2.78906 5.77322 5.36698 5.77322 8.53906V11.3086C5.77322 11.8932 5.52405 12.7845 5.22697 13.2828L4.12488 15.1132C3.44447 16.2441 3.91405 17.4995 5.15988 17.9211C9.2903 19.3011 13.7466 19.3011 17.877 17.9211C19.0366 17.5378 19.5445 16.1674 18.912 15.1132L17.8099 13.2828C17.5224 12.7845 17.2732 11.8932 17.2732 11.3086V8.53906C17.2732 5.37656 14.6857 2.78906 11.5232 2.78906Z" stroke="#292D32" stroke-width="1.4375" stroke-miterlimit="10" stroke-linecap="round"/>
<path d="M13.2958 3.06688C12.9987 2.98063 12.6921 2.91354 12.3758 2.87521C11.4558 2.76021 10.5742 2.82729 9.75 3.06688C10.0279 2.35771 10.7179 1.85938 11.5229 1.85938C12.3279 1.85938 13.0179 2.35771 13.2958 3.06688Z" stroke="#292D32" stroke-width="1.4375" stroke-miterlimit="10" stroke-linecap="round" stroke-linejoin="round"/>
<path d="M14.3984 18.2656C14.3984 19.8469 13.1047 21.1406 11.5234 21.1406C10.7376 21.1406 10.0093 20.8148 9.49177 20.2973C8.97427 19.7798 8.64844 19.0515 8.64844 18.2656" stroke="#292D32" stroke-width="1.4375" stroke-miterlimit="10"/>
</svg>
