<svg width="313" height="115" viewBox="0 0 313 115" fill="none" xmlns="http://www.w3.org/2000/svg">
<path fill-rule="evenodd" clip-rule="evenodd" d="M306.841 114.953L278.724 114.867L25.9119 114.095L5.53585 114.031C-0.275994 114.011 -2.14802 106.198 3.02446 103.548L23.0635 93.281C25.5029 92.0339 26.6578 89.2 25.7996 86.5994C21.805 74.4832 12.7243 41.4928 29.5521 34.408C50.2536 25.6902 75.3211 60.5641 75.3211 60.5641C75.3211 60.5641 75.3212 11.5264 108.015 3.89437C140.709 -3.73187 152.692 40.9456 152.692 40.9456C152.692 40.9456 174.488 -5.91201 207.182 0.625586C239.876 7.16319 238.784 47.489 238.784 47.489C238.784 47.489 271.478 18.064 286.73 39.857C298.158 56.1808 289.409 78.6218 284.297 88.8602C282.819 91.8266 284.277 95.4208 287.399 96.5411L308.731 104.188C314.597 106.287 313.071 114.97 306.841 114.953Z" fill="white"/>
<path fill-rule="evenodd" clip-rule="evenodd" d="M278.707 114.862L25.8945 114.09C30.4795 106.899 38.7883 101.922 47.3736 102.461C40.7554 98.8663 36.5073 90.4509 39.0014 83.346C41.4926 76.2381 49.5278 71.5581 56.938 72.8858C64.354 74.2163 70.2523 81.402 70.1198 88.9332C75.4046 82.266 84.3269 80.9786 92.6789 82.5741C89.2373 72.5287 92.4139 60.8071 100.072 53.4429C107.727 46.0845 119.751 43.6653 129.658 47.4957C139.56 51.3261 146.832 61.2045 147.549 71.7971C147.995 59.3843 156.986 49.5693 168.112 44.0483C179.237 38.5245 193.355 39.6045 203.513 46.7555C213.674 53.9066 219.454 66.8291 218.008 79.1641C222.458 70.5097 232.192 66.1696 241.143 69.9914C250.094 73.8074 255.088 85.0336 251.923 94.2352C261.464 94.0681 270.219 100.738 275.568 108.65C276.878 110.579 277.926 112.673 278.707 114.862Z" fill="#E2F2F7"/>
</svg>
