<svg width="32" height="27" viewBox="0 0 32 27" fill="none" xmlns="http://www.w3.org/2000/svg">
<path d="M10.3828 13.8371C10.4652 14.0698 10.5708 14.3024 10.6832 14.5342C10.7731 14.722 10.8638 14.9015 10.9612 15.0668C13.2508 14.7594 15.5628 14.6688 17.8674 14.7818C18.2876 14.4071 18.6331 13.995 18.911 13.5447C16.0655 13.3353 13.2133 13.4325 10.3828 13.8371Z" fill="white"/>
<path d="M9.9375 11.301C9.9375 11.7288 9.96745 12.1634 10.0499 12.5979C13.1733 12.1035 16.3409 12.0055 19.4794 12.298C19.6067 11.8784 19.6817 11.4439 19.7191 11.0168C16.4608 10.7019 13.1733 10.7991 9.9375 11.301Z" fill="white"/>
<path d="M19.5143 8.39576C16.4815 8.11831 13.4328 8.20051 10.4151 8.62759C10.2652 9.06298 10.1454 9.51988 10.0547 9.99926C13.2531 9.49748 16.4965 9.39941 19.709 9.72181C19.679 9.26483 19.6116 8.81535 19.5143 8.39576Z" fill="white"/>
<path d="M19.0768 6.84208C18.9345 6.43664 18.7847 6.06194 18.6341 5.72545C16.367 5.56759 14.0849 5.61246 11.8253 5.85256C11.5398 6.27214 11.2552 6.74405 10.9922 7.26166C13.6946 6.90191 16.4344 6.84208 19.1451 7.06641C19.1301 6.99163 19.1001 6.91686 19.0768 6.84208Z" fill="white"/>
<path d="M22.7725 24.6582C18.2683 23.8639 13.6592 23.8639 9.15494 24.6582C9.03506 25.1833 8.96684 25.6552 8.92188 26.0224C13.5768 25.1384 18.3515 25.1384 23.0055 26.0224C22.968 25.6552 22.8931 25.1907 22.7725 24.6582Z" fill="white"/>
<path d="M21.798 21.8996C17.9238 21.3147 13.9905 21.3147 10.1172 21.8996C9.87661 22.379 9.68858 22.8584 9.53125 23.3087C13.78 22.5742 18.1344 22.5742 22.3831 23.3087C22.2333 22.8584 22.0378 22.379 21.798 21.8996Z" fill="white"/>
<g opacity="0.5">
<path d="M14.5471 21.4922C14.225 21.5072 13.8946 21.5221 13.5717 21.5371C13.1514 21.9641 12.776 22.4285 12.4531 22.9237C12.7228 22.9012 13.0008 22.878 13.2712 22.8556C13.6391 22.3613 14.0669 21.9043 14.5471 21.4922Z" fill="white"/>
<path d="M11.25 25.658C11.4747 25.6281 11.7003 25.6057 11.925 25.5833C12.0607 25.1105 12.2254 24.6611 12.436 24.2266C12.1955 24.249 11.9475 24.2714 11.7078 24.3013C11.5272 24.7358 11.3699 25.1936 11.25 25.658Z" fill="white"/>
<path d="M12.889 6.70811C13.0164 6.35583 13.152 6.02599 13.2794 5.73438C13.0464 5.74933 12.8067 5.77176 12.5736 5.78671C12.4013 6.19881 12.2358 6.64828 12.0859 7.13515C12.3106 7.11272 12.5437 7.09028 12.7692 7.06785C12.8067 6.94821 12.8516 6.82858 12.889 6.70811Z" fill="white"/>
<path d="M12.4039 8.40625C12.1859 8.42865 11.9687 8.45106 11.7431 8.47354C11.6607 8.90804 11.5933 9.35003 11.5625 9.79951C11.7731 9.77711 11.9912 9.75463 12.2009 9.73223C12.2458 9.27525 12.3132 8.82576 12.4039 8.40625Z" fill="white"/>
<path d="M12.3818 12.0949C12.2911 11.7426 12.2312 11.3828 12.2012 11.0156C11.9915 11.038 11.7809 11.0605 11.5703 11.0829C11.6086 11.5099 11.6835 11.9445 11.8034 12.3641C12.0139 12.3416 12.2312 12.3192 12.4417 12.2967C12.4193 12.2294 12.3967 12.1621 12.3818 12.0949Z" fill="white"/>
<path d="M13.0263 13.5547C12.7942 13.5697 12.5611 13.5921 12.3281 13.6145C12.5611 14.0416 12.8541 14.4537 13.222 14.8433C13.5074 14.8209 13.7845 14.8059 14.07 14.791C13.6497 14.4163 13.3044 14.0042 13.0263 13.5547Z" fill="white"/>
</g>
<path d="M12.2128 18.1508C13.0834 17.4014 14.0821 16.7865 15.1932 16.3221C8.03151 12.5003 13.6394 3.67188 13.6394 3.67188C13.6394 3.67188 7.94166 8.91775 10.6815 14.5309C11.3198 15.8427 12.0331 16.7416 12.7763 17.4014C11.9199 16.7641 11.0793 15.8726 10.2912 14.5159C10.0131 14.029 9.78848 13.5263 9.62282 13.0096C8.44435 12.1555 6.49268 10.4091 4.58596 7.27685C4.57847 7.27685 6.28212 14.6654 12.2128 18.1508Z" fill="#DB6F23"/>
<path d="M16.303 16.8296C16.1907 16.7848 16.0775 16.7399 15.9652 16.6875C15.8528 16.7324 15.7404 16.7848 15.6272 16.8296C14.5162 17.2716 13.5857 17.8341 12.8125 18.4788C13.4051 18.7862 14.0359 19.0554 14.7117 19.2731C18.0599 20.3673 20.4768 23.2827 20.8822 26.7746H23.0594C23.0444 25.7104 22.5193 19.2806 16.303 16.8296Z" fill="#DB6F23"/>
<path d="M22.305 13.0096C22.1401 13.5263 21.9146 14.029 21.6366 14.5159C20.8485 15.8726 20.0079 16.7716 19.1523 17.4014C19.8956 16.7416 20.6088 15.8427 21.2463 14.5309C23.987 8.91775 18.2809 3.67188 18.2809 3.67188C18.2809 3.67188 24.4372 13.3544 15.6235 16.8314C9.41566 19.2824 8.88963 25.7121 8.86719 26.7764H11.0444C11.4497 23.2844 13.8749 20.369 17.2156 19.2749C25.1804 16.6743 27.3427 7.27685 27.3427 7.27685C25.4351 10.4091 23.4835 12.148 22.305 13.0096Z" fill="#DB6F23"/>
<path d="M17.4177 19.8777C18.1834 19.6309 18.9191 19.3086 19.6249 18.9264C19.4676 18.776 19.2944 18.6264 19.1222 18.4844C18.5288 18.7918 17.8979 19.061 17.223 19.2787C16.7869 19.4207 16.3666 19.5935 15.9688 19.7954C16.2017 19.9159 16.4265 20.0356 16.6445 20.1701C16.8925 20.058 17.1472 19.9608 17.4177 19.8777Z" fill="#C27514"/>
<path d="M31.6469 2.625C31.6469 2.625 30.9412 3.23234 30.8512 4.67882C30.7239 6.72432 29.2824 7.2494 27.7211 7.09154C27.7211 7.09154 28.8471 4.70873 29.9957 3.65191C29.9957 3.65191 28.3811 5.00866 27.4656 6.88965C26.9246 5.78049 26.9246 2.8352 31.6469 2.625Z" fill="white"/>
<path d="M26.8327 2.32812C26.8327 2.32812 26.7954 2.62805 27.0883 2.99528C27.5086 3.51289 27.2755 3.95489 26.8628 4.2623C26.8628 4.2623 26.6156 3.44476 26.6605 2.93546C26.6605 2.93546 26.5698 3.61757 26.7579 4.26977C26.39 4.11939 25.7367 3.41486 26.8327 2.32812Z" fill="white"/>
<path d="M18.7167 0C18.7167 0 18.7083 0.29993 19.0312 0.644724C19.4974 1.12411 19.3018 1.58854 18.9189 1.92586C18.9189 1.92586 18.596 1.13159 18.596 0.622292C18.596 0.622292 18.566 1.3044 18.8141 1.94082C18.4312 1.82118 17.7255 1.17646 18.7167 0Z" fill="white"/>
<path d="M22.7502 5.82038C22.7502 5.82038 22.4497 5.85029 22.1501 6.21751C21.7298 6.73429 21.2488 6.60718 20.8659 6.26986C20.8659 6.26986 21.6167 5.85029 22.1202 5.78299C22.1202 5.78299 21.4369 5.84281 20.8359 6.16517C20.9033 5.77551 21.4518 4.98872 22.7502 5.82038Z" fill="white"/>
<path d="M31.9302 7.08088C31.9302 7.08088 31.6297 7.11079 31.3368 7.47801C30.924 8.00309 30.4363 7.87512 30.0534 7.5378C30.0534 7.5378 30.7966 7.11079 31.2993 7.04349C31.2993 7.04349 30.6161 7.10331 30.0234 7.43313C30.0833 7.04349 30.631 6.25669 31.9302 7.08088Z" fill="white"/>
<path d="M30.8391 12.0962C30.8391 12.0962 30.606 11.901 30.1408 11.9458C29.48 12.0131 29.2328 11.5786 29.1953 11.0693C29.1953 11.0693 30.0209 11.3011 30.4187 11.616C30.4187 11.616 29.8928 11.174 29.2478 10.9796C29.5707 10.7544 30.5162 10.5974 30.8391 12.0962Z" fill="white"/>
<path d="M22.8476 0.796875C22.8476 0.796875 22.8926 1.09681 22.5996 1.47151C22.1943 2.00407 22.4339 2.4386 22.8476 2.73105C22.8476 2.73105 23.0798 1.90604 23.0274 1.40422C23.0274 1.40422 23.1322 2.07885 22.9525 2.73853C23.3278 2.58067 23.9587 1.86117 22.8476 0.796875Z" fill="white"/>
<path d="M9.07924 0.796875C9.07924 0.796875 9.03428 1.09681 9.32642 1.47151C9.73258 2.00407 9.49208 2.4386 9.07924 2.73105C9.07924 2.73105 8.84618 1.90604 8.89865 1.40422C8.89865 1.40422 8.79378 2.07885 8.97438 2.73853C8.59899 2.58067 7.96817 1.86117 9.07924 0.796875Z" fill="white"/>
<path d="M28.7285 13.6466C28.7285 13.6466 28.4206 13.2345 27.6324 13.1215C26.5138 12.9646 26.2817 12.1553 26.4315 11.3004C26.4315 11.3004 27.7006 12.0199 28.2333 12.6945C28.2333 12.6945 27.5501 11.7507 26.5513 11.1658C27.1822 10.9182 28.8109 11.0387 28.7285 13.6466Z" fill="white"/>
<path d="M30.6877 8.87336C30.6877 8.87336 30.1467 8.89577 29.5766 9.52552C28.7726 10.417 27.9245 10.1321 27.2637 9.49562C27.2637 9.49562 28.6452 8.8135 29.5533 8.74621C29.5533 8.74621 28.3223 8.7836 27.2188 9.30786C27.3843 8.60333 28.4505 7.25488 30.6877 8.87336Z" fill="white"/>
<path d="M24.6749 3.07812C24.6749 3.07812 24.7806 3.61069 25.4864 4.07512C26.4917 4.72732 26.3419 5.61133 25.8085 6.36074C25.8085 6.36074 24.923 5.10203 24.7132 4.21055C24.7132 4.21055 24.9379 5.41691 25.6287 6.42804C24.9154 6.38317 23.4141 5.53656 24.6749 3.07812Z" fill="white"/>
<path d="M23.2218 6.84375C23.2218 6.84375 23.3275 7.37631 24.0332 7.84077C25.0386 8.49293 24.8888 9.37698 24.3553 10.1264C24.3553 10.1264 23.4698 8.86763 23.2601 7.97616C23.2601 7.97616 23.4848 9.18255 24.1755 10.1937C23.4623 10.1488 21.9609 9.30221 23.2218 6.84375Z" fill="white"/>
<path d="M20.9314 1.6875C20.9314 1.6875 20.7666 2.20428 21.172 2.94621C21.7429 4.00302 21.1869 4.70757 20.3688 5.10471C20.3688 5.10471 20.1882 3.57598 20.4362 2.69862C20.4362 2.69862 20.0609 3.86843 20.1807 5.08228C19.5656 4.70757 18.6494 3.24614 20.9314 1.6875Z" fill="white"/>
<path d="M16.75 2.125C16.75 2.125 17.0055 2.32689 17.0579 2.83702C17.1253 3.54905 17.6438 3.72103 18.184 3.64625C18.184 3.64625 17.7636 2.82207 17.3434 2.4698C17.3434 2.4698 17.921 2.92676 18.2738 3.57148C18.447 3.16686 18.417 2.13248 16.75 2.125Z" fill="white"/>
<path d="M0.28125 2.625C0.28125 2.625 0.987013 3.23234 1.07689 4.67882C1.20506 6.72432 2.64655 7.2494 4.20789 7.09154C4.20789 7.09154 3.08183 4.70873 1.9333 3.65191C1.9333 3.65191 3.54707 5.00866 4.46256 6.88965C5.00353 5.78049 5.00353 2.8352 0.28125 2.625Z" fill="white"/>
<path d="M5.09489 2.32812C5.09489 2.32812 5.13235 2.62805 4.83938 2.99528C4.41909 3.51289 4.65213 3.95489 5.06493 4.2623C5.06493 4.2623 5.31295 3.44476 5.268 2.93546C5.268 2.93546 5.35789 3.61757 5.1698 4.26977C5.53766 4.11939 6.1835 3.41486 5.09489 2.32812Z" fill="white"/>
<path d="M13.2046 0C13.2046 0 13.212 0.29993 12.8891 0.644724C12.4239 1.12411 12.6187 1.58854 13.0015 1.92586C13.0015 1.92586 13.3244 1.13159 13.3244 0.622292C13.3244 0.622292 13.3544 1.3044 13.1072 1.94082C13.4901 1.82118 14.2025 1.17646 13.2046 0Z" fill="white"/>
<path d="M9.17969 5.82038C9.17969 5.82038 9.48016 5.85029 9.78055 6.21751C10.2009 6.73429 10.6811 6.60718 11.064 6.26986C11.064 6.26986 10.3132 5.85029 9.81051 5.78299C9.81051 5.78299 10.4939 5.84281 11.0939 6.16517C11.0265 5.77551 10.4705 4.98872 9.17969 5.82038Z" fill="white"/>
<path d="M0 7.08088C0 7.08088 0.299616 7.11079 0.592574 7.47801C1.00538 8.00309 1.49392 7.87512 1.87676 7.5378C1.87676 7.5378 1.13355 7.11079 0.630027 7.04349C0.630027 7.04349 1.31332 7.10331 1.90672 7.43313C1.84597 7.04349 1.29834 6.25669 0 7.08088Z" fill="white"/>
<path d="M1.08594 12.0962C1.08594 12.0962 1.31897 11.901 1.78421 11.9458C2.44503 12.0131 2.69304 11.5786 2.7305 11.0693C2.7305 11.0693 1.90489 11.3011 1.50706 11.616C1.50706 11.616 2.03222 11.174 2.67807 10.9796C2.34765 10.7544 1.40137 10.5974 1.08594 12.0962Z" fill="white"/>
<path d="M3.19834 13.6466C3.19834 13.6466 3.50628 13.2345 4.29444 13.1215C5.41301 12.9646 5.64604 12.1553 5.4954 11.3004C5.4954 11.3004 4.22702 12.0199 3.69354 12.6945C3.69354 12.6945 4.37683 11.7507 5.37555 11.1658C4.73721 10.9182 3.11595 11.0387 3.19834 13.6466Z" fill="white"/>
<path d="M1.23438 8.87336C1.23438 8.87336 1.77452 8.89577 2.34545 9.52552C3.14859 10.417 3.99667 10.1321 4.65749 9.49562C4.65749 9.49562 3.27593 8.8135 2.36792 8.74621C2.36792 8.74621 3.59884 8.7836 4.70243 9.30786C4.54513 8.60333 3.47899 7.25488 1.23438 8.87336Z" fill="white"/>
<path d="M7.25444 3.07812C7.25444 3.07812 7.14957 3.61069 6.44381 4.07512C5.4376 4.72732 5.58741 5.61133 6.12089 6.36074C6.12089 6.36074 7.00643 5.10203 7.21699 4.21055C7.21699 4.21055 6.99145 5.41691 6.30066 6.42804C7.01392 6.38317 8.51534 5.53655 7.25444 3.07812Z" fill="white"/>
<path d="M8.25447 6.46875C8.25447 6.46875 8.14961 7.00131 7.4438 7.46572C6.4376 8.11796 6.58741 9.00194 7.12089 9.75135C7.12089 9.75135 8.00639 8.49266 8.21701 7.60119C8.21701 7.60119 7.99146 8.8075 7.30066 9.81864C8.0139 9.77376 9.51536 8.92716 8.25447 6.46875Z" fill="white"/>
<path d="M10.9971 1.6875C10.9971 1.6875 11.1619 2.20428 10.7567 2.94621C10.1866 4.00302 10.7416 4.70757 11.5597 5.10471C11.5597 5.10471 11.7403 3.57598 11.4923 2.69862C11.4923 2.69862 11.8677 3.86843 11.7478 5.08228C12.3637 4.70757 13.2793 3.24614 10.9971 1.6875Z" fill="white"/>
<path d="M16.8376 1.65924C16.8376 1.65924 16.3491 1.89105 16.0786 2.6928C15.6958 3.82439 14.8027 3.90747 13.9471 3.58511C13.9471 3.58511 14.9376 2.40866 15.749 1.98908C15.749 1.98908 14.6379 2.51334 13.8339 3.43473C13.6991 2.72354 14.1419 1.05939 16.8376 1.65924Z" fill="white"/>
</svg>
