<svg width="172" height="51" viewBox="0 0 172 51" fill="none" xmlns="http://www.w3.org/2000/svg">
<g clip-path="url(#clip0_808_6577)">
<path d="M19.4844 25.9689C19.6389 26.4055 19.8373 26.8422 20.0482 27.2774C20.217 27.6298 20.3872 27.9666 20.5701 28.277C24.8676 27.7 29.2073 27.5299 33.533 27.742C34.3219 27.0387 34.9702 26.2652 35.492 25.42C30.1509 25.027 24.7973 25.2094 19.4844 25.9689Z" fill="#004000"/>
<path d="M18.6562 21.2127C18.6562 22.0158 18.7125 22.8315 18.8672 23.647C24.73 22.7191 30.6756 22.5352 36.5666 23.0841C36.8055 22.2965 36.9461 21.4809 37.0164 20.6793C30.9006 20.0883 24.73 20.2707 18.6562 21.2127Z" fill="#004000"/>
<path d="M36.6229 15.7717C30.9303 15.2509 25.208 15.4052 19.5436 16.2068C19.2624 17.024 19.0375 17.8817 18.8672 18.7815C24.8707 17.8396 30.9585 17.6555 36.9884 18.2607C36.9322 17.4029 36.8057 16.5592 36.6229 15.7717Z" fill="#004000"/>
<path d="M35.7999 12.844C35.5328 12.083 35.2517 11.3797 34.9689 10.7481C30.7136 10.4518 26.43 10.536 22.1888 10.9867C21.653 11.7742 21.1187 12.66 20.625 13.6316C25.6974 12.9563 30.8401 12.844 35.9281 13.2651C35.8999 13.1247 35.8437 12.9844 35.7999 12.844Z" fill="#004000"/>
<path d="M42.74 46.2783C34.2855 44.7874 25.6342 44.7874 17.1797 46.2783C16.9546 47.2639 16.8266 48.1497 16.7422 48.8389C25.4795 47.1797 34.4417 47.1797 43.1773 48.8389C43.107 48.1497 42.9664 47.2778 42.74 46.2783Z" fill="#004000"/>
<path d="M40.9155 41.1047C33.6436 40.0068 26.2607 40.0068 18.9904 41.1047C18.5389 42.0045 18.1859 42.9043 17.8906 43.7495C25.8655 42.3709 34.0388 42.3709 42.0137 43.7495C41.7325 42.9043 41.3655 42.0045 40.9155 41.1047Z" fill="#004000"/>
<g opacity="0.5">
<path d="M27.2977 40.3281C26.6931 40.3563 26.0729 40.3842 25.4668 40.4124C24.6779 41.2139 23.9733 42.0857 23.3672 43.0151C23.8733 42.973 24.3951 42.9294 24.9028 42.8872C25.5933 41.9594 26.3962 41.1016 27.2977 40.3281Z" fill="black"/>
<path d="M21.1094 48.1478C21.5312 48.0917 21.9546 48.0496 22.3764 48.0075C22.631 47.1202 22.9403 46.2765 23.3355 45.4609C22.8841 45.503 22.4186 45.545 21.9687 45.6013C21.6297 46.4169 21.3344 47.2761 21.1094 48.1478Z" fill="black"/>
<path d="M24.1793 12.5816C24.4184 11.9204 24.673 11.3013 24.9121 10.7539C24.4746 10.782 24.0247 10.8241 23.5873 10.8521C23.2639 11.6257 22.9531 12.4693 22.6719 13.3832C23.0936 13.3411 23.531 13.299 23.9544 13.2569C24.0247 13.0323 24.1091 12.8077 24.1793 12.5816Z" fill="black"/>
<path d="M23.2669 15.7617C22.8576 15.8038 22.4499 15.8458 22.0265 15.888C21.8719 16.7036 21.7454 17.5332 21.6875 18.3769C22.0828 18.3348 22.4921 18.2926 22.8858 18.2506C22.97 17.3928 23.0966 16.5492 23.2669 15.7617Z" fill="black"/>
<path d="M23.2341 22.6976C23.0638 22.0363 22.9513 21.3611 22.8951 20.6719C22.5015 20.7139 22.1061 20.7561 21.7109 20.7982C21.7828 21.5997 21.9234 22.4154 22.1484 23.2029C22.5436 23.1607 22.9513 23.1187 23.3465 23.0765C23.3044 22.9502 23.2621 22.8239 23.2341 22.6976Z" fill="black"/>
<path d="M24.4356 25.4336C23.9998 25.4617 23.5623 25.5038 23.125 25.5458C23.5623 26.3475 24.1122 27.121 24.8027 27.8523C25.3385 27.8102 25.8587 27.7821 26.3945 27.7541C25.6057 27.0508 24.9574 26.2773 24.4356 25.4336Z" fill="black"/>
</g>
<path d="M22.9251 34.0677C24.5592 32.661 26.4338 31.507 28.5194 30.6353C15.0768 23.4616 25.6028 6.89062 25.6028 6.89062C25.6028 6.89062 14.9081 16.7372 20.0508 27.2731C21.249 29.7355 22.5877 31.4227 23.9828 32.661C22.3753 31.4649 20.7975 29.7916 19.3182 27.2449C18.7963 26.3311 18.3746 25.3875 18.0637 24.4176C15.8517 22.8144 12.1884 19.5364 8.60942 13.6572C8.59536 13.6572 11.7931 27.5257 22.9251 34.0677Z" fill="#DB6F23"/>
<path d="M30.5908 31.5948C30.3799 31.5107 30.1674 31.4264 29.9567 31.3281C29.7457 31.4124 29.5348 31.5107 29.3224 31.5948C27.2369 32.4244 25.4904 33.4803 24.0391 34.6903C25.1514 35.2674 26.3355 35.7727 27.6039 36.1812C33.8885 38.2351 38.4251 43.7073 39.1859 50.2617H43.2727C43.2445 48.2641 42.2588 36.1953 30.5908 31.5948Z" fill="#DB6F23"/>
<path d="M41.8635 24.4215C41.5541 25.3914 41.1307 26.335 40.609 27.2488C39.1297 29.7955 37.5518 31.4829 35.9459 32.6649C37.341 31.4266 38.6798 29.7394 39.8764 27.277C45.0206 16.7411 34.3103 6.89453 34.3103 6.89453C34.3103 6.89453 45.8657 25.0687 29.3223 31.5951C17.6701 36.1956 16.6828 48.2643 16.6406 50.2621H20.7272C21.488 43.7075 26.0402 38.2353 32.3108 36.1816C47.2608 31.3003 51.3193 13.6611 51.3193 13.6611C47.7389 19.5404 44.0755 22.8043 41.8635 24.4215Z" fill="#DB6F23"/>
<path d="M32.6884 37.3028C34.1256 36.8395 35.5066 36.2345 36.8313 35.5171C36.5361 35.2349 36.2111 34.9542 35.8878 34.6875C34.774 35.2645 33.5898 35.7699 32.3229 36.1784C31.5043 36.4451 30.7155 36.7694 29.9688 37.1484C30.4061 37.3745 30.8279 37.5991 31.2372 37.8517C31.7027 37.6412 32.1808 37.4588 32.6884 37.3028Z" fill="#C27514"/>
<path d="M59.4064 4.9375C59.4064 4.9375 58.0817 6.07749 57.9129 8.79254C57.674 12.632 54.9683 13.6176 52.0376 13.3213C52.0376 13.3213 54.1512 8.84868 56.307 6.86502C56.307 6.86502 53.2764 9.41165 51.558 12.9423C50.5426 10.8604 50.5426 5.33205 59.4064 4.9375Z" fill="#004000"/>
<path d="M50.3566 4.375C50.3566 4.375 50.2864 4.93797 50.8362 5.62726C51.6252 6.59882 51.1877 7.42846 50.4129 8.00546C50.4129 8.00546 49.949 6.47094 50.0332 5.51497C50.0332 5.51497 49.863 6.79531 50.2161 8.0195C49.5256 7.73723 48.2993 6.41481 50.3566 4.375Z" fill="#004000"/>
<path d="M35.1289 0C35.1289 0 35.1133 0.562972 35.7194 1.21016C36.5943 2.10997 36.2272 2.98172 35.5086 3.61487C35.5086 3.61487 34.9024 2.12401 34.9024 1.16805C34.9024 1.16805 34.8462 2.44838 35.3118 3.64294C34.5931 3.41838 33.2684 2.20822 35.1289 0Z" fill="#004000"/>
<path d="M42.6946 10.9315C42.6946 10.9315 42.1306 10.9877 41.5683 11.677C40.7794 12.647 39.8765 12.4084 39.1578 11.7752C39.1578 11.7752 40.567 10.9877 41.5121 10.8614C41.5121 10.8614 40.2295 10.9736 39.1016 11.5787C39.2281 10.8473 40.2576 9.37049 42.6946 10.9315Z" fill="#004000"/>
<path d="M59.9305 13.2813C59.9305 13.2813 59.3665 13.3374 58.8168 14.0267C58.0418 15.0123 57.1265 14.7721 56.4078 14.1389C56.4078 14.1389 57.8029 13.3374 58.7464 13.2111C58.7464 13.2111 57.4639 13.3234 56.3516 13.9425C56.464 13.2111 57.492 11.7343 59.9305 13.2813Z" fill="#004000"/>
<path d="M57.8823 22.7054C57.8823 22.7054 57.4448 22.3389 56.5716 22.4232C55.3312 22.5495 54.8672 21.7339 54.7969 20.7778C54.7969 20.7778 56.3465 21.213 57.0933 21.8041C57.0933 21.8041 56.1061 20.9743 54.8954 20.6095C55.5015 20.1869 57.2762 19.8921 57.8823 22.7054Z" fill="#004000"/>
<path d="M42.8812 1.50391C42.8812 1.50391 42.9656 2.06689 42.4157 2.7702C41.6548 3.76983 42.1047 4.58544 42.8812 5.13438C42.8812 5.13438 43.3171 3.58582 43.2186 2.64389C43.2186 2.64389 43.4154 3.91019 43.078 5.14842C43.7826 4.85212 44.9666 3.5016 42.8812 1.50391Z" fill="#004000"/>
<path d="M17.0502 1.50391C17.0502 1.50391 16.9658 2.06689 17.5142 2.7702C18.2765 3.76983 17.8251 4.58544 17.0502 5.13438C17.0502 5.13438 16.6128 3.58582 16.7112 2.64389C16.7112 2.64389 16.5144 3.91019 16.8534 5.14842C16.1488 4.85212 14.9647 3.5016 17.0502 1.50391Z" fill="#004000"/>
<path d="M53.9195 25.618C53.9195 25.618 53.3414 24.8444 51.8621 24.6324C49.7625 24.3377 49.3267 22.8187 49.6079 21.214C49.6079 21.214 51.9901 22.5646 52.9901 23.8309C52.9901 23.8309 51.7075 22.0593 49.8328 20.9614C51.017 20.4966 54.0741 20.7228 53.9195 25.618Z" fill="#004000"/>
<path d="M57.6049 16.6528C57.6049 16.6528 56.5895 16.6948 55.5194 17.8769C54.0104 19.5502 52.4184 19.0153 51.1781 17.8208C51.1781 17.8208 53.7713 16.5404 55.4756 16.4141C55.4756 16.4141 53.1651 16.4843 51.0938 17.4683C51.4045 16.1459 53.4058 13.6148 57.6049 16.6528Z" fill="#004000"/>
<path d="M46.3133 5.78125C46.3133 5.78125 46.5118 6.78088 47.8364 7.65263C49.7235 8.87682 49.4423 10.5361 48.441 11.9428C48.441 11.9428 46.7789 9.58014 46.3852 7.90683C46.3852 7.90683 46.8069 10.1712 48.1036 12.0691C46.7648 11.9849 43.9467 10.3958 46.3133 5.78125Z" fill="#004000"/>
<path d="M43.5868 12.8516C43.5868 12.8516 43.7851 13.8512 45.1098 14.723C46.9969 15.9471 46.7158 17.6065 45.7144 19.0131C45.7144 19.0131 44.0523 16.6504 43.6586 14.9771C43.6586 14.9771 44.0805 17.2415 45.3769 19.1394C44.0382 19.0552 41.2201 17.4661 43.5868 12.8516Z" fill="#004000"/>
<path d="M39.2844 3.16406C39.2844 3.16406 38.9752 4.13406 39.736 5.52668C40.8076 7.51033 39.764 8.83277 38.2284 9.57821C38.2284 9.57821 37.8895 6.70876 38.355 5.06195C38.355 5.06195 37.6505 7.2577 37.8754 9.5361C36.7209 8.83277 35.001 6.08965 39.2844 3.16406Z" fill="#004000"/>
<path d="M31.4531 3.98047C31.4531 3.98047 31.9327 4.35943 32.0311 5.31695C32.1576 6.65342 33.1309 6.97624 34.1447 6.83588C34.1447 6.83588 33.3557 5.28887 32.5669 4.62765C32.5669 4.62765 33.651 5.48538 34.3134 6.69553C34.6384 5.93606 34.582 3.9945 31.4531 3.98047Z" fill="#004000"/>
<path d="M0.515625 4.9375C0.515625 4.9375 1.84035 6.07749 2.00906 8.79254C2.24964 12.632 4.95532 13.6176 7.88598 13.3213C7.88598 13.3213 5.77234 8.84868 3.61654 6.86502C3.61654 6.86502 6.64561 9.41165 8.36399 12.9423C9.37941 10.8604 9.37941 5.33205 0.515625 4.9375Z" fill="#004000"/>
<path d="M9.56853 4.375C9.56853 4.375 9.63883 4.93797 9.08894 5.62726C8.30004 6.59882 8.73746 7.42846 9.5123 8.00546C9.5123 8.00546 9.97783 6.47094 9.89346 5.51497C9.89346 5.51497 10.0622 6.79531 9.70913 8.0195C10.3996 7.73723 11.6119 6.41481 9.56853 4.375Z" fill="#004000"/>
<path d="M24.7823 0C24.7823 0 24.7962 0.562972 24.1901 1.21016C23.3169 2.10997 23.6825 2.98172 24.401 3.61487C24.401 3.61487 25.0072 2.12401 25.0072 1.16805C25.0072 1.16805 25.0634 2.44838 24.5994 3.64294C25.3181 3.41838 26.6553 2.20822 24.7823 0Z" fill="#004000"/>
<path d="M17.2344 10.9315C17.2344 10.9315 17.7984 10.9877 18.3622 11.677C19.1512 12.647 20.0525 12.4084 20.7712 11.7752C20.7712 11.7752 19.362 10.9877 18.4184 10.8614C18.4184 10.8614 19.7011 10.9736 20.8274 11.5787C20.7009 10.8473 19.6573 9.37049 17.2344 10.9315Z" fill="#004000"/>
<path d="M0 13.2774C0 13.2774 0.562383 13.3335 1.11227 14.0228C1.8871 15.0084 2.8041 14.7682 3.52271 14.135C3.52271 14.135 2.12768 13.3335 1.18257 13.2072C1.18257 13.2072 2.46511 13.3195 3.57894 13.9386C3.4649 13.2072 2.437 11.7304 0 13.2774Z" fill="#004000"/>
<path d="M2.04688 22.7054C2.04688 22.7054 2.48428 22.3389 3.35753 22.4232C4.5979 22.5495 5.06343 21.7339 5.13374 20.7778C5.13374 20.7778 3.58405 21.213 2.83734 21.8041C2.83734 21.8041 3.82306 20.9743 5.03532 20.6095C4.41513 20.1869 2.63894 19.8921 2.04688 22.7054Z" fill="#004000"/>
<path d="M5.99787 25.618C5.99787 25.618 6.57588 24.8444 8.05526 24.6324C10.1548 24.3377 10.5922 22.8187 10.3095 21.214C10.3095 21.214 7.92872 22.5646 6.92737 23.8309C6.92737 23.8309 8.20992 22.0593 10.0845 20.9614C8.88634 20.4966 5.84322 20.7228 5.99787 25.618Z" fill="#004000"/>
<path d="M2.3125 16.6528C2.3125 16.6528 3.32635 16.6948 4.398 17.8769C5.9055 19.5502 7.49736 19.0153 8.73773 17.8208C8.73773 17.8208 6.14451 16.5404 4.44018 16.4141C4.44018 16.4141 6.75063 16.4843 8.82208 17.4683C8.52683 16.1459 6.52568 13.6148 2.3125 16.6528Z" fill="#004000"/>
<path d="M13.615 5.78125C13.615 5.78125 13.4181 6.78088 12.0934 7.65263C10.2047 8.87682 10.4859 10.5361 11.4873 11.9428C11.4873 11.9428 13.1494 9.58014 13.5447 7.90683C13.5447 7.90683 13.1213 10.1712 11.8247 12.0691C13.1635 11.9849 15.9817 10.3957 13.615 5.78125Z" fill="#004000"/>
<path d="M15.4978 12.1523C15.4978 12.1523 15.301 13.152 13.9762 14.0237C12.0875 15.2479 12.3687 16.9072 13.3701 18.3138C13.3701 18.3138 15.0322 15.9513 15.4275 14.2779C15.4275 14.2779 15.0042 16.5422 13.7075 18.4401C15.0463 18.3559 17.8645 16.7668 15.4978 12.1523Z" fill="#004000"/>
<path d="M20.6392 3.16406C20.6392 3.16406 20.9484 4.13406 20.1877 5.52668C19.1177 7.51033 20.1596 8.83277 21.6952 9.57821C21.6952 9.57821 22.0341 6.70876 21.5686 5.06195C21.5686 5.06195 22.2732 7.2577 22.0482 9.5361C23.2042 8.83277 24.9227 6.08965 20.6392 3.16406Z" fill="#004000"/>
<path d="M31.6079 3.11134C31.6079 3.11134 30.6909 3.54644 30.1832 5.05133C29.4646 7.17534 27.7883 7.3313 26.1824 6.72622C26.1824 6.72622 28.0415 4.518 29.5645 3.73045C29.5645 3.73045 27.479 4.71448 25.9699 6.44395C25.7169 5.10904 26.548 1.9854 31.6079 3.11134Z" fill="#004000"/>
<path d="M68.0606 15.8172C68.6613 15.8358 69.1868 15.8453 69.6373 15.8453C70.0878 15.8265 70.4538 15.8172 70.7353 15.8172H71.5519C71.7584 15.7984 72.0117 15.7891 72.312 15.7891C72.5749 15.7891 72.8939 15.7891 73.2694 15.7891C73.6448 15.7891 74.0765 15.7984 74.5645 15.8172C74.7147 16.3419 74.8837 16.8571 75.0713 17.363C75.2778 17.85 75.4562 18.2905 75.6063 18.6838C75.794 19.1523 75.9817 19.5926 76.1694 20.0049C76.357 20.417 76.5823 20.9136 76.8451 21.4944C77.0704 21.9814 77.3426 22.581 77.6616 23.293C77.9808 23.9863 78.3562 24.7826 78.7879 25.6819C78.9944 25.1011 79.182 24.5671 79.3509 24.08C79.5387 23.5928 79.6983 23.1713 79.8295 22.8152C79.9798 22.4031 80.1018 22.0284 80.1956 21.6911C80.2895 21.3539 80.3927 20.9416 80.5054 20.4545C80.5991 20.0423 80.7024 19.5458 80.8151 18.965C80.9465 18.384 81.0779 17.7095 81.2092 16.9413C81.7536 16.9413 82.2416 16.9413 82.6733 16.9413C83.1051 16.9413 83.4805 16.932 83.7995 16.9133C84.1562 16.9133 84.4752 16.9039 84.7569 16.8852C85.0572 16.8852 85.4608 16.8664 85.9676 16.8289C86.3993 16.7915 86.9718 16.7634 87.685 16.7447C88.4171 16.7071 89.318 16.6603 90.388 16.6041C89.9937 16.8852 89.6747 17.1662 89.4307 17.4472C89.2054 17.7095 89.0272 17.9437 88.8957 18.1498C88.7455 18.3935 88.6518 18.6277 88.6141 18.8525C88.5766 19.0399 88.5391 19.4709 88.5015 20.1454C88.4828 20.8199 88.4547 21.6255 88.4171 22.5624C88.3983 23.4804 88.3795 24.4641 88.3608 25.5133C88.3608 26.5626 88.3701 27.5556 88.389 28.4924C88.4076 29.4293 88.4358 30.2443 88.4733 30.9376C88.5297 31.6121 88.6048 32.043 88.6986 32.2303C88.83 32.4552 89.0083 32.7176 89.2336 33.0173C89.4401 33.2797 89.7029 33.5795 90.0219 33.9167C90.3598 34.254 90.8009 34.6287 91.3453 35.0409C90.4818 35.0783 89.7591 35.1064 89.1773 35.1252C88.6141 35.1439 88.145 35.1627 87.7694 35.1814C87.3378 35.2002 86.9905 35.2095 86.7277 35.2095C86.4462 35.2095 86.0614 35.2188 85.5733 35.2376C85.1416 35.2563 84.5691 35.2844 83.8559 35.3219C83.1426 35.3407 82.2229 35.3781 81.0966 35.4344C81.3594 35.1346 81.6034 34.8348 81.8287 34.535C82.054 34.2352 82.2416 33.9635 82.3918 33.72C82.5795 33.4388 82.739 33.1672 82.8704 32.9048C83.0019 32.5489 83.1051 31.9025 83.1801 30.9657C83.2552 30.16 83.3115 29.0076 83.3491 27.5088C83.3866 25.9912 83.3866 23.9582 83.3491 21.41C82.9924 21.9909 82.6733 22.5717 82.3918 23.1525C82.129 23.7146 81.8944 24.2298 81.6879 24.6983C81.4626 25.2416 81.2562 25.7663 81.0684 26.2722C80.8808 26.7968 80.6837 27.3776 80.4772 28.0147C80.2895 28.558 80.0642 29.2044 79.8015 29.9539C79.5574 30.7034 79.2759 31.5277 78.9569 32.4271L77.8869 32.4833C77.7367 31.7339 77.5866 31.0594 77.4363 30.4598C77.2862 29.8414 77.136 29.3169 76.9859 28.8859C76.817 28.3801 76.648 27.9303 76.4791 27.5369C76.2913 27.1434 76.0849 26.7031 75.8597 26.2159C75.6531 25.8037 75.3998 25.3167 75.0995 24.7545C74.818 24.1924 74.4895 23.5647 74.1141 22.8715C73.9263 24.7826 73.8137 26.3377 73.7762 27.5369C73.7387 28.7173 73.7387 29.6354 73.7762 30.2912C73.8137 31.0781 73.87 31.6495 73.9451 32.0056C74.0577 32.324 74.236 32.6801 74.4801 33.0735C74.6866 33.4107 74.9681 33.8136 75.3248 34.282C75.7001 34.7317 76.1788 35.2376 76.7606 35.7997C76.3477 35.7997 75.916 35.7997 75.4655 35.7997C75.0149 35.7997 74.602 35.8091 74.2266 35.8277C73.7762 35.8465 73.3351 35.8559 72.9034 35.8559C72.4528 35.8747 71.9273 35.9028 71.3266 35.9402C70.801 35.9777 70.1723 36.0152 69.4402 36.0526C68.7081 36.0901 67.8635 36.1557 66.9062 36.2494C67.3192 35.987 67.657 35.7342 67.9198 35.4905C68.1826 35.2283 68.3891 34.9941 68.5392 34.7879C68.727 34.5443 68.8677 34.3008 68.9616 34.0572C69.0178 33.9073 69.0648 33.5795 69.1024 33.0735C69.1587 32.5676 69.2056 31.9493 69.2431 31.2186C69.2995 30.488 69.337 29.6728 69.3557 28.7734C69.3932 27.8742 69.4214 26.9655 69.4402 26.0473C69.4777 25.1104 69.5059 24.2017 69.5246 23.3211C69.5434 22.4217 69.5528 21.6161 69.5528 20.9041C69.5716 20.1735 69.581 19.5644 69.581 19.0773C69.581 18.5901 69.581 18.281 69.581 18.1498C69.5246 17.8688 69.4402 17.5878 69.3276 17.3067C69.2338 17.0632 69.0835 16.8102 68.8771 16.548C68.6706 16.2856 68.3985 16.0421 68.0606 15.8172Z" fill="#004000"/>
<path d="M101.473 14.7785C102.487 14.816 103.51 15.0034 104.542 15.3407C105.594 15.6591 106.56 16.1838 107.442 16.9146C108.325 17.6265 109.075 18.5539 109.695 19.6968C110.314 20.8211 110.699 22.1982 110.849 23.8282C110.981 25.1586 110.812 26.4795 110.342 27.791C109.892 29.0839 109.263 30.2736 108.456 31.3603C107.649 32.4471 106.72 33.3745 105.669 34.1427C104.617 34.8923 103.566 35.3887 102.515 35.6324C101.877 35.7822 101.173 35.801 100.404 35.6885C99.6527 35.5573 98.8831 35.3231 98.0947 34.9858C97.3251 34.6299 96.565 34.1802 95.8142 33.6368C95.0821 33.0935 94.4157 32.4752 93.8151 31.7819C93.2144 31.07 92.7076 30.3018 92.2947 29.4773C91.9005 28.653 91.6565 27.791 91.5626 26.8916C91.4687 26.1422 91.4594 25.3179 91.5344 24.4185C91.6283 23.5005 91.8067 22.5916 92.0694 21.6924C92.351 20.7742 92.7358 19.8936 93.2239 19.0505C93.7307 18.1885 94.3689 17.4391 95.1383 16.8021C95.9079 16.1464 96.8089 15.6405 97.8414 15.2844C98.8925 14.9097 100.103 14.7411 101.473 14.7785ZM96.4336 26.161C96.1707 28.1657 96.3585 29.7771 96.9967 30.9951C97.6536 32.2129 98.639 32.953 99.9529 33.2153C100.591 33.3465 101.201 33.2153 101.783 32.8218C102.384 32.4097 102.928 31.8194 103.416 31.0512C103.904 30.283 104.326 29.3837 104.683 28.3532C105.04 27.3226 105.303 26.2453 105.471 25.1211C105.64 23.9969 105.65 22.9851 105.5 22.0857C105.368 21.1677 105.134 20.3901 104.796 19.7531C104.458 19.0974 104.045 18.5914 103.557 18.2355C103.088 17.8794 102.6 17.6826 102.093 17.6452C101.211 17.5891 100.441 17.8233 99.784 18.3478C99.1271 18.8537 98.5734 19.5189 98.1229 20.3433C97.6724 21.1677 97.3064 22.0952 97.0249 23.1256C96.7621 24.1562 96.565 25.1679 96.4336 26.161Z" fill="#004000"/>
<path d="M112.039 15.5905C112.583 15.6842 113.062 15.7498 113.475 15.7873C113.907 15.8247 114.263 15.8528 114.545 15.8716C114.883 15.8903 115.174 15.8996 115.418 15.8996C115.662 15.8996 116.009 15.881 116.46 15.8435C116.835 15.8061 117.323 15.7591 117.924 15.703C118.543 15.6468 119.303 15.553 120.204 15.4219C119.941 15.4968 119.697 15.7123 119.472 16.0683C119.266 16.4055 119.078 16.7709 118.909 17.1644C118.703 17.6328 118.524 18.148 118.374 18.7102C118.243 19.216 118.074 19.9093 117.867 20.7899C117.68 21.6705 117.492 22.6262 117.304 23.6566C117.135 24.6871 117.004 25.7363 116.91 26.8044C116.816 27.8536 116.797 28.8185 116.854 29.6991C116.929 30.5797 117.107 31.3105 117.389 31.8913C117.67 32.4534 118.102 32.7532 118.684 32.7907C119.566 32.8656 120.298 32.875 120.88 32.8188C121.481 32.7439 121.969 32.6408 122.344 32.5097C122.72 32.3785 123.01 32.2285 123.217 32.0599C123.423 31.8726 123.583 31.6945 123.696 31.5259C123.996 31.0951 124.306 30.5423 124.625 29.8678C124.944 29.1932 125.225 28.5469 125.469 27.9285C125.732 27.3102 125.948 26.7856 126.117 26.3547C126.286 25.9238 126.37 25.7177 126.37 25.7363C126.37 25.7738 126.361 25.9893 126.342 26.3827C126.342 26.7576 126.333 27.2165 126.314 27.7599C126.314 28.2845 126.305 28.8372 126.286 29.4181C126.286 29.9989 126.276 30.4955 126.258 30.9076C126.239 31.2449 126.22 31.6196 126.201 32.0319C126.183 32.3878 126.164 32.8095 126.145 33.2965C126.145 33.7838 126.126 34.3178 126.089 34.8986C125.3 34.8423 124.55 34.8048 123.836 34.786C123.123 34.7674 122.494 34.7581 121.95 34.7581C121.312 34.7581 120.72 34.7674 120.176 34.786C119.594 34.8048 118.919 34.833 118.149 34.8704C117.492 34.9079 116.675 34.9547 115.699 35.0109C114.723 35.0484 113.597 35.1046 112.321 35.1795C112.471 34.9172 112.593 34.6737 112.687 34.4488C112.799 34.224 112.884 34.0366 112.94 33.8868C113.015 33.6994 113.062 33.5401 113.081 33.4089C113.194 32.8095 113.287 32.0506 113.362 31.1325C113.438 30.1957 113.494 29.2026 113.531 28.1534C113.588 27.1041 113.616 26.0361 113.616 24.9495C113.635 23.844 113.635 22.8228 113.616 21.8861C113.597 20.9492 113.559 20.1341 113.503 19.4409C113.466 18.7476 113.409 18.2699 113.334 18.0075C113.24 17.7077 113.128 17.4079 112.996 17.1081C112.884 16.8459 112.743 16.5836 112.574 16.3213C112.424 16.0403 112.246 15.7966 112.039 15.5905Z" fill="#004000"/>
<path d="M126.367 16.7734C127.681 16.8109 128.77 16.839 129.633 16.8578C130.515 16.8578 131.229 16.8578 131.773 16.8578H141.656C141.693 17.2325 141.722 17.5979 141.74 17.9538C141.778 18.2912 141.796 18.5909 141.796 18.8532C141.796 19.1718 141.787 19.4621 141.768 19.7245C141.75 19.9868 141.722 20.2678 141.684 20.5676C141.647 20.8299 141.609 21.1109 141.571 21.4107C141.534 21.7105 141.468 22.0196 141.375 22.3382C141.111 21.3265 140.755 20.5583 140.305 20.0336C139.872 19.5091 139.431 19.1249 138.981 18.8813C138.455 18.6003 137.902 18.4504 137.32 18.4317C136.55 18.4692 135.95 18.5348 135.518 18.6285C135.086 18.722 134.748 18.8532 134.504 19.0218C134.26 19.1905 134.072 19.3872 133.941 19.6121C133.828 19.8182 133.706 20.0524 133.575 20.3147C133.462 20.5395 133.359 20.8862 133.265 21.3546C133.171 21.748 133.078 22.282 132.984 22.9565C132.909 23.631 132.824 24.5023 132.73 25.5703C133.237 25.4204 133.641 25.2799 133.941 25.1488C134.26 25.0176 134.514 24.9051 134.701 24.8115C134.908 24.699 135.058 24.596 135.152 24.5023C135.227 24.3899 135.34 24.1838 135.49 23.884C135.602 23.6217 135.752 23.2658 135.94 22.816C136.147 22.3664 136.391 21.748 136.672 20.9611C136.71 21.823 136.728 22.5443 136.728 23.1251C136.728 23.6873 136.738 24.1463 136.757 24.5023C136.757 24.9146 136.766 25.2423 136.785 25.486V26.5539C136.785 26.9474 136.785 27.4814 136.785 28.1559C136.804 28.8118 136.832 29.6454 136.869 30.6573C136.644 29.964 136.437 29.4207 136.25 29.0272C136.081 28.615 135.931 28.3059 135.799 28.0997C135.649 27.8561 135.518 27.6875 135.405 27.5938C135.274 27.5563 135.095 27.5189 134.87 27.4814C134.664 27.4626 134.401 27.4533 134.082 27.4533C133.781 27.4533 133.397 27.5002 132.927 27.5938C132.871 28.6243 132.862 29.4581 132.899 30.0952C132.956 30.7134 133.031 31.1912 133.125 31.5284C133.218 31.922 133.331 32.2031 133.462 32.3717C133.631 32.5403 133.969 32.6808 134.476 32.7932C134.983 32.8869 135.555 32.9244 136.194 32.9056C136.85 32.8681 137.517 32.7558 138.193 32.5683C138.868 32.381 139.469 32.0719 139.995 31.641C140.388 31.2849 140.811 30.8353 141.262 30.2919C141.637 29.8235 142.05 29.2333 142.5 28.5213C142.969 27.8093 143.429 26.9474 143.88 25.9356C143.805 26.7788 143.749 27.4814 143.711 28.0435C143.692 28.5869 143.664 29.0272 143.626 29.3644C143.588 29.7579 143.56 30.0577 143.542 30.2638C143.542 30.4887 143.514 30.8072 143.457 31.2193C143.42 31.5754 143.354 32.0624 143.261 32.6808C143.185 33.2804 143.082 34.0485 142.951 34.9853C142.069 35.0041 141.234 35.0228 140.446 35.0416C139.656 35.0416 138.962 35.0509 138.361 35.0697C137.648 35.0884 136.991 35.1072 136.391 35.126C135.771 35.126 135.086 35.154 134.335 35.2102C133.678 35.2477 132.899 35.3039 131.998 35.3789C131.116 35.4538 130.14 35.5568 129.07 35.688C129.164 34.4139 129.23 33.2148 129.267 32.0906C129.324 30.9477 129.361 29.9452 129.38 29.0834C129.399 28.0717 129.399 27.1348 129.38 26.2729C129.474 24.1182 129.436 22.3757 129.267 21.0453C129.098 19.7151 128.901 18.8627 128.676 18.4878C128.563 18.3567 128.404 18.1975 128.197 18.0101C128.028 17.8602 127.794 17.6822 127.493 17.4761C127.193 17.27 126.818 17.0358 126.367 16.7734Z" fill="#004000"/>
<path d="M144.328 15.8719C144.929 16.0217 145.501 16.1341 146.045 16.2092C146.589 16.2841 147.068 16.3403 147.482 16.3778C147.969 16.4339 148.42 16.4527 148.832 16.4339C149.358 16.4339 150.015 16.3871 150.804 16.2934C151.611 16.1997 152.437 16.1155 153.281 16.0405C154.126 15.9468 154.933 15.8906 155.703 15.8719C156.491 15.8343 157.13 15.8813 157.618 16.0124C158.105 16.1248 158.603 16.3027 159.109 16.5464C159.635 16.7712 160.114 17.0616 160.546 17.4177C160.977 17.7549 161.334 18.1578 161.616 18.6262C161.898 19.0758 162.057 19.591 162.094 20.172C162.075 20.9026 161.906 21.5866 161.588 22.2236C161.324 22.7669 160.884 23.3291 160.264 23.9099C159.645 24.472 158.754 24.9028 157.589 25.2026C158.172 25.2775 158.668 25.4087 159.081 25.5961C159.514 25.7648 159.879 25.9708 160.179 26.2144C160.499 26.4393 160.753 26.6923 160.939 26.9733C161.146 27.2543 161.306 27.5354 161.418 27.8164C161.7 28.4722 161.831 29.2029 161.813 30.0085C161.7 31.0579 161.485 31.8916 161.165 32.5099C160.864 33.1282 160.518 33.6059 160.123 33.9432C159.729 34.2804 159.325 34.5147 158.913 34.6458C158.5 34.777 158.124 34.88 157.787 34.955C157.449 35.03 157.036 35.0675 156.548 35.0675C156.06 35.0675 155.534 35.0581 154.97 35.0393C154.426 35.0019 153.863 34.9738 153.281 34.955C152.699 34.9175 152.146 34.9175 151.621 34.955C151.189 34.9925 150.663 35.03 150.043 35.0675C149.517 35.1049 148.862 35.1517 148.072 35.208C147.284 35.2454 146.365 35.2923 145.313 35.3485C145.519 35.1986 145.69 35.03 145.821 34.8426C145.97 34.6365 146.093 34.4585 146.186 34.3086C146.28 34.1213 146.365 33.9432 146.44 33.7746C146.496 33.6247 146.543 33.2126 146.581 32.5381C146.619 31.8634 146.647 31.0579 146.665 30.121C146.684 29.1654 146.693 28.1443 146.693 27.0575C146.712 25.9522 146.702 24.8935 146.665 23.8817C146.647 22.8512 146.609 21.9425 146.552 21.1556C146.515 20.3499 146.458 19.7691 146.383 19.4131C146.271 19.0196 146.121 18.6167 145.932 18.2046C145.783 17.8485 145.567 17.4645 145.285 17.0523C145.023 16.64 144.703 16.2466 144.328 15.8719ZM150.269 18.7386C150.269 18.8135 150.278 19.0665 150.297 19.4973C150.315 19.8722 150.335 20.453 150.353 21.2398C150.391 22.008 150.438 23.1042 150.494 24.5281C150.964 24.7342 151.423 24.8467 151.874 24.8654C152.324 24.8654 152.727 24.8467 153.084 24.8092C153.497 24.753 153.892 24.6593 154.267 24.5281C154.774 24.322 155.168 23.9848 155.449 23.5164C155.75 23.0479 155.947 22.5609 156.04 22.055C156.153 21.5303 156.181 21.0431 156.125 20.5935C156.07 20.125 155.947 19.7878 155.76 19.5817C155.403 19.2632 154.962 19.0009 154.436 18.7948C153.986 18.6262 153.414 18.5137 152.719 18.4576C152.042 18.3825 151.226 18.4762 150.269 18.7386ZM150.128 32.0602C150.823 32.4162 151.433 32.6504 151.959 32.7628C152.483 32.8753 152.925 32.9314 153.281 32.9314C153.694 32.9314 154.051 32.8753 154.351 32.7628C154.708 32.5942 155.055 32.3694 155.393 32.0883C155.75 31.7885 156.012 31.4419 156.181 31.0484C156.37 30.6363 156.445 30.1866 156.407 29.6994C156.37 29.1935 156.153 28.6409 155.76 28.0413C155.403 27.6103 154.97 27.2731 154.464 27.0295C154.013 26.8234 153.441 26.6923 152.747 26.636C152.07 26.5798 151.236 26.7391 150.241 27.1138L150.128 32.0602Z" fill="#004000"/>
<path d="M163.25 16.6046C163.889 16.6796 164.423 16.7357 164.856 16.7732C165.306 16.792 165.672 16.8201 165.953 16.8576C166.291 16.895 166.555 16.9138 166.742 16.9138C166.948 16.9325 167.258 16.9232 167.671 16.8857C168.028 16.8482 168.506 16.8013 169.107 16.7452C169.727 16.6889 170.515 16.6046 171.472 16.4922C171.041 16.8669 170.694 17.2323 170.43 17.5883C170.186 17.9256 169.999 18.2254 169.868 18.4876C169.698 18.8062 169.594 19.106 169.557 19.387C169.483 19.8367 169.417 20.455 169.36 21.2418C169.322 22.0101 169.285 22.8532 169.247 23.7714C169.211 24.6894 169.191 25.6356 169.191 26.6099C169.191 27.5842 169.201 28.5117 169.219 29.3923C169.257 30.2542 169.314 31.0223 169.388 31.6968C169.483 32.3715 169.594 32.8585 169.727 33.1583C169.914 33.4956 170.11 33.8328 170.317 34.1701C170.505 34.4511 170.73 34.7416 170.993 35.0414C171.256 35.3411 171.557 35.5847 171.895 35.7721C170.787 35.7159 169.904 35.6877 169.247 35.6877H168.234C167.934 35.6877 167.549 35.7065 167.079 35.744C166.686 35.7814 166.188 35.8189 165.588 35.8564C164.987 35.8938 164.264 35.9501 163.419 36.025C163.851 35.5566 164.189 35.1069 164.433 34.676C164.677 34.245 164.874 33.8703 165.024 33.5518C165.193 33.1771 165.306 32.8211 165.362 32.4838C165.437 31.9966 165.493 31.3972 165.531 30.6851C165.588 29.9544 165.626 29.1768 165.644 28.3524C165.662 27.5093 165.662 26.6567 165.644 25.7949C165.644 24.9143 165.626 24.0712 165.588 23.2655C165.55 22.4598 165.493 21.7291 165.419 21.0732C165.362 20.4175 165.287 19.8928 165.193 19.4993C165.137 19.2558 165.024 18.9841 164.856 18.6843C164.705 18.422 164.498 18.1223 164.236 17.7849C163.992 17.429 163.663 17.0355 163.25 16.6046Z" fill="#004000"/>
<path d="M102.093 38.9395C102.093 39.5056 101.634 39.9647 101.066 39.9647C100.499 39.9647 100.039 39.5056 100.039 38.9395C100.039 38.3732 100.499 37.9141 101.066 37.9141C101.634 37.9141 102.093 38.3732 102.093 38.9395Z" fill="#004000"/>
<path d="M137.554 38.9395C137.554 39.5056 137.094 39.9647 136.527 39.9647C135.96 39.9647 135.5 39.5056 135.5 38.9395C135.5 38.3732 135.96 37.9141 136.527 37.9141C137.094 37.9141 137.554 38.3732 137.554 38.9395Z" fill="#004000"/>
<path d="M100.164 10.2969L103.048 13.1753M137.919 10.2969L135.035 13.1753M169.639 10.2969L166.756 13.1753" stroke="#004000" stroke-width="6.25971"/>
</g>
<defs>
<clipPath id="clip0_808_6577">
<rect width="172" height="50.2676" fill="white"/>
</clipPath>
</defs>
</svg>
