<svg width="389" height="417" viewBox="0 0 389 417" fill="none" xmlns="http://www.w3.org/2000/svg">
<path fill-rule="evenodd" clip-rule="evenodd" d="M12.2307 328.89C10.5773 294.426 80.0285 283.411 114.975 258.499C140.943 239.988 153.652 209.784 187.966 203.618C223.711 197.194 254.307 214.948 284.601 228.018C321.244 243.827 371.248 254.175 378.317 285.743C385.534 317.964 352.552 350.946 317.073 373.014C287.346 391.505 247.486 388.992 209.985 390.448C178.344 391.676 149.198 389.46 120.834 380.631C79.2992 367.701 13.8666 362.988 12.2307 328.89Z" fill="#FFEAD9"/>
<g clip-path="url(#clip0_1080_10746)">
<path d="M214.949 134.368L215.102 134.581C216.051 135.927 216.451 137.886 217.767 138.812L218.101 138.716L218.574 138.834L219.083 140.759C219.48 142.162 218.991 144.488 218.574 145.88L218.206 145.961L215.006 136.39C214.819 135.955 214.953 134.877 214.949 134.367V134.368Z" fill="#239C46"/>
<path d="M219.383 73.9922C220.363 74.3293 220.999 75.8415 221.657 76.6888C223.984 79.6799 227.48 82.6278 231.441 82.7406C232.208 82.7622 233.145 82.8364 233.865 82.5307L234 82.4597L234.301 82.2138L234.248 83.2423C234.846 83.6572 235.673 84.4038 236.354 84.612L234.909 101.413C234.87 102.401 234.74 103.468 234.84 104.449L234.741 104.469L231.678 104.404C230.945 104.293 230.496 104.102 229.86 103.725C226.137 97.1278 223.036 89.8708 221.084 82.5541C220.328 79.7217 219.647 76.9167 219.384 73.9926L219.383 73.9922Z" fill="#478B37"/>
<path d="M231.688 104.4C232.395 103.31 232.838 93.6742 233.042 91.7701C233.349 88.9237 233.689 86.045 234.257 83.2383C234.856 83.6532 235.683 84.3998 236.364 84.6079L234.919 101.409C234.879 102.397 234.75 103.464 234.85 104.445L234.75 104.465L231.688 104.4H231.688Z" fill="#3AAA43"/>
<path d="M249.333 123.335C249.557 123.676 249.731 123.932 250.059 124.185C250.929 124.854 252.361 125.287 253.393 125.634C257.665 127.07 262.268 127.935 266.725 128.574C273.204 129.503 279.561 129.705 286.068 128.795C289.536 128.31 292.851 127.379 296.188 126.354C310.877 121.843 323.099 113.404 334.418 103.247L339.622 98.5992C340.243 98.0359 341.292 96.8429 342.124 96.6914C338.837 102.375 334.804 107.663 330.539 112.647C327.304 116.429 323.967 120.146 320.285 123.504C310.753 132.198 299.032 139.129 286.513 142.469C274.416 145.698 259.255 145.891 248.136 139.378C245.734 137.972 243.498 135.955 241.889 133.686C241.691 133.406 240.482 131.543 240.337 131.512C240.239 131.491 240.139 131.548 240.039 131.567L239.797 131.36C240.776 130.594 241.662 129.539 242.595 128.696C244.757 126.74 246.928 124.991 249.332 123.336L249.333 123.335Z" fill="#0E772E"/>
<path d="M252.271 78.0404C254.347 75.6602 256.107 72.9865 257.855 70.3627C261.736 64.5365 265.315 58.2995 267.58 51.6498C269.439 46.1918 270.581 40.5415 272.042 34.9729C274.662 24.9851 279.159 16.2915 285.656 8.26499C287.245 6.30196 289.154 3.93212 291.216 2.48199C291.811 2.06394 292.323 1.66882 293.071 1.59375C288.108 9.21706 283.307 17.3955 281.265 26.3458C279.139 35.666 280.715 44.9723 280.098 54.3869C279.382 65.3124 274.409 75.3352 267.006 83.3199C263.049 87.5885 258.385 91.1558 253.606 94.4463C247.958 98.3341 242.158 101.665 235.921 104.524L234.842 104.445C234.742 103.464 234.872 102.396 234.911 101.409L236.356 84.6082L236.659 82.8214C240.278 82.5872 244.255 81.2229 247.596 79.8658C249.078 79.2644 250.683 78.2062 252.271 78.0404H252.271Z" fill="#0E772E"/>
<path d="M236.654 82.8201C240.273 82.5859 244.25 81.2216 247.592 79.8645C249.073 79.2631 250.679 78.2049 252.267 78.0391C247.452 84.4649 241.884 90.3584 237.356 97.0059C236.534 98.2133 235.374 99.5906 235.013 101.01L234.945 101.258L234.906 101.407L236.352 84.6065L236.654 82.8196V82.8201Z" fill="#478B37"/>
<path d="M229.856 103.727C230.492 104.105 230.941 104.295 231.675 104.406L234.737 104.471L234.836 104.452L235.915 104.531L232.018 116.438C229.471 125.02 227.613 133.727 226.295 142.572C225.608 145.241 225.147 148.383 225.069 151.13C229.092 144.177 233.237 136.303 239.794 131.366L240.036 131.573C234.838 137.717 230.371 144.72 226.745 151.887C225.953 153.451 224.86 155.374 224.467 157.082C224.212 158.192 224.328 159.498 224.283 160.644C224.03 167.14 224.21 173.744 224.76 180.219C225.576 189.814 227.012 199.43 229.152 208.821C229.686 211.162 230.126 213.644 230.874 215.923C230.957 216.28 231.014 216.921 231.186 217.225L233.656 227.823C234.015 229.311 235.076 231.728 234.848 233.157C234.051 233.896 232.811 234.013 231.773 234.129C231.164 233.956 230.429 234.017 229.794 234.011C226.397 233.308 222.807 232.698 219.814 230.839C219.49 230.637 218.939 230.322 218.733 229.992C218.393 229.451 218.241 228.311 218.111 227.672L216.845 220.637C213.843 203.378 213.13 185.62 214.814 168.183L216.266 157.398L217.476 151.012C217.807 149.457 218.428 147.545 218.196 145.962L218.564 145.881C218.981 144.489 219.47 142.164 219.073 140.76L229.857 103.727L229.856 103.727Z" fill="#8EBC49"/>
<path d="M234.745 104.465L234.845 104.445L235.924 104.524L232.026 116.432C229.48 125.013 227.621 133.72 226.304 142.565C225.616 145.235 225.155 148.377 225.077 151.123C229.1 144.17 233.245 136.297 239.802 131.36L240.045 131.567C234.847 137.71 230.379 144.714 226.753 151.88C225.962 153.445 224.868 155.368 224.476 157.075C224.221 158.186 224.336 159.491 224.292 160.637C224.039 167.133 224.218 173.738 224.768 180.213C225.584 189.808 227.02 199.424 229.161 208.815C229.694 211.155 230.135 213.637 230.882 215.916C230.965 216.274 231.023 216.915 231.195 217.219L233.664 227.817C234.023 229.305 235.085 231.722 234.856 233.151C234.059 233.89 232.82 234.007 231.781 234.122C231.172 233.949 230.437 234.011 229.802 234.004L227.505 223.471C225.233 213.617 222.892 203.649 221.823 193.58C221.173 187.461 221.226 181.445 221.301 175.309C221.39 167.95 221.549 160.601 222.322 153.275C223.131 145.609 224.629 138.014 226.377 130.509C227.812 124.342 229.55 118.214 231.652 112.242C232.202 110.678 232.864 109.182 233.546 107.673C233.992 106.686 234.517 105.702 234.718 104.63L234.746 104.465L234.745 104.465Z" fill="#478B37"/>
<path d="M219.381 73.9882C219.077 72.8271 219.157 71.3019 219.129 70.0959C218.927 61.4994 221.357 52.3302 225.372 44.7581C235.77 25.1494 256.331 12.149 276.808 4.98375L287.259 1.77017C289.554 1.16648 291.87 0.74618 294.144 0.0507812C293.879 0.604133 293.438 1.10264 293.066 1.59396C292.319 1.66903 291.807 2.06415 291.212 2.4822C289.15 3.93234 287.241 6.30217 285.652 8.2652C279.155 16.2917 274.658 24.9853 272.038 34.9731C270.577 40.5417 269.435 46.1921 267.576 51.6501C265.311 58.2997 261.732 64.5367 257.85 70.3629C256.103 72.9862 254.343 75.6604 252.267 78.0406C250.678 78.2064 249.072 79.2646 247.591 79.8661C244.25 81.2231 240.273 82.5874 236.654 82.8216L236.351 84.6084C235.67 84.4003 234.843 83.6537 234.245 83.2388L234.298 82.2103L233.997 82.4562L233.862 82.5272C233.142 82.8328 232.205 82.7587 231.438 82.7371C227.477 82.6243 223.981 79.6764 221.655 76.6853C220.996 75.838 220.36 74.3258 219.38 73.9887L219.381 73.9882Z" fill="#239C46"/>
<path d="M245.304 53.3297L260.688 38.8594L249.834 54.6751C248.779 55.9755 247.499 57.1366 246.307 58.3112C245.068 59.5321 243.685 61.1355 242.047 61.8021L243.885 56.6332C244.306 55.5251 244.675 54.3388 245.304 53.3292V53.3297Z" fill="#5BC550"/>
<path d="M233.211 51.668C233.297 50.4211 233.847 49.0788 234.291 47.9159C236.096 43.1861 239.335 37.9533 242.708 34.168C240.697 40.12 239.416 46.4446 240.08 52.7423C240.143 53.3447 240.108 54.4644 240.318 54.9881L240.493 55.2785L235.803 68.4627C234.883 65.3166 234.195 62.2289 233.752 58.9816C233.552 57.5103 233.554 56.0251 233.529 54.5435C233.513 53.5865 233.689 52.5014 233.211 51.6671L233.211 51.668Z" fill="#5BC550"/>
<path d="M234.013 82.4548C232.323 80.695 230.303 79.1163 228.861 77.1402C226.148 73.4223 224.493 68.986 225.271 64.3313C226.024 59.8285 227.593 56.1551 229.612 52.0938C230.065 52.8777 230.224 54.1251 230.439 55.007C230.875 56.7966 231.356 58.5101 232.187 60.1607C232.192 58.8998 232.14 57.6277 232.418 56.3911C232.466 60.3689 232.484 64.7363 233.646 68.5806C233.862 69.2971 234.116 70.0487 234.432 70.7279C234.705 71.3141 235.234 71.9726 235.319 72.6096C235.406 73.2578 235.172 74.1581 235.11 74.8203C234.882 77.2409 234.802 79.8315 234.314 82.2085L234.012 82.4544L234.013 82.4548Z" fill="#5BC550"/>
<path d="M240.49 55.2785C242.277 50.9865 244.753 46.8591 247.31 42.9843C253.539 33.5467 261.003 25.2838 269.649 17.9922L269.893 18.0744C262.102 25.0424 255.243 33.3017 250.251 42.5028C248.372 45.9659 246.827 49.7005 245.296 53.333C244.668 54.3426 244.299 55.5289 243.877 56.6369L242.04 61.8059L236.658 82.8234L236.355 84.6102C235.674 84.4021 234.847 83.6554 234.249 83.2405L234.302 82.212C234.791 79.8345 234.87 77.244 235.099 74.8238C235.161 74.1617 235.394 73.2613 235.307 72.6131C235.222 71.9757 234.694 71.3176 234.421 70.7314C234.104 70.0522 233.851 69.3006 233.634 68.5841C232.473 64.7399 232.454 60.3724 232.406 56.3946C232.439 54.833 232.833 53.1842 233.208 51.6684C233.686 52.5027 233.51 53.5874 233.526 54.5449C233.551 56.0265 233.548 57.5117 233.749 58.9829C234.191 62.2302 234.88 65.3184 235.8 68.4641L240.49 55.2798L240.49 55.2785Z" fill="#8EBC49"/>
<path d="M239.469 119.064C241.133 112.385 243.348 106.558 247.982 101.315C251.501 97.3332 256.069 93.9969 260.853 91.6805C272.91 85.8431 286.305 86.8365 299.076 89.3997L319.092 93.6817C327.087 95.0442 335.234 95.3773 343.322 94.8685L342.13 96.698C341.298 96.8495 340.248 98.0425 339.628 98.6057L334.424 103.253C323.104 113.41 310.883 121.85 296.193 126.361C292.856 127.386 289.541 128.317 286.074 128.802C279.567 129.712 273.21 129.509 266.731 128.58C262.274 127.941 257.67 127.076 253.398 125.64C252.366 125.293 250.935 124.86 250.065 124.191C249.736 123.939 249.563 123.682 249.338 123.342C246.934 124.997 244.763 126.745 242.601 128.702C241.668 129.545 240.782 130.6 239.803 131.366C233.246 136.302 229.101 144.176 225.078 151.129C225.156 148.382 225.617 145.241 226.304 142.571C227.796 140.71 228.941 138.551 230.425 136.653C233.062 133.283 236.091 130.546 239.123 127.556C238.628 124.634 238.882 121.942 239.469 119.064V119.064Z" fill="#239C46"/>
<path d="M250.028 119.541C260.847 113.019 272.614 107.704 285.214 105.784C289.236 105.172 293.492 105.053 297.559 105.01C303.729 104.945 310.252 105.641 316.337 104.699L320.719 103.812L321.492 103.574L321.396 103.773L321.046 103.881C313.72 106.499 305.992 106.895 298.316 107.658C283.921 109.087 270.237 111.745 257.316 118.524L250.976 122.239C250.527 122.523 249.672 122.941 249.338 123.332C246.934 124.986 244.763 126.735 242.601 128.692C241.668 129.535 240.782 130.59 239.803 131.356C233.246 136.292 229.101 144.166 225.078 151.119C225.156 148.372 225.617 145.23 226.304 142.561C227.796 140.7 228.941 138.541 230.425 136.643C233.062 133.272 236.091 130.536 239.123 127.545C238.628 124.624 238.882 121.932 239.469 119.054L244.836 119.327C246.494 119.336 248.429 119.119 250.028 119.542V119.541Z" fill="url(#paint0_linear_1080_10746)"/>
<path d="M239.468 119.062L244.835 119.335C246.493 119.344 248.428 119.128 250.027 119.55L239.122 127.554C238.627 124.633 238.881 121.941 239.468 119.063V119.062Z" fill="#478B37"/>
<path d="M281.997 93.0903L287.549 93.329C291.16 93.8365 294.61 94.8173 297.929 96.3344C299.475 97.0411 300.908 98.0026 302.546 98.4831L302.78 98.5487C298.129 99.8168 293.469 100.728 288.946 102.473C287.401 103.07 285.912 103.791 284.447 104.561C283.632 104.988 282.83 105.567 281.958 105.857C280.283 106.412 278.443 106.627 276.721 107.033C271.75 108.204 267.167 109.692 262.751 112.267C262.493 112.358 262.338 112.344 262.069 112.336C262.678 107.691 267.271 103.671 270.604 100.727L255.867 107.202C261.545 99.9153 268.736 95.2628 277.844 93.5101C279.219 93.2454 280.602 93.1797 281.997 93.0898V93.0903Z" fill="#5BC550"/>
<path d="M215.013 136.386C206.087 136.736 197.389 135.637 189.099 132.174C184.213 130.134 179.639 127.415 175.707 123.853C170.488 119.126 166.197 112.405 163.551 105.92C161.025 99.7285 159.509 93.4011 158.185 86.8737C157.515 83.5725 156.788 80.1328 156.617 76.7669C156.475 73.9623 156.744 71.2194 157.015 68.4356C157.727 61.1197 159.186 53.2968 162.063 46.5078C167.403 55.8128 175.342 64.0285 184.584 69.5189C187.253 71.1043 190.111 72.403 192.897 73.7708C199.267 76.8995 205.569 80.1539 210.617 85.2474C218.365 93.0671 220.84 104.013 220.82 114.65C220.72 118.989 220.296 123.188 219.462 127.45C219.007 129.779 218.563 132.209 217.072 134.128C217.663 135.619 218.305 137.252 218.581 138.83L218.108 138.712L217.774 138.808C216.457 137.881 216.057 135.923 215.109 134.577L214.955 134.364C214.959 134.874 214.825 135.951 215.013 136.386V136.386Z" fill="url(#paint1_linear_1080_10746)"/>
<path d="M220.804 114.652C220.704 118.992 220.281 123.191 219.447 127.453C218.991 129.782 218.547 132.211 217.056 134.131C217.648 135.621 218.289 137.255 218.565 138.833L218.092 138.715L217.758 138.811C216.442 137.884 216.042 135.926 215.093 134.58L214.94 134.366L209.957 122.841L209.329 121.173L209.219 120.719C208.947 120.197 208.814 119.967 208.693 119.364L209.065 119.258L207.688 116.28L207.881 116.132C208.829 117.249 209.445 118.749 210.133 120.04L213.288 125.569C215.472 123.747 217.707 121.483 218.853 118.846C219.362 117.677 219.675 115.816 220.547 114.907L220.805 114.653L220.804 114.652Z" fill="#0E772E"/>
<path d="M209.075 119.254C210.021 120.46 210.777 122.172 211.493 123.536L215.063 130.358C215.699 131.637 216.155 133.008 217.066 134.127C217.657 135.618 218.299 137.251 218.575 138.829L218.102 138.711L217.768 138.807C216.452 137.88 216.051 135.922 215.103 134.576L214.949 134.363L209.967 122.837L209.339 121.17L209.229 120.716C208.957 120.193 208.824 119.964 208.703 119.36L209.075 119.254V119.254Z" fill="#3AAA43"/>
<path d="M208.706 119.364C207.753 118.289 206.927 117.071 206.014 115.958L201.261 110.632L186.623 95.7575C183.24 92.0827 180.074 88.0389 177.202 83.9546C173.936 79.3089 171.203 74.464 168.806 69.3238C168.493 68.6536 167.67 67.3577 167.794 66.6641C172.609 76.1111 178.547 84.0346 186.379 91.2201C190.044 94.5829 193.934 97.5933 197.28 101.296C201.414 105.872 204.432 111.108 207.701 116.28L209.078 119.258L208.707 119.364H208.706Z" fill="#5BC550"/>
<path d="M184.562 77.8594C191.514 79.4097 197.079 82.1599 201.137 88.2769C204.493 93.337 204.875 99.6819 203.747 105.481L203.515 106.052L203.299 105.963C202.885 105.71 202.385 104.985 202.047 104.619L198.843 101.223C196.852 99.1434 194.681 97.1966 192.771 95.0461C190.316 92.2811 187.721 88.6082 186.354 85.1856C185.422 82.8548 184.906 80.3416 184.563 77.8598L184.562 77.8594Z" fill="#5BC550"/>
<path d="M382.8 283.02C385.759 285.647 388.637 288.836 388.95 292.965C389.201 296.289 387.433 299.67 385.263 302.092C375.141 313.391 350.89 316.301 336.479 318.098C329.381 318.983 321.936 319.563 315.057 321.573C306.878 323.964 299.379 328.301 291.735 331.974C278.014 338.568 262.866 341.884 247.7 342.6C243.801 342.784 239.919 342.606 236.031 342.343C225.762 341.647 215.54 339.785 205.883 336.178C197.652 333.104 190.023 329.426 181.275 327.882C174.911 326.758 168.562 326.123 162.099 325.941L130.058 325.93C118.492 325.455 106.314 323.409 95.7026 318.719C91.2298 316.742 86.8819 314.214 83.2722 310.892C79.1393 307.089 75.6567 302.499 75.4751 296.673C75.3417 292.377 77.3212 288.755 80.0173 285.563C80.5158 286.239 80.3625 287.089 80.4621 287.913C80.5541 288.676 80.7763 289.435 81.0552 290.151C84.3724 298.666 94.5294 304.046 102.501 307.438C108.229 309.875 114.163 311.42 120.229 312.745C132.651 315.46 144.996 316.55 157.685 316.898C166.066 317.127 174.567 316.971 182.897 317.983C197.847 319.799 212.235 324.359 227.058 326.861C238.813 328.845 250.849 329.226 262.575 326.871C267.472 325.887 272.17 324.292 276.628 322.04C280.82 319.922 284.789 317.294 288.758 314.796C292.676 312.331 296.52 309.879 300.794 308.048C304.111 306.626 307.638 305.722 311.166 305.007C318.548 303.512 326.056 303.523 333.543 303.187C341.061 302.849 348.426 301.932 355.775 300.305C359.834 299.406 363.904 298.354 367.761 296.787C374.694 293.972 379.855 290.021 382.8 283.02L382.8 283.02Z" fill="#A27238"/>
<path d="M230.888 215.916C232.912 214.821 235.318 213.639 237.581 213.16L237.885 213.094C240.334 212.601 242.464 213.498 244.453 214.864C245.573 215.634 246.758 216.468 247.695 217.458C251.401 220.339 254.808 224.039 258.929 226.323C261.056 227.501 263.623 227.389 265.64 228.837C268.592 230.956 270.057 234.65 273.047 236.612C275.604 238.29 278.809 238.594 281.236 240.615C283.31 242.342 284.026 244.611 285.147 246.949C286.187 249.119 287.718 251.221 289.657 252.681C312.735 255.056 335.219 260.395 356.752 268.974C365.801 272.579 375.221 276.833 382.807 283.024C379.862 290.025 374.7 293.976 367.768 296.792C363.91 298.358 359.841 299.41 355.782 300.309C348.432 301.937 341.067 302.853 333.549 303.191C326.062 303.528 318.555 303.516 311.173 305.012C307.644 305.726 304.117 306.631 300.8 308.052C296.526 309.884 292.682 312.335 288.764 314.801C284.794 317.298 280.826 319.927 276.634 322.044C272.176 324.296 267.478 325.891 262.581 326.875C250.855 329.231 238.819 328.849 227.065 326.866C212.241 324.363 197.852 319.803 182.903 317.987C174.573 316.975 166.073 317.132 157.691 316.902C145.002 316.554 132.657 315.464 120.235 312.75C114.169 311.424 108.236 309.88 102.508 307.442C94.5351 304.05 84.3786 298.671 81.0614 290.155C80.7824 289.44 80.5602 288.681 80.4683 287.917C80.3687 287.093 80.5219 286.243 80.0234 285.568C80.4859 284.868 81.3264 284.168 81.9295 283.564C84.6868 280.807 87.967 278.609 91.3067 276.618C97.2632 273.067 103.526 270.281 109.972 267.755C122.331 262.912 135.317 259.495 148.334 256.882L159.664 254.75C162.053 254.333 164.489 254.019 166.849 253.469L167.066 253.417C167.979 252.418 168.914 251.379 169.996 250.556C171.407 249.484 173.081 248.703 174.585 247.761C176.243 246.722 177.728 245.502 179.124 244.136C181.035 242.267 182.715 240.135 184.38 238.05C185.787 236.285 187.386 234.075 189.429 233.016C191.482 231.952 194.062 231.977 196.319 231.732C201.028 231.219 205.73 229.632 209.633 226.94C212.288 225.108 214.551 222.866 216.859 220.632L218.125 227.667C218.255 228.306 218.408 229.446 218.747 229.987C218.953 230.317 219.504 230.632 219.829 230.834C222.821 232.692 226.412 233.303 229.808 234.005C230.443 234.012 231.178 233.951 231.787 234.124C232.826 234.008 234.065 233.891 234.862 233.152C235.091 231.723 234.029 229.305 233.67 227.818L231.201 217.22C231.029 216.917 230.971 216.276 230.888 215.917L230.888 215.916Z" fill="#B28445"/>
<path d="M279.872 303.676C280.776 303.741 281.7 303.767 282.401 304.409C282.85 304.821 282.967 304.894 282.976 305.491C282.396 306.007 281.932 306.167 281.189 306.375C279.851 306.337 278.763 306.431 277.723 305.504C277.668 305.046 277.616 304.922 277.902 304.523C278.334 303.923 279.196 303.796 279.872 303.676H279.872Z" fill="#6B4824"/>
<path d="M355.925 288.425C356.554 288.395 357.12 288.427 357.744 288.519L358.055 288.567L358.855 288.705C359.564 288.887 359.958 289.2 360.292 289.819C359.906 290.37 359.48 290.51 358.881 290.752L357.972 290.847C356.641 290.956 355.5 290.891 354.445 290.009L354.472 289.347C354.895 288.85 355.343 288.675 355.925 288.425L355.925 288.425Z" fill="#A27238"/>
<path d="M148.113 299.156C148.457 299.072 148.705 299.057 149.058 299.059C149.755 299.063 150.827 299.284 151.265 299.918C151.592 300.392 151.524 300.615 151.469 301.156C151.114 301.662 150.79 301.869 150.251 302.164C149.413 302.275 148.234 302.297 147.552 301.728C146.946 301.225 146.892 300.959 146.883 300.204C147.266 299.645 147.509 299.467 148.113 299.156V299.156Z" fill="#6B4824"/>
<path d="M102.294 287.708C102.994 287.747 103.965 287.711 104.594 288.041C105.088 288.301 105.452 288.618 105.631 289.154L105.44 289.44C104.683 289.902 103.999 290 103.142 290.14C101.749 290.145 100.228 290.237 99.1328 289.249L99.1986 288.678C100.13 287.86 101.113 287.828 102.294 287.707V287.708Z" fill="#DCAF5D"/>
<path d="M245.376 317.975C246.012 317.932 246.632 317.942 247.265 318.008C248.483 318.134 249.111 318.343 249.905 319.321L249.791 319.719C249.324 320.075 248.836 320.285 248.304 320.518L247.913 320.536C246.429 320.601 244.995 320.734 243.824 319.668C243.685 319.253 243.687 319.225 243.813 318.806C244.336 318.283 244.657 318.14 245.376 317.976V317.975Z" fill="#DCAF5D"/>
<path d="M335.298 268.661C336.597 268.728 338.565 268.711 339.635 269.488C340.053 269.792 340.021 269.921 340.094 270.4C339.354 271.357 338.43 271.45 337.302 271.614L335.833 271.597C334.471 271.476 333.336 271.398 332.421 270.304C332.426 269.914 332.348 269.811 332.614 269.496C333.222 268.775 334.423 268.762 335.298 268.66V268.661Z" fill="#DCAF5D"/>
<path d="M143.109 269.317C144.012 267.554 145.42 265.822 147.169 264.849C147.921 264.431 148.911 264.144 149.757 264.478C151.431 265.139 152.22 267.239 152.963 268.741L152.652 269.32L149.288 267.732C147.131 267.008 145.307 268.335 143.462 269.161L143.109 269.317Z" fill="#478B37"/>
<path d="M143.116 269.317L143.468 269.161C145.314 268.335 147.137 267.008 149.294 267.732L152.658 269.32C152.418 269.945 152.059 270.532 151.432 270.83C151.093 270.991 150.751 271.045 150.382 271.095L142.219 271.264C142.447 270.552 142.745 269.965 143.115 269.317L143.116 269.317Z" fill="#0E772E"/>
<path d="M122.087 297.988C123.233 298.017 124.331 298.007 125.391 298.494L125.687 298.636C126.702 299.108 127.661 299.653 128.147 300.717L128.232 300.915C128.32 301.107 128.415 301.284 128.47 301.49C128.693 302.329 128.593 303.26 128.166 304.013C127.302 305.54 126.026 306.075 124.409 306.536C122.666 306.611 121.112 306.479 119.616 305.52C118.585 304.86 117.683 303.753 117.482 302.52C117.324 301.548 117.461 300.636 118.095 299.865C119.199 298.522 120.434 298.173 122.087 297.988H122.087Z" fill="#6B4824"/>
<path d="M123.174 298.918C124.031 298.969 125.044 299.003 125.786 299.483C126.312 299.824 126.532 300.086 126.637 300.679C126.169 301.332 125.956 301.402 125.25 301.738L123.399 301.73C122.806 301.683 122.158 301.395 121.829 300.87C121.516 300.371 121.606 300.223 121.741 299.691C122.242 299.257 122.537 299.101 123.174 298.918L123.174 298.918Z" fill="#DCAF5D"/>
<path d="M328.036 285.585C330.316 285.327 332.444 285.653 334.526 286.599C335.372 286.983 336.543 287.791 336.808 288.738C336.969 289.31 336.905 290.021 336.606 290.537C335.616 292.253 333.667 292.887 331.859 293.291C329.615 293.586 327.145 293.559 325.071 292.517C324.152 292.054 323.255 291.313 322.952 290.296C322.758 289.644 322.772 288.801 323.131 288.204C324.122 286.556 326.268 285.927 328.036 285.586V285.585Z" fill="#6B4824"/>
<path d="M329.014 286.919L330.778 286.867C332.07 286.869 333.236 287.185 334.166 288.107L334.135 288.75C333.325 289.713 332.463 289.81 331.286 290C329.859 290.143 327.71 290.106 326.517 289.188C326.094 288.863 326.019 288.817 325.945 288.298C326.823 287.347 327.778 287.159 329.014 286.919Z" fill="#DCAF5D"/>
<path d="M218.239 297.618C220.461 297.714 222.324 298.193 224.171 299.493C225.423 300.374 227.169 301.907 227.339 303.532C227.399 304.104 227.265 304.637 226.866 305.056C225.249 306.753 221.323 306.753 219.11 306.806C216.584 306.664 213.07 306.365 210.937 304.865C210.338 304.444 209.789 303.916 209.694 303.151C209.587 302.295 210.103 301.387 210.629 300.753C212.383 298.639 215.63 297.807 218.239 297.617V297.618Z" fill="#6B4824"/>
<path d="M218.902 299.292C219.619 299.264 220.416 299.237 221.122 299.379C222.119 299.579 222.9 300.004 223.435 300.87C223.467 301.201 223.596 301.54 223.401 301.829C222.943 302.512 221.88 302.556 221.127 302.69L219.824 302.669C218.601 302.63 217.089 302.416 216.229 301.46C215.897 301.091 215.99 300.985 216.018 300.49C216.928 299.696 217.736 299.541 218.902 299.292Z" fill="#DCAF5D"/>
<path d="M296.572 263.04C297.528 263.497 298.512 264.005 299.527 264.316C300.974 264.758 302.512 264.92 303.972 265.357C305.334 265.764 306.586 266.365 307.857 266.988C312.376 266.992 322.773 266.47 326.159 269.806C326.432 270.075 326.6 270.437 326.763 270.778C326.687 271.6 326.501 271.968 325.858 272.523C324.285 273.883 322.187 274.654 320.259 275.362C311.421 278.614 302.023 279.136 292.801 280.574C294.82 281.609 297.136 282.578 298.664 284.299C298.689 285.032 298.675 285.403 298.144 285.945C293.123 291.079 275.623 291.207 268.663 291.048C261.687 290.889 254.648 289.393 247.752 288.381C245.92 288.112 244.119 287.713 242.27 287.569L242.219 287.485C242.404 287.418 242.313 287.428 242.536 287.456C242.857 287.497 243.135 287.567 243.455 287.476C244.708 287.115 246.078 287.255 247.381 287.262L254.467 287.327L270.096 286.755C275.131 286.506 280.269 286.542 285.244 285.672C287.099 285.348 289.263 284.896 290.834 283.838L291.039 283.696C291.554 283.345 292.297 282.882 292.526 282.265C292.696 281.806 292.709 281.363 292.437 280.945C290.869 278.539 287.067 278.335 284.509 278.038L283.693 273.734L295.552 273.292L297.154 273.07C296.501 271.599 296.179 270.358 295.979 268.774C295.829 266.754 296.092 264.999 296.571 263.039L296.572 263.04Z" fill="#A27238"/>
<path d="M296.565 263.039C297.521 263.496 298.505 264.004 299.52 264.315C300.967 264.758 302.505 264.919 303.965 265.356C305.326 265.764 306.578 266.365 307.849 266.987C308.604 267.564 309.528 268.119 309.998 268.959L310.023 269.262L309.57 269.573C308.537 270.469 307.249 270.934 305.968 271.363C303.141 272.309 300.119 272.852 297.147 273.071C296.494 271.599 296.172 270.359 295.972 268.774C295.822 266.755 296.085 265 296.564 263.04L296.565 263.039Z" fill="#239C46"/>
<path d="M295.984 268.777C299.188 269.711 302.915 269.113 306.202 269.021C307.356 268.988 308.509 269.751 309.582 269.576C308.55 270.472 307.262 270.937 305.981 271.366C303.154 272.312 300.132 272.855 297.16 273.074C296.507 271.603 296.185 270.362 295.984 268.777Z" fill="#0E772E"/>
<path d="M254.703 274.731C254.995 274.642 255.953 273.429 256.211 273.154C257.21 272.093 258.226 271.147 259.36 270.234C262.895 267.388 266.664 265.015 271.374 265.501C272.484 265.644 273.463 265.815 274.524 266.191C277.892 267.167 281.19 269.082 282.985 272.176C283.273 272.673 283.479 273.205 283.683 273.74L284.498 278.043C287.056 278.34 290.859 278.545 292.426 280.951C292.698 281.369 292.686 281.812 292.515 282.271C292.286 282.887 291.544 283.351 291.028 283.701L290.823 283.843C289.252 284.902 287.088 285.353 285.234 285.677C280.259 286.548 275.121 286.511 270.086 286.76L254.456 287.332L247.37 287.268C246.067 287.26 244.697 287.12 243.444 287.481C243.125 287.573 242.846 287.502 242.526 287.462C242.302 287.433 242.394 287.423 242.208 287.49L227.155 286.386C221.206 286.17 215.111 286.508 209.203 285.801C203.807 285.155 198.707 283.122 193.318 282.602L177.812 281.744L162.697 280.382L140.952 277.764C137.817 277.236 134.05 276.872 131.15 275.514C130.539 275.228 130.116 274.836 129.898 274.211C131.467 272.39 139.567 271.824 142.203 271.267L150.366 271.099L149.81 271.682C150.356 272.209 151.465 272.193 152.209 272.227C156.903 272.447 161.743 272.252 166.404 272.776C167.742 272.926 169.148 273.099 170.452 273.429C171.349 273.656 172.285 274.086 173.208 274.165L173.301 274.153L173.565 274.092L173.901 274.253C174.869 274.035 175.789 273.56 176.742 273.271C178.751 272.662 180.88 272.75 182.959 272.816C184.166 272.854 185.328 273.004 186.509 273.252C187.164 273.39 188.346 273.84 188.92 273.565C189.15 272.729 188.924 271.852 188.8 271.009C189.261 271.328 189.752 271.628 190.146 272.028C190.956 272.833 191.765 273.731 192.658 274.439L194.163 275.473C195.154 276.27 196.18 276.903 197.325 277.452C205.033 281.144 213.788 282.601 222.234 281.036C226.269 280.288 230.21 279.089 234.277 278.482C240.982 277.481 248.275 276.998 254.703 274.731V274.731Z" fill="url(#paint2_linear_1080_10746)"/>
<path d="M188.798 271.005C189.258 271.324 189.749 271.624 190.143 272.024C190.953 272.828 191.762 273.727 192.656 274.435L194.16 275.468L194.033 275.603C191.227 278.495 184.163 277.935 180.394 277.972L171.508 278.055L173.034 274.965L173.299 274.148L173.563 274.087L173.899 274.248C174.867 274.03 175.787 273.555 176.74 273.266C178.749 272.657 180.878 272.745 182.957 272.811C184.163 272.849 185.326 272.999 186.507 273.247C187.162 273.385 188.344 273.835 188.918 273.56C189.148 272.724 188.922 271.847 188.798 271.004L188.798 271.005Z" fill="#1B5B29"/>
<path d="M188.811 271.004C189.271 271.324 189.762 271.623 190.156 272.024C190.966 272.828 191.775 273.726 192.669 274.435C192.195 274.925 191.953 274.813 191.303 274.824L181.402 274.911C178.649 274.971 175.785 275.239 173.047 274.965L173.312 274.148L173.576 274.087L173.912 274.248C174.88 274.03 175.8 273.555 176.753 273.266C178.762 272.657 180.891 272.745 182.97 272.811C184.176 272.849 185.339 272.999 186.52 273.247C187.175 273.385 188.357 273.835 188.931 273.56C189.161 272.724 188.935 271.847 188.811 271.004L188.811 271.004Z" fill="#0E772E"/>
<path d="M254.714 274.731C255.006 274.642 255.963 273.429 256.222 273.154C257.22 272.093 258.236 271.147 259.371 270.234C262.905 267.388 266.674 265.015 271.384 265.501C272.495 265.644 273.474 265.815 274.535 266.191C277.902 267.167 281.2 269.082 282.996 272.176C283.284 272.673 283.49 273.205 283.693 273.74L284.509 278.043L284.522 280.864C283.253 281.992 281.909 282.517 280.288 282.951C273.553 284.753 265.967 285.311 259.152 283.664C257.61 283.292 256.034 282.922 254.666 282.088C253.819 281.571 252.85 280.613 252.668 279.592C252.386 278.005 253.849 275.984 254.714 274.731Z" fill="#0E772E"/>
<path d="M271.383 265.497C272.493 265.64 273.472 265.811 274.533 266.186C275.033 267.291 275.398 268.208 275.119 269.445C274.81 270.819 273.229 272.331 272.098 273.132C267.758 276.208 260.773 277.623 255.586 276.719C255.754 276.039 255.92 275.295 256.302 274.697C256.971 273.648 257.954 272.698 258.833 271.823C262.589 268.089 266.304 266.598 271.383 265.496V265.497Z" fill="#239C46"/>
<path d="M230.883 215.916C232.907 214.821 235.313 213.639 237.576 213.16L237.88 213.094C240.329 212.601 242.459 213.498 244.448 214.864C245.568 215.634 246.753 216.468 247.69 217.458C251.396 220.339 254.803 224.039 258.924 226.323C261.051 227.501 263.618 227.389 265.635 228.837C268.587 230.956 270.052 234.65 273.042 236.612C275.599 238.29 278.804 238.594 281.231 240.615C283.305 242.342 284.021 244.611 285.142 246.949C286.182 249.119 287.713 251.221 289.652 252.681C291.685 255.18 292.944 257.534 294.074 260.551C294.592 261.476 295.602 262.563 296.571 263.04C296.091 265.001 295.828 266.755 295.978 268.775C296.179 270.359 296.5 271.6 297.154 273.072L295.552 273.293L283.692 273.736C283.489 273.201 283.283 272.669 282.995 272.172C281.2 269.078 277.902 267.162 274.534 266.187C273.473 265.811 272.494 265.64 271.384 265.497C266.674 265.011 262.905 267.384 259.37 270.229C258.236 271.143 257.22 272.089 256.221 273.15C255.963 273.425 255.005 274.637 254.713 274.727C248.284 276.994 240.992 277.477 234.287 278.479C230.22 279.086 226.279 280.284 222.244 281.032C213.798 282.597 205.044 281.141 197.335 277.448C196.19 276.9 195.164 276.266 194.172 275.469L192.668 274.436C191.775 273.727 190.966 272.829 190.156 272.025C189.762 271.624 189.271 271.324 188.81 271.005C188.934 271.849 189.16 272.726 188.93 273.561C188.356 273.837 187.174 273.386 186.519 273.248C185.338 273 184.175 272.85 182.968 272.812C180.89 272.746 178.761 272.659 176.751 273.268C175.799 273.556 174.879 274.031 173.911 274.249L173.575 274.088L173.311 274.149L173.218 274.161C172.295 274.083 171.359 273.653 170.462 273.425C169.158 273.095 167.751 272.922 166.414 272.772C161.752 272.248 156.913 272.443 152.219 272.223C151.475 272.189 150.365 272.205 149.82 271.679L150.376 271.095C150.744 271.045 151.086 270.991 151.425 270.83C152.053 270.532 152.411 269.945 152.652 269.32L152.963 268.741L157.635 265.061C159.558 263.39 161.483 261.636 162.99 259.573C164.443 257.585 165.589 255.395 167.062 253.419C167.975 252.419 168.91 251.38 169.992 250.558C171.403 249.485 173.076 248.704 174.58 247.763C176.239 246.723 177.724 245.503 179.12 244.137C181.03 242.269 182.711 240.137 184.376 238.051C185.783 236.287 187.382 234.077 189.425 233.017C191.478 231.953 194.058 231.979 196.315 231.733C201.024 231.22 205.726 229.633 209.629 226.941C212.284 225.109 214.547 222.867 216.855 220.633L218.121 227.669C218.251 228.307 218.403 229.447 218.743 229.989C218.949 230.318 219.5 230.633 219.825 230.835C222.817 232.694 226.407 233.305 229.804 234.007C230.439 234.013 231.174 233.952 231.783 234.125C232.822 234.009 234.061 233.893 234.858 233.153C235.087 231.725 234.025 229.307 233.666 227.82L231.197 217.221C231.024 216.918 230.967 216.277 230.884 215.919L230.883 215.916Z" fill="#462A17"/>
<path d="M230.883 215.916C232.907 214.821 235.313 213.639 237.576 213.16L237.879 213.094C240.329 212.601 242.459 213.498 244.448 214.864C245.568 215.634 246.753 216.468 247.689 217.458C247.288 217.474 247.46 217.511 247.076 217.336C246.722 217.174 246.904 217.212 246.643 217.18C246.638 218.448 247.665 219.954 248.249 221.076C249.51 223.497 250.896 225.895 252.826 227.855C256.583 231.67 261.8 233.675 265.786 237.281C269.654 240.781 272.814 244.853 276.236 248.761C272.008 246.275 268.145 243.94 263.519 242.213C258.304 240.266 251.942 239.979 247.434 236.585C245.75 235.317 244.311 233.677 242.895 232.124C239.539 228.444 236.782 224.641 233.9 220.598C233.333 219.804 232.233 217.754 231.426 217.329L231.195 217.218C231.023 216.915 230.965 216.274 230.883 215.916V215.916Z" fill="#6B4824"/>
<path d="M216.854 220.633L218.12 227.668C218.25 228.307 218.403 229.446 218.742 229.988C218.948 230.318 219.499 230.633 219.824 230.835C222.816 232.693 226.407 233.304 229.803 234.006C230.439 234.013 231.173 233.951 231.782 234.125L232.809 234.814C238.007 237.359 241.583 241.777 245.973 245.419C248.367 247.405 251.071 249.056 253.318 251.212C250.542 251.777 247.892 251.838 245.118 251.207C241.902 250.476 238.454 247.934 235.121 249.451L234.897 249.551C234.082 249.949 233.373 250.755 232.743 251.396C230.53 253.643 228.646 256.925 226.078 258.724C224.561 259.786 222.034 260.414 220.282 261.072L207.218 265.942L195.838 270.158C193.969 270.825 192.098 271.601 190.156 272.026C189.762 271.625 189.271 271.325 188.81 271.006C188.934 271.85 189.16 272.727 188.93 273.562C188.356 273.838 187.174 273.386 186.519 273.249C185.338 273.001 184.175 272.851 182.968 272.813C180.89 272.747 178.761 272.66 176.751 273.269C175.799 273.557 174.879 274.031 173.911 274.25L173.575 274.089L173.311 274.15L173.218 274.162C172.295 274.084 171.359 273.653 170.462 273.426C169.158 273.096 167.751 272.923 166.414 272.773C161.752 272.249 156.913 272.444 152.219 272.224C151.475 272.19 150.365 272.206 149.82 271.68L150.376 271.096C150.744 271.046 151.086 270.992 151.425 270.831C152.053 270.533 152.411 269.946 152.652 269.321L152.963 268.742L157.635 265.062C159.558 263.391 161.483 261.637 162.99 259.574C164.443 257.586 165.589 255.396 167.062 253.419C167.975 252.42 168.91 251.381 169.992 250.559C171.403 249.486 173.076 248.705 174.58 247.764C176.239 246.724 177.724 245.504 179.12 244.138C181.03 242.27 182.711 240.138 184.376 238.052C185.783 236.288 187.382 234.078 189.425 233.018C191.478 231.954 194.058 231.979 196.315 231.734C201.024 231.221 205.726 229.634 209.629 226.942C212.284 225.11 214.547 222.868 216.855 220.634L216.854 220.633Z" fill="#6B4824"/>
<path d="M173.57 274.084C173.947 272.825 175.05 271.374 175.92 270.395C177.321 268.82 179.365 267.549 181.513 267.473C184.452 267.37 186.798 269.086 188.805 271.001C188.929 271.845 189.156 272.722 188.925 273.557C188.351 273.833 187.17 273.382 186.514 273.245C185.333 272.996 184.171 272.846 182.964 272.808C180.885 272.742 178.757 272.655 176.747 273.264C175.795 273.552 174.874 274.027 173.907 274.245L173.57 274.084Z" fill="#239C46"/>
</g>
<defs>
<linearGradient id="paint0_linear_1080_10746" x1="274.663" y1="144.927" x2="270.919" y2="107.91" gradientUnits="userSpaceOnUse">
<stop stop-color="#8DB12E"/>
<stop offset="1" stop-color="#8FD568"/>
</linearGradient>
<linearGradient id="paint1_linear_1080_10746" x1="166.054" y1="113.113" x2="205.33" y2="80.3515" gradientUnits="userSpaceOnUse">
<stop stop-color="#108234"/>
<stop offset="1" stop-color="#2EAA4F"/>
</linearGradient>
<linearGradient id="paint2_linear_1080_10746" x1="215.545" y1="260.738" x2="206.622" y2="295.393" gradientUnits="userSpaceOnUse">
<stop stop-color="#8D5B2F"/>
<stop offset="1" stop-color="#A87839"/>
</linearGradient>
<clipPath id="clip0_1080_10746">
<rect width="313.092" height="343.08" fill="white" transform="translate(75.375)"/>
</clipPath>
</defs>
</svg>
